NotoSansKhmer-Bold.ufo
<glyph name="quotedbl" format="2">
  <advance width="528"/>
  <unicode hex="0022"/>
  <note>
quotedbl
</note>
  <outline>
    <contour>
      <point x="85" y="456" type="line"/>
      <point x="213" y="456" type="line"/>
      <point x="233" y="714" type="line"/>
      <point x="65" y="714" type="line"/>
    </contour>
    <contour>
      <point x="315" y="456" type="line"/>
      <point x="443" y="456" type="line"/>
      <point x="463" y="714" type="line"/>
      <point x="295" y="714" type="line"/>
    </contour>
  </outline>
</glyph>
<glyph name="quotesingle" format="2">
  <advance width="298"/>
  <unicode hex="0027"/>
  <note>
quotesingle
</note>
  <outline>
    <contour>
      <point x="85" y="456" type="line"/>
      <point x="213" y="456" type="line"/>
      <point x="233" y="714" type="line"/>
      <point x="65" y="714" type="line"/>
    </contour>
  </outline>
</glyph>
<glyph name="comma" format="2">
  <advance width="322"/>
  <unicode hex="002C"/>
  <note>
comma
</note>
  <outline>
    <contour>
      <point x="243" y="116" type="line"/>
      <point x="71" y="116" type="line"/>
      <point x="60" y="44"/>
      <point x="44" y="-38"/>
      <point x="23" y="-129" type="curve"/>
      <point x="164" y="-129" type="line"/>
      <point x="204" y="-42"/>
      <point x="233" y="36"/>
      <point x="250" y="105" type="curve"/>
    </contour>
  </outline>
</glyph>
<glyph name="hyphen" format="2">
  <advance width="322"/>
  <unicode hex="002D"/>
  <note>
hyphen
</note>
  <outline>
    <contour>
      <point x="22" y="191" type="line"/>
      <point x="300" y="191" type="line"/>
      <point x="300" y="345" type="line"/>
      <point x="22" y="345" type="line"/>
    </contour>
  </outline>
</glyph>
<glyph name="period" format="2">
  <advance width="299"/>
  <unicode hex="002E"/>
  <note>
period
</note>
  <outline>
    <contour>
      <point x="45" y="83" type="curve" smooth="yes"/>
      <point x="45" y="19"/>
      <point x="87" y="-12"/>
      <point x="151" y="-12" type="curve" smooth="yes"/>
      <point x="211" y="-12"/>
      <point x="254" y="19"/>
      <point x="254" y="83" type="curve" smooth="yes"/>
      <point x="254" y="148"/>
      <point x="212" y="179"/>
      <point x="151" y="179" type="curve" smooth="yes"/>
      <point x="87" y="179"/>
      <point x="45" y="150"/>
    </contour>
  </outline>
</glyph>
<glyph name="uni1780" format="2">
  <advance width="709"/>
  <unicode hex="1780"/>
  <note>
uni1780
</note>
  <outline>
    <contour>
      <point x="90" y="474" type="line"/>
      <point x="619" y="474" type="line"/>
      <point x="619" y="586" type="line"/>
      <point x="90" y="586" type="line"/>
    </contour>
    <contour>
      <point x="90" y="0" type="line"/>
      <point x="271" y="0" type="line"/>
      <point x="271" y="266" type="line" smooth="yes"/>
      <point x="271" y="299"/>
      <point x="302" y="328"/>
      <point x="354" y="328" type="curve" smooth="yes"/>
      <point x="406" y="328"/>
      <point x="438" y="299"/>
      <point x="438" y="266" type="curve" smooth="yes"/>
      <point x="438" y="0" type="line"/>
      <point x="619" y="0" type="line"/>
      <point x="619" y="266" type="line" smooth="yes"/>
      <point x="619" y="374"/>
      <point x="526" y="440"/>
      <point x="354" y="440" type="curve" smooth="yes"/>
      <point x="183" y="440"/>
      <point x="90" y="374"/>
      <point x="90" y="266" type="curve" smooth="yes"/>
    </contour>
  </outline>
</glyph>
<glyph name="uni1781" format="2">
  <advance width="709"/>
  <unicode hex="1781"/>
  <note>
uni1781
</note>
  <outline>
    <contour>
      <point x="354" y="0" type="curve" smooth="yes"/>
      <point x="526" y="0"/>
      <point x="619" y="46"/>
      <point x="619" y="158" type="curve" smooth="yes"/>
      <point x="619" y="234" type="line"/>
      <point x="438" y="234" type="line"/>
      <point x="438" y="158" type="line" smooth="yes"/>
      <point x="438" y="129"/>
      <point x="405" y="112"/>
      <point x="354" y="112" type="curve" smooth="yes"/>
      <point x="305" y="112"/>
      <point x="271" y="129"/>
      <point x="271" y="158" type="curve" smooth="yes"/>
      <point x="271" y="213" type="line"/>
      <point x="313" y="226" type="line" smooth="yes"/>
      <point x="537" y="295"/>
      <point x="619" y="329"/>
      <point x="619" y="436" type="curve" smooth="yes"/>
      <point x="619" y="540"/>
      <point x="526" y="586"/>
      <point x="354" y="586" type="curve" smooth="yes"/>
      <point x="179" y="586"/>
      <point x="90" y="549"/>
      <point x="90" y="454" type="curve" smooth="yes"/>
      <point x="90" y="381"/>
      <point x="140" y="351"/>
      <point x="211" y="351" type="curve" smooth="yes"/>
      <point x="306" y="351" type="line"/>
      <point x="306" y="424" type="line"/>
      <point x="282" y="424"/>
      <point x="275" y="430"/>
      <point x="275" y="444" type="curve" smooth="yes"/>
      <point x="275" y="465"/>
      <point x="305" y="474"/>
      <point x="354" y="474" type="curve" smooth="yes"/>
      <point x="405" y="474"/>
      <point x="438" y="457"/>
      <point x="438" y="428" type="curve" smooth="yes"/>
      <point x="438" y="383"/>
      <point x="396" y="348"/>
      <point x="308" y="330" type="curve" smooth="yes"/>
      <point x="90" y="286" type="line"/>
      <point x="90" y="158" type="line" smooth="yes"/>
      <point x="90" y="46"/>
      <point x="183" y="0"/>
    </contour>
  </outline>
</glyph>
<glyph name="uni1783" format="2">
  <advance width="1009"/>
  <unicode hex="1783"/>
  <note>
uni1783
</note>
  <outline>
    <contour>
      <point x="94" y="158" type="line" smooth="yes"/>
      <point x="94" y="53"/>
      <point x="178" y="0"/>
      <point x="346" y="0" type="curve" smooth="yes"/>
      <point x="419" y="0"/>
      <point x="473" y="16"/>
      <point x="508" y="48" type="curve"/>
      <point x="542" y="16"/>
      <point x="595" y="0"/>
      <point x="666" y="0" type="curve" smooth="yes"/>
      <point x="831" y="0"/>
      <point x="917" y="53"/>
      <point x="917" y="158" type="curve" smooth="yes"/>
      <point x="917" y="371" type="line"/>
      <point x="736" y="371" type="line"/>
      <point x="736" y="163" type="line" smooth="yes"/>
      <point x="736" y="132"/>
      <point x="713" y="112"/>
      <point x="666" y="112" type="curve" smooth="yes"/>
      <point x="620" y="112"/>
      <point x="598" y="132"/>
      <point x="598" y="163" type="curve" smooth="yes"/>
      <point x="598" y="371" type="line"/>
      <point x="417" y="371" type="line"/>
      <point x="417" y="163" type="line" smooth="yes"/>
      <point x="417" y="132"/>
      <point x="393" y="112"/>
      <point x="346" y="112" type="curve" smooth="yes"/>
      <point x="299" y="112"/>
      <point x="275" y="132"/>
      <point x="275" y="163" type="curve" smooth="yes"/>
      <point x="275" y="536" type="line" smooth="yes"/>
      <point x="275" y="569"/>
      <point x="251" y="586"/>
      <point x="201" y="586" type="curve" smooth="yes"/>
      <point x="60" y="586" type="line"/>
      <point x="60" y="474" type="line"/>
      <point x="76" y="474"/>
      <point x="94" y="466"/>
      <point x="94" y="451" type="curve" smooth="yes"/>
    </contour>
    <contour>
      <point x="736" y="354" type="line"/>
      <point x="917" y="354" type="line"/>
      <point x="917" y="410" type="line"/>
      <point x="855" y="473" type="line"/>
      <point x="855" y="474" type="line"/>
      <point x="925" y="474" type="line"/>
      <point x="925" y="586" type="line"/>
      <point x="758" y="586" type="line"/>
      <point x="716" y="532"/>
      <point x="694" y="504"/>
      <point x="694" y="491" type="curve" smooth="yes"/>
      <point x="694" y="482"/>
      <point x="696" y="479"/>
      <point x="736" y="426" type="curve"/>
    </contour>
    <contour>
      <point x="417" y="354" type="line"/>
      <point x="598" y="354" type="line"/>
      <point x="598" y="410" type="line"/>
      <point x="536" y="473" type="line"/>
      <point x="536" y="474" type="line"/>
      <point x="606" y="474" type="line"/>
      <point x="606" y="586" type="line"/>
      <point x="439" y="586" type="line"/>
      <point x="397" y="532"/>
      <point x="375" y="504"/>
      <point x="375" y="491" type="curve" smooth="yes"/>
      <point x="375" y="482"/>
      <point x="377" y="479"/>
      <point x="417" y="426" type="curve"/>
    </contour>
  </outline>
</glyph>
<glyph name="uni1786" format="2">
  <advance width="728"/>
  <unicode hex="1786"/>
  <note>
uni1786
</note>
  <outline>
    <contour>
      <point x="638" y="204" type="line"/>
      <point x="457" y="204" type="line"/>
      <point x="457" y="169" type="line" smooth="yes"/>
      <point x="457" y="149"/>
      <point x="445" y="132"/>
      <point x="427" y="132" type="curve" smooth="yes"/>
      <point x="408" y="132"/>
      <point x="394" y="146"/>
      <point x="369" y="161" type="curve" smooth="yes"/>
      <point x="344" y="176"/>
      <point x="322" y="183"/>
      <point x="290" y="188" type="curve"/>
      <point x="290" y="374" type="line"/>
      <point x="209" y="421"/>
      <point x="187" y="450"/>
      <point x="187" y="457" type="curve" smooth="yes"/>
      <point x="187" y="462"/>
      <point x="190" y="469"/>
      <point x="199" y="474" type="curve"/>
      <point x="638" y="474" type="line"/>
      <point x="638" y="586" type="line"/>
      <point x="146" y="586" type="line"/>
      <point x="82" y="517"/>
      <point x="60" y="493"/>
      <point x="60" y="468" type="curve" smooth="yes"/>
      <point x="60" y="452"/>
      <point x="86" y="416"/>
      <point x="109" y="384" type="curve"/>
      <point x="109" y="191" type="line"/>
      <point x="76" y="189"/>
      <point x="60" y="171"/>
      <point x="60" y="132" type="curve" smooth="yes"/>
      <point x="60" y="95"/>
      <point x="76" y="54"/>
      <point x="109" y="0" type="curve"/>
      <point x="290" y="0" type="line"/>
      <point x="290" y="67" type="line"/>
      <point x="307" y="66"/>
      <point x="332" y="60"/>
      <point x="361" y="43" type="curve" smooth="yes"/>
      <point x="390" y="26"/>
      <point x="421" y="0"/>
      <point x="482" y="0" type="curve" smooth="yes"/>
      <point x="551" y="0"/>
      <point x="638" y="43"/>
      <point x="638" y="158" type="curve" smooth="yes"/>
    </contour>
    <contour>
      <point x="638" y="198" type="line"/>
      <point x="638" y="363" type="line" smooth="yes"/>
      <point x="638" y="404"/>
      <point x="592" y="434"/>
      <point x="521" y="434" type="curve" smooth="yes"/>
      <point x="402" y="434"/>
      <point x="344" y="383"/>
      <point x="344" y="311" type="curve" smooth="yes"/>
      <point x="344" y="253"/>
      <point x="389" y="211"/>
      <point x="457" y="211" type="curve"/>
      <point x="457" y="198" type="line"/>
    </contour>
    <contour>
      <point x="457" y="286" type="line"/>
      <point x="445" y="286"/>
      <point x="433" y="295"/>
      <point x="433" y="316" type="curve" smooth="yes"/>
      <point x="433" y="335"/>
      <point x="445" y="345"/>
      <point x="457" y="345" type="curve"/>
    </contour>
  </outline>
</glyph>
<glyph name="uni1787" format="2">
  <advance width="729"/>
  <unicode hex="1787"/>
  <note>
uni1787
</note>
  <outline>
    <contour>
      <point x="109" y="0" type="line"/>
      <point x="261" y="0" type="line"/>
      <point x="374" y="83" type="line"/>
      <point x="487" y="0" type="line"/>
      <point x="639" y="0" type="line"/>
      <point x="639" y="424" type="line"/>
      <point x="458" y="424" type="line"/>
      <point x="458" y="165" type="line"/>
      <point x="374" y="223" type="line"/>
      <point x="290" y="164" type="line"/>
      <point x="290" y="374" type="line"/>
      <point x="254" y="391"/>
      <point x="187" y="445"/>
      <point x="187" y="457" type="curve" smooth="yes"/>
      <point x="187" y="460"/>
      <point x="190" y="466"/>
      <point x="198" y="474" type="curve"/>
      <point x="520" y="474" type="line" smooth="yes"/>
      <point x="632" y="474"/>
      <point x="639" y="519"/>
      <point x="639" y="610" type="curve" smooth="yes"/>
      <point x="639" y="674" type="line"/>
      <point x="458" y="674" type="line"/>
      <point x="458" y="610" type="line" smooth="yes"/>
      <point x="458" y="594"/>
      <point x="454" y="586"/>
      <point x="438" y="586" type="curve" smooth="yes"/>
      <point x="146" y="586" type="line"/>
      <point x="94" y="532"/>
      <point x="60" y="497"/>
      <point x="60" y="470" type="curve" smooth="yes"/>
      <point x="60" y="455"/>
      <point x="85" y="419"/>
      <point x="109" y="384" type="curve"/>
    </contour>
  </outline>
</glyph>
<glyph name="uni178A" format="2">
  <advance width="709"/>
  <unicode hex="178A"/>
  <note>
uni178A
</note>
  <outline>
    <contour>
      <point x="90" y="443" type="line"/>
      <point x="503" y="443" type="line" smooth="yes"/>
      <point x="586" y="443"/>
      <point x="619" y="489"/>
      <point x="619" y="578" type="curve" smooth="yes"/>
      <point x="619" y="674" type="line"/>
      <point x="438" y="674" type="line"/>
      <point x="438" y="578" type="line" smooth="yes"/>
      <point x="438" y="563"/>
      <point x="420" y="555"/>
      <point x="383" y="555" type="curve" smooth="yes"/>
      <point x="271" y="555" type="line"/>
      <point x="271" y="610" type="line"/>
      <point x="90" y="610" type="line"/>
    </contour>
    <contour>
      <point x="90" y="0" type="line"/>
      <point x="242" y="0" type="line"/>
      <point x="355" y="76" type="line"/>
      <point x="468" y="0" type="line"/>
      <point x="619" y="0" type="line"/>
      <point x="619" y="402" type="line"/>
      <point x="438" y="402" type="line"/>
      <point x="438" y="165" type="line"/>
      <point x="355" y="223" type="line"/>
      <point x="271" y="164" type="line"/>
      <point x="271" y="402" type="line"/>
      <point x="90" y="402" type="line"/>
    </contour>
  </outline>
</glyph>
<glyph name="uni178B" format="2">
  <advance width="724"/>
  <unicode hex="178B"/>
  <note>
uni178B
</note>
  <outline>
    <contour>
      <point x="365" y="0" type="curve" smooth="yes"/>
      <point x="542" y="0"/>
      <point x="631" y="53"/>
      <point x="631" y="158" type="curve" smooth="yes"/>
      <point x="631" y="403" type="line"/>
      <point x="569" y="472" type="line"/>
      <point x="570" y="474" type="line"/>
      <point x="595" y="474" type="line" smooth="yes"/>
      <point x="631" y="474"/>
      <point x="640" y="495"/>
      <point x="640" y="520" type="curve" smooth="yes"/>
      <point x="640" y="674" type="line"/>
      <point x="459" y="674" type="line"/>
      <point x="459" y="616" type="line" smooth="yes"/>
      <point x="459" y="594"/>
      <point x="444" y="586"/>
      <point x="428" y="586" type="curve" smooth="yes"/>
      <point x="410" y="586" type="line"/>
      <point x="375" y="540"/>
      <point x="348" y="511"/>
      <point x="348" y="494" type="curve" smooth="yes"/>
      <point x="348" y="481"/>
      <point x="353" y="475"/>
      <point x="450" y="364" type="curve"/>
      <point x="450" y="203" type="line" smooth="yes"/>
      <point x="450" y="143"/>
      <point x="420" y="112"/>
      <point x="365" y="112" type="curve" smooth="yes"/>
      <point x="310" y="112"/>
      <point x="282" y="143"/>
      <point x="282" y="203" type="curve" smooth="yes"/>
      <point x="282" y="523" type="line" smooth="yes"/>
      <point x="282" y="569"/>
      <point x="243" y="586"/>
      <point x="164" y="586" type="curve" smooth="yes"/>
      <point x="60" y="586" type="line"/>
      <point x="60" y="474" type="line"/>
      <point x="87" y="474"/>
      <point x="101" y="466"/>
      <point x="101" y="451" type="curve" smooth="yes"/>
      <point x="101" y="158" type="line" smooth="yes"/>
      <point x="101" y="53"/>
      <point x="189" y="0"/>
    </contour>
  </outline>
</glyph>
<glyph name="uni178C" format="2">
  <advance width="704"/>
  <unicode hex="178C"/>
  <note>
uni178C
</note>
  <outline>
    <contour>
      <point x="439" y="-10" type="line"/>
      <point x="620" y="-10" type="line"/>
      <point x="620" y="224" type="line"/>
      <point x="439" y="224" type="line"/>
      <point x="439" y="197" type="line" smooth="yes"/>
      <point x="439" y="156"/>
      <point x="354" y="112"/>
      <point x="317" y="112" type="curve" smooth="yes"/>
      <point x="286" y="112"/>
      <point x="271" y="136"/>
      <point x="271" y="158" type="curve" smooth="yes"/>
      <point x="271" y="207" type="line"/>
      <point x="313" y="215" type="line" smooth="yes"/>
      <point x="502" y="251"/>
      <point x="619" y="337"/>
      <point x="619" y="454" type="curve" smooth="yes"/>
      <point x="619" y="548"/>
      <point x="564" y="586"/>
      <point x="489" y="586" type="curve" smooth="yes"/>
      <point x="432" y="586"/>
      <point x="393" y="565"/>
      <point x="356" y="525" type="curve"/>
      <point x="354" y="525" type="line"/>
      <point x="317" y="568"/>
      <point x="284" y="586"/>
      <point x="236" y="586" type="curve" smooth="yes"/>
      <point x="136" y="586"/>
      <point x="90" y="530"/>
      <point x="90" y="462" type="curve" smooth="yes"/>
      <point x="90" y="385"/>
      <point x="141" y="342"/>
      <point x="228" y="342" type="curve" smooth="yes"/>
      <point x="273" y="342" type="line"/>
      <point x="273" y="427" type="line"/>
      <point x="270" y="427"/>
      <point x="260" y="431"/>
      <point x="260" y="446" type="curve" smooth="yes"/>
      <point x="260" y="457"/>
      <point x="269" y="463"/>
      <point x="278" y="463" type="curve" smooth="yes"/>
      <point x="300" y="463"/>
      <point x="328" y="407"/>
      <point x="355" y="407" type="curve" smooth="yes"/>
      <point x="373" y="407"/>
      <point x="384" y="420"/>
      <point x="396" y="434" type="curve" smooth="yes"/>
      <point x="409" y="448"/>
      <point x="423" y="463"/>
      <point x="431" y="463" type="curve" smooth="yes"/>
      <point x="443" y="463"/>
      <point x="448" y="453"/>
      <point x="448" y="439" type="curve" smooth="yes"/>
      <point x="448" y="395"/>
      <point x="396" y="345"/>
      <point x="308" y="328" type="curve" smooth="yes"/>
      <point x="90" y="286" type="line"/>
      <point x="90" y="143" type="line" smooth="yes"/>
      <point x="90" y="50"/>
      <point x="190" y="0"/>
      <point x="282" y="0" type="curve" smooth="yes"/>
      <point x="329" y="0"/>
      <point x="382" y="13"/>
      <point x="438" y="65" type="curve"/>
      <point x="439" y="65" type="line"/>
    </contour>
  </outline>
</glyph>
<glyph name="uni178F" format="2">
  <advance width="710"/>
  <unicode hex="178F"/>
  <note>
uni178F
</note>
  <outline>
    <contour>
      <point x="90" y="474" type="line"/>
      <point x="619" y="474" type="line"/>
      <point x="619" y="586" type="line"/>
      <point x="90" y="586" type="line"/>
    </contour>
    <contour>
      <point x="90" y="262" type="line"/>
      <point x="90" y="70" type="line" smooth="yes"/>
      <point x="90" y="19"/>
      <point x="112" y="0"/>
      <point x="186" y="0" type="curve" smooth="yes"/>
      <point x="247" y="0" type="line" smooth="yes"/>
      <point x="340" y="0"/>
      <point x="395" y="49"/>
      <point x="395" y="122" type="curve" smooth="yes"/>
      <point x="395" y="207"/>
      <point x="350" y="240"/>
      <point x="271" y="241" type="curve"/>
      <point x="271" y="262" type="line" smooth="yes"/>
    </contour>
    <contour>
      <point x="271" y="80" type="curve"/>
      <point x="271" y="164" type="line"/>
      <point x="286" y="164"/>
      <point x="299" y="150"/>
      <point x="299" y="123" type="curve" smooth="yes"/>
      <point x="299" y="98"/>
      <point x="284" y="80"/>
    </contour>
    <contour>
      <point x="90" y="253" type="line"/>
      <point x="271" y="253" type="line"/>
      <point x="271" y="266" type="line" smooth="yes"/>
      <point x="271" y="297"/>
      <point x="299" y="313"/>
      <point x="354" y="313" type="curve" smooth="yes"/>
      <point x="409" y="313"/>
      <point x="439" y="297"/>
      <point x="439" y="266" type="curve" smooth="yes"/>
      <point x="439" y="0" type="line"/>
      <point x="620" y="0" type="line"/>
      <point x="620" y="266" type="line" smooth="yes"/>
      <point x="620" y="371"/>
      <point x="531" y="424"/>
      <point x="354" y="424" type="curve" smooth="yes"/>
      <point x="178" y="424"/>
      <point x="90" y="371"/>
      <point x="90" y="266" type="curve" smooth="yes"/>
    </contour>
    <contour>
      <point x="90" y="262" type="line"/>
      <point x="90" y="70" type="line" smooth="yes"/>
      <point x="90" y="19"/>
      <point x="112" y="0"/>
      <point x="186" y="0" type="curve" smooth="yes"/>
      <point x="247" y="0" type="line" smooth="yes"/>
      <point x="340" y="0"/>
      <point x="395" y="49"/>
      <point x="395" y="122" type="curve" smooth="yes"/>
      <point x="395" y="207"/>
      <point x="350" y="240"/>
      <point x="271" y="241" type="curve"/>
      <point x="271" y="262" type="line" smooth="yes"/>
    </contour>
    <contour>
      <point x="271" y="80" type="curve"/>
      <point x="271" y="164" type="line"/>
      <point x="286" y="164"/>
      <point x="299" y="150"/>
      <point x="299" y="123" type="curve" smooth="yes"/>
      <point x="299" y="98"/>
      <point x="284" y="80"/>
    </contour>
  </outline>
</glyph>
<glyph name="uni1791" format="2">
  <advance width="667"/>
  <unicode hex="1791"/>
  <note>
uni1791
</note>
  <outline>
    <contour>
      <point x="321" y="0" type="curve" smooth="yes"/>
      <point x="478" y="0"/>
      <point x="557" y="53"/>
      <point x="557" y="158" type="curve" smooth="yes"/>
      <point x="557" y="210" type="line"/>
      <point x="579" y="226"/>
      <point x="593" y="245"/>
      <point x="593" y="289" type="curve" smooth="yes"/>
      <point x="593" y="344"/>
      <point x="541" y="387"/>
      <point x="484" y="387" type="curve" smooth="yes"/>
      <point x="433" y="387"/>
      <point x="401" y="360"/>
      <point x="383" y="328" type="curve"/>
      <point x="303" y="355"/>
      <point x="241" y="379"/>
      <point x="241" y="428" type="curve" smooth="yes"/>
      <point x="241" y="457"/>
      <point x="275" y="474"/>
      <point x="324" y="474" type="curve" smooth="yes"/>
      <point x="371" y="474"/>
      <point x="409" y="466"/>
      <point x="409" y="425" type="curve" smooth="yes"/>
      <point x="409" y="414" type="line"/>
      <point x="589" y="414" type="line"/>
      <point x="589" y="438" type="line" smooth="yes"/>
      <point x="589" y="549"/>
      <point x="500" y="586"/>
      <point x="324" y="586" type="curve" smooth="yes"/>
      <point x="153" y="586"/>
      <point x="60" y="536"/>
      <point x="60" y="424" type="curve" smooth="yes"/>
      <point x="60" y="321"/>
      <point x="176" y="253"/>
      <point x="376" y="217" type="curve"/>
      <point x="376" y="158" type="line" smooth="yes"/>
      <point x="376" y="127"/>
      <point x="360" y="112"/>
      <point x="321" y="112" type="curve" smooth="yes"/>
      <point x="283" y="112"/>
      <point x="267" y="127"/>
      <point x="267" y="158" type="curve" smooth="yes"/>
      <point x="267" y="218" type="line"/>
      <point x="86" y="218" type="line"/>
      <point x="86" y="158" type="line" smooth="yes"/>
      <point x="86" y="53"/>
      <point x="164" y="0"/>
    </contour>
  </outline>
</glyph>
<glyph name="uni1792" format="2">
  <advance width="728"/>
  <unicode hex="1792"/>
  <note>
uni1792
</note>
  <outline>
    <contour>
      <point x="638" y="208" type="line"/>
      <point x="457" y="208" type="line"/>
      <point x="457" y="165" type="line"/>
      <point x="374" y="203" type="line"/>
      <point x="290" y="164" type="line"/>
      <point x="290" y="374" type="line"/>
      <point x="255" y="390"/>
      <point x="187" y="443"/>
      <point x="187" y="456" type="curve" smooth="yes"/>
      <point x="187" y="463"/>
      <point x="191" y="469"/>
      <point x="198" y="474" type="curve"/>
      <point x="638" y="474" type="line"/>
      <point x="638" y="586" type="line"/>
      <point x="146" y="586" type="line"/>
      <point x="100" y="531"/>
      <point x="60" y="502"/>
      <point x="60" y="466" type="curve" smooth="yes"/>
      <point x="60" y="452"/>
      <point x="86" y="416"/>
      <point x="109" y="384" type="curve"/>
      <point x="109" y="0" type="line"/>
      <point x="261" y="0" type="line"/>
      <point x="374" y="56" type="line"/>
      <point x="487" y="0" type="line"/>
      <point x="638" y="0" type="line"/>
    </contour>
    <contour>
      <point x="638" y="198" type="line"/>
      <point x="638" y="363" type="line" smooth="yes"/>
      <point x="638" y="404"/>
      <point x="592" y="434"/>
      <point x="521" y="434" type="curve" smooth="yes"/>
      <point x="402" y="434"/>
      <point x="344" y="383"/>
      <point x="344" y="311" type="curve" smooth="yes"/>
      <point x="344" y="253"/>
      <point x="389" y="211"/>
      <point x="457" y="211" type="curve"/>
      <point x="457" y="198" type="line"/>
    </contour>
    <contour>
      <point x="457" y="286" type="line"/>
      <point x="445" y="286"/>
      <point x="433" y="295"/>
      <point x="433" y="316" type="curve" smooth="yes"/>
      <point x="433" y="335"/>
      <point x="445" y="345"/>
      <point x="457" y="345" type="curve"/>
    </contour>
  </outline>
</glyph>
<glyph name="uni1793" format="2">
  <advance width="703"/>
  <unicode hex="1793"/>
  <note>
uni1793
</note>
  <outline>
    <contour>
      <point x="90" y="0" type="line"/>
      <point x="271" y="0" type="line"/>
      <point x="271" y="47" type="line"/>
      <point x="288" y="45"/>
      <point x="316" y="31"/>
      <point x="337" y="23" type="curve" smooth="yes"/>
      <point x="360" y="14"/>
      <point x="396" y="0"/>
      <point x="449" y="0" type="curve" smooth="yes"/>
      <point x="534" y="0"/>
      <point x="629" y="55"/>
      <point x="629" y="158" type="curve" smooth="yes"/>
      <point x="629" y="250"/>
      <point x="555" y="307"/>
      <point x="416" y="341" type="curve" smooth="yes"/>
      <point x="348" y="357"/>
      <point x="271" y="381"/>
      <point x="271" y="426" type="curve" smooth="yes"/>
      <point x="271" y="457"/>
      <point x="314" y="474"/>
      <point x="362" y="474" type="curve" smooth="yes"/>
      <point x="408" y="474"/>
      <point x="433" y="468"/>
      <point x="433" y="451" type="curve" smooth="yes"/>
      <point x="433" y="444"/>
      <point x="425" y="437"/>
      <point x="414" y="435" type="curve"/>
      <point x="414" y="362" type="line"/>
      <point x="454" y="362" type="line" smooth="yes"/>
      <point x="592" y="362"/>
      <point x="612" y="413"/>
      <point x="612" y="461" type="curve" smooth="yes"/>
      <point x="612" y="550"/>
      <point x="531" y="586"/>
      <point x="354" y="586" type="curve" smooth="yes"/>
      <point x="183" y="586"/>
      <point x="90" y="540"/>
      <point x="90" y="435" type="curve" smooth="yes"/>
      <point x="90" y="329"/>
      <point x="236" y="280"/>
      <point x="383" y="242" type="curve" smooth="yes"/>
      <point x="422" y="232"/>
      <point x="449" y="210"/>
      <point x="449" y="173" type="curve" smooth="yes"/>
      <point x="449" y="134"/>
      <point x="429" y="112"/>
      <point x="401" y="112" type="curve" smooth="yes"/>
      <point x="380" y="112"/>
      <point x="359" y="122"/>
      <point x="336" y="133" type="curve" smooth="yes"/>
      <point x="315" y="143"/>
      <point x="292" y="152"/>
      <point x="271" y="155" type="curve"/>
      <point x="271" y="246" type="line"/>
      <point x="90" y="246" type="line"/>
    </contour>
  </outline>
</glyph>
<glyph name="uni1794" format="2">
  <advance width="713"/>
  <unicode hex="1794"/>
  <note>
uni1794
</note>
  <outline>
    <contour>
      <point x="273" y="374" type="line"/>
      <point x="92" y="374" type="line"/>
      <point x="92" y="158" type="line" smooth="yes"/>
      <point x="92" y="53"/>
      <point x="180" y="0"/>
      <point x="356" y="0" type="curve" smooth="yes"/>
      <point x="533" y="0"/>
      <point x="621" y="53"/>
      <point x="621" y="158" type="curve" smooth="yes"/>
      <point x="621" y="372" type="line"/>
      <point x="440" y="372" type="line"/>
      <point x="440" y="168" type="line" smooth="yes"/>
      <point x="440" y="137"/>
      <point x="413" y="112"/>
      <point x="356" y="112" type="curve" smooth="yes"/>
      <point x="301" y="112"/>
      <point x="273" y="137"/>
      <point x="273" y="168" type="curve" smooth="yes"/>
    </contour>
    <contour>
      <point x="440" y="354" type="line"/>
      <point x="621" y="354" type="line"/>
      <point x="621" y="410" type="line"/>
      <point x="559" y="473" type="line"/>
      <point x="559" y="474" type="line"/>
      <point x="629" y="474" type="line"/>
      <point x="629" y="586" type="line"/>
      <point x="462" y="586" type="line"/>
      <point x="420" y="532"/>
      <point x="398" y="504"/>
      <point x="398" y="491" type="curve" smooth="yes"/>
      <point x="398" y="482"/>
      <point x="400" y="479"/>
      <point x="440" y="426" type="curve"/>
    </contour>
    <contour>
      <point x="92" y="354" type="line"/>
      <point x="273" y="354" type="line"/>
      <point x="273" y="410" type="line"/>
      <point x="211" y="473" type="line"/>
      <point x="211" y="474" type="line"/>
      <point x="281" y="474" type="line"/>
      <point x="281" y="586" type="line"/>
      <point x="114" y="586" type="line"/>
      <point x="72" y="532"/>
      <point x="50" y="504"/>
      <point x="50" y="491" type="curve" smooth="yes"/>
      <point x="50" y="482"/>
      <point x="52" y="479"/>
      <point x="92" y="426" type="curve"/>
    </contour>
  </outline>
</glyph>
<glyph name="uni1795" format="2">
  <advance width="728"/>
  <unicode hex="1795"/>
  <note>
uni1795
</note>
  <outline>
    <contour>
      <point x="628" y="204" type="line"/>
      <point x="447" y="204" type="line"/>
      <point x="447" y="165" type="line"/>
      <point x="364" y="203" type="line"/>
      <point x="280" y="164" type="line"/>
      <point x="280" y="374" type="line"/>
      <point x="245" y="392"/>
      <point x="177" y="443"/>
      <point x="177" y="456" type="curve" smooth="yes"/>
      <point x="177" y="463"/>
      <point x="181" y="470"/>
      <point x="189" y="474" type="curve"/>
      <point x="558" y="474" type="line" smooth="yes"/>
      <point x="602" y="474"/>
      <point x="628" y="510"/>
      <point x="628" y="557" type="curve" smooth="yes"/>
      <point x="628" y="674" type="line"/>
      <point x="448" y="674" type="line"/>
      <point x="448" y="610" type="line" smooth="yes"/>
      <point x="448" y="594"/>
      <point x="442" y="586"/>
      <point x="426" y="586" type="curve" smooth="yes"/>
      <point x="136" y="586" type="line"/>
      <point x="74" y="516"/>
      <point x="50" y="498"/>
      <point x="50" y="471" type="curve" smooth="yes"/>
      <point x="50" y="452"/>
      <point x="76" y="416"/>
      <point x="99" y="384" type="curve"/>
      <point x="99" y="0" type="line"/>
      <point x="251" y="0" type="line"/>
      <point x="364" y="56" type="line"/>
      <point x="477" y="0" type="line"/>
      <point x="628" y="0" type="line"/>
    </contour>
    <contour>
      <point x="628" y="198" type="line"/>
      <point x="628" y="363" type="line" smooth="yes"/>
      <point x="628" y="404"/>
      <point x="582" y="434"/>
      <point x="511" y="434" type="curve" smooth="yes"/>
      <point x="392" y="434"/>
      <point x="334" y="383"/>
      <point x="334" y="311" type="curve" smooth="yes"/>
      <point x="334" y="253"/>
      <point x="379" y="211"/>
      <point x="447" y="211" type="curve"/>
      <point x="447" y="198" type="line"/>
    </contour>
    <contour>
      <point x="447" y="286" type="line"/>
      <point x="435" y="286"/>
      <point x="423" y="295"/>
      <point x="423" y="316" type="curve" smooth="yes"/>
      <point x="423" y="335"/>
      <point x="435" y="345"/>
      <point x="447" y="345" type="curve"/>
    </contour>
  </outline>
</glyph>
<glyph name="uni1797" format="2">
  <advance width="691"/>
  <unicode hex="1797"/>
  <note>
uni1797
</note>
  <outline>
    <contour>
      <point x="72" y="474" type="line"/>
      <point x="601" y="474" type="line"/>
      <point x="601" y="586" type="line"/>
      <point x="72" y="586" type="line"/>
    </contour>
    <contour>
      <point x="137" y="-8" type="curve" smooth="yes"/>
      <point x="239" y="-8"/>
      <point x="284" y="37"/>
      <point x="284" y="123" type="curve" smooth="yes"/>
      <point x="284" y="195"/>
      <point x="262" y="244"/>
      <point x="262" y="276" type="curve" smooth="yes"/>
      <point x="262" y="309"/>
      <point x="297" y="327"/>
      <point x="345" y="327" type="curve" smooth="yes"/>
      <point x="396" y="327"/>
      <point x="421" y="303"/>
      <point x="421" y="247" type="curve" smooth="yes"/>
      <point x="421" y="0" type="line"/>
      <point x="601" y="0" type="line"/>
      <point x="601" y="266" type="line" smooth="yes"/>
      <point x="601" y="377"/>
      <point x="516" y="439"/>
      <point x="338" y="439" type="curve" smooth="yes"/>
      <point x="169" y="439"/>
      <point x="82" y="361"/>
      <point x="82" y="282" type="curve" smooth="yes"/>
      <point x="82" y="211"/>
      <point x="112" y="135"/>
      <point x="115" y="126" type="curve" smooth="yes"/>
      <point x="118" y="116"/>
      <point x="112" y="111"/>
      <point x="107" y="111" type="curve" smooth="yes"/>
      <point x="100" y="111"/>
      <point x="92" y="123"/>
      <point x="86" y="136" type="curve"/>
      <point x="0" y="97" type="line"/>
      <point x="22" y="24"/>
      <point x="83" y="-8"/>
    </contour>
  </outline>
</glyph>
<glyph name="uni1798" format="2">
  <advance width="713"/>
  <unicode hex="1798"/>
  <note>
uni1798
</note>
  <outline>
    <contour>
      <point x="228" y="237" type="line"/>
      <point x="486" y="237" type="line"/>
      <point x="486" y="349" type="line"/>
      <point x="228" y="349" type="line"/>
    </contour>
    <contour>
      <point x="273" y="374" type="line"/>
      <point x="92" y="374" type="line"/>
      <point x="92" y="158" type="line" smooth="yes"/>
      <point x="92" y="53"/>
      <point x="180" y="0"/>
      <point x="356" y="0" type="curve" smooth="yes"/>
      <point x="533" y="0"/>
      <point x="621" y="53"/>
      <point x="621" y="158" type="curve" smooth="yes"/>
      <point x="621" y="372" type="line"/>
      <point x="440" y="372" type="line"/>
      <point x="440" y="168" type="line" smooth="yes"/>
      <point x="440" y="137"/>
      <point x="413" y="112"/>
      <point x="356" y="112" type="curve" smooth="yes"/>
      <point x="301" y="112"/>
      <point x="273" y="137"/>
      <point x="273" y="168" type="curve" smooth="yes"/>
    </contour>
    <contour>
      <point x="440" y="354" type="line"/>
      <point x="621" y="354" type="line"/>
      <point x="621" y="410" type="line"/>
      <point x="559" y="473" type="line"/>
      <point x="559" y="474" type="line"/>
      <point x="629" y="474" type="line"/>
      <point x="629" y="586" type="line"/>
      <point x="462" y="586" type="line"/>
      <point x="420" y="532"/>
      <point x="398" y="504"/>
      <point x="398" y="491" type="curve" smooth="yes"/>
      <point x="398" y="482"/>
      <point x="400" y="479"/>
      <point x="440" y="426" type="curve"/>
    </contour>
    <contour>
      <point x="92" y="354" type="line"/>
      <point x="273" y="354" type="line"/>
      <point x="273" y="410" type="line"/>
      <point x="211" y="473" type="line"/>
      <point x="211" y="474" type="line"/>
      <point x="281" y="474" type="line"/>
      <point x="281" y="586" type="line"/>
      <point x="114" y="586" type="line"/>
      <point x="72" y="532"/>
      <point x="50" y="504"/>
      <point x="50" y="491" type="curve" smooth="yes"/>
      <point x="50" y="482"/>
      <point x="52" y="479"/>
      <point x="92" y="426" type="curve"/>
    </contour>
  </outline>
</glyph>
<glyph name="uni179A" format="2">
  <advance width="409"/>
  <unicode hex="179A"/>
  <note>
uni179A
</note>
  <outline>
    <contour>
      <point x="158" y="354" type="line"/>
      <point x="339" y="354" type="line"/>
      <point x="339" y="402" type="line"/>
      <point x="272" y="473" type="line"/>
      <point x="272" y="474" type="line"/>
      <point x="349" y="474" type="line"/>
      <point x="349" y="586" type="line"/>
      <point x="157" y="586" type="line"/>
      <point x="97" y="512"/>
      <point x="73" y="482"/>
      <point x="73" y="467" type="curve" smooth="yes"/>
      <point x="73" y="453"/>
      <point x="101" y="427"/>
      <point x="158" y="373" type="curve"/>
    </contour>
    <contour>
      <point x="339" y="375" type="line"/>
      <point x="158" y="375" type="line"/>
      <point x="158" y="229" type="line"/>
      <point x="105" y="229"/>
      <point x="48" y="188"/>
      <point x="48" y="114" type="curve" smooth="yes"/>
      <point x="48" y="30"/>
      <point x="99" y="0"/>
      <point x="164" y="0" type="curve" smooth="yes"/>
      <point x="239" y="0" type="line" smooth="yes"/>
      <point x="319" y="0"/>
      <point x="339" y="42"/>
      <point x="339" y="109" type="curve" smooth="yes"/>
    </contour>
    <contour>
      <point x="158" y="77" type="line"/>
      <point x="149" y="77"/>
      <point x="130" y="85"/>
      <point x="130" y="115" type="curve" smooth="yes"/>
      <point x="130" y="141"/>
      <point x="150" y="150"/>
      <point x="158" y="151" type="curve"/>
    </contour>
  </outline>
</glyph>
<glyph name="uni179B" format="2">
  <advance width="996"/>
  <unicode hex="179B"/>
  <note>
uni179B
</note>
  <outline>
    <contour>
      <point x="904" y="374" type="line"/>
      <point x="723" y="374" type="line"/>
      <point x="723" y="178" type="line" smooth="yes"/>
      <point x="723" y="147"/>
      <point x="702" y="112"/>
      <point x="656" y="112" type="curve" smooth="yes"/>
      <point x="610" y="112"/>
      <point x="587" y="147"/>
      <point x="587" y="178" type="curve" smooth="yes"/>
      <point x="587" y="428" type="line" smooth="yes"/>
      <point x="587" y="533"/>
      <point x="503" y="586"/>
      <point x="336" y="586" type="curve" smooth="yes"/>
      <point x="168" y="586"/>
      <point x="84" y="533"/>
      <point x="84" y="428" type="curve" smooth="yes"/>
      <point x="84" y="251" type="line"/>
      <point x="265" y="251" type="line"/>
      <point x="265" y="418" type="line" smooth="yes"/>
      <point x="265" y="449"/>
      <point x="289" y="474"/>
      <point x="336" y="474" type="curve" smooth="yes"/>
      <point x="383" y="474"/>
      <point x="407" y="449"/>
      <point x="407" y="418" type="curve" smooth="yes"/>
      <point x="407" y="158" type="line" smooth="yes"/>
      <point x="407" y="53"/>
      <point x="490" y="0"/>
      <point x="656" y="0" type="curve" smooth="yes"/>
      <point x="821" y="0"/>
      <point x="904" y="53"/>
      <point x="904" y="158" type="curve" smooth="yes"/>
    </contour>
    <contour>
      <point x="84" y="262" type="line"/>
      <point x="84" y="70" type="line" smooth="yes"/>
      <point x="84" y="19"/>
      <point x="106" y="0"/>
      <point x="180" y="0" type="curve" smooth="yes"/>
      <point x="241" y="0" type="line" smooth="yes"/>
      <point x="334" y="0"/>
      <point x="389" y="49"/>
      <point x="389" y="122" type="curve" smooth="yes"/>
      <point x="389" y="207"/>
      <point x="344" y="240"/>
      <point x="265" y="241" type="curve"/>
      <point x="265" y="262" type="line" smooth="yes"/>
    </contour>
    <contour>
      <point x="265" y="80" type="curve"/>
      <point x="265" y="164" type="line"/>
      <point x="280" y="164"/>
      <point x="293" y="150"/>
      <point x="293" y="123" type="curve" smooth="yes"/>
      <point x="293" y="98"/>
      <point x="278" y="80"/>
    </contour>
    <contour>
      <point x="723" y="354" type="line"/>
      <point x="904" y="354" type="line"/>
      <point x="904" y="410" type="line"/>
      <point x="842" y="473" type="line"/>
      <point x="842" y="474" type="line"/>
      <point x="912" y="474" type="line"/>
      <point x="912" y="586" type="line"/>
      <point x="745" y="586" type="line"/>
      <point x="703" y="532"/>
      <point x="681" y="504"/>
      <point x="681" y="491" type="curve" smooth="yes"/>
      <point x="681" y="482"/>
      <point x="683" y="479"/>
      <point x="723" y="426" type="curve"/>
    </contour>
  </outline>
</glyph>
<glyph name="uni179C" format="2">
  <advance width="438"/>
  <unicode hex="179C"/>
  <note>
uni179C
</note>
  <outline>
    <contour>
      <point x="158" y="354" type="line"/>
      <point x="339" y="354" type="line"/>
      <point x="339" y="410" type="line"/>
      <point x="272" y="473" type="line"/>
      <point x="272" y="474" type="line"/>
      <point x="310" y="474" type="line" smooth="yes"/>
      <point x="364" y="474"/>
      <point x="378" y="506"/>
      <point x="378" y="562" type="curve" smooth="yes"/>
      <point x="378" y="674" type="line"/>
      <point x="198" y="674" type="line"/>
      <point x="198" y="619" type="line" smooth="yes"/>
      <point x="198" y="594"/>
      <point x="177" y="586"/>
      <point x="162" y="586" type="curve" smooth="yes"/>
      <point x="139" y="586" type="line"/>
      <point x="105" y="544"/>
      <point x="75" y="507"/>
      <point x="75" y="489" type="curve" smooth="yes"/>
      <point x="75" y="465"/>
      <point x="111" y="434"/>
      <point x="158" y="394" type="curve"/>
    </contour>
    <contour>
      <point x="339" y="375" type="line"/>
      <point x="158" y="375" type="line"/>
      <point x="158" y="229" type="line"/>
      <point x="105" y="229"/>
      <point x="48" y="188"/>
      <point x="48" y="114" type="curve" smooth="yes"/>
      <point x="48" y="30"/>
      <point x="99" y="0"/>
      <point x="164" y="0" type="curve" smooth="yes"/>
      <point x="239" y="0" type="line" smooth="yes"/>
      <point x="319" y="0"/>
      <point x="339" y="42"/>
      <point x="339" y="109" type="curve" smooth="yes"/>
    </contour>
    <contour>
      <point x="158" y="77" type="line"/>
      <point x="149" y="77"/>
      <point x="130" y="85"/>
      <point x="130" y="115" type="curve" smooth="yes"/>
      <point x="130" y="141"/>
      <point x="150" y="150"/>
      <point x="158" y="151" type="curve"/>
    </contour>
  </outline>
</glyph>
<glyph name="uni179D" format="2">
  <advance width="712"/>
  <unicode hex="179D"/>
  <note>
uni179D
</note>
  <outline>
    <contour>
      <point x="402" y="128" type="line"/>
      <point x="652" y="128" type="line"/>
      <point x="652" y="240" type="line"/>
      <point x="402" y="240" type="line"/>
    </contour>
    <contour>
      <point x="90" y="474" type="line"/>
      <point x="619" y="474" type="line"/>
      <point x="619" y="586" type="line"/>
      <point x="90" y="586" type="line"/>
    </contour>
    <contour>
      <point x="90" y="0" type="line"/>
      <point x="271" y="0" type="line"/>
      <point x="271" y="97" type="line"/>
      <point x="278" y="108"/>
      <point x="296" y="128"/>
      <point x="329" y="128" type="curve" smooth="yes"/>
      <point x="379" y="128" type="line"/>
      <point x="379" y="240" type="line"/>
      <point x="347" y="240" type="line" smooth="yes"/>
      <point x="310" y="240"/>
      <point x="288" y="232"/>
      <point x="271" y="211" type="curve"/>
      <point x="271" y="266" type="line" smooth="yes"/>
      <point x="271" y="301"/>
      <point x="302" y="330"/>
      <point x="354" y="330" type="curve" smooth="yes"/>
      <point x="406" y="330"/>
      <point x="438" y="299"/>
      <point x="438" y="266" type="curve" smooth="yes"/>
      <point x="438" y="0" type="line"/>
      <point x="619" y="0" type="line"/>
      <point x="619" y="266" type="line" smooth="yes"/>
      <point x="619" y="374"/>
      <point x="526" y="442"/>
      <point x="354" y="442" type="curve" smooth="yes"/>
      <point x="183" y="442"/>
      <point x="90" y="374"/>
      <point x="90" y="266" type="curve" smooth="yes"/>
    </contour>
  </outline>
</glyph>
<glyph name="uni179F" format="2">
  <advance width="1002"/>
  <unicode hex="179F"/>
  <note>
uni179F
</note>
  <outline>
    <contour>
      <point x="172" y="406" type="curve"/>
      <point x="325" y="434" type="line"/>
      <point x="291" y="473" type="line"/>
      <point x="291" y="474" type="line"/>
      <point x="456" y="474" type="line"/>
      <point x="456" y="586" type="line"/>
      <point x="178" y="586" type="line"/>
      <point x="136" y="532"/>
      <point x="114" y="511"/>
      <point x="114" y="494" type="curve" smooth="yes"/>
      <point x="114" y="482"/>
      <point x="119" y="472"/>
    </contour>
    <contour>
      <point x="910" y="371" type="line"/>
      <point x="729" y="371" type="line"/>
      <point x="729" y="158" type="line" smooth="yes"/>
      <point x="729" y="127"/>
      <point x="709" y="112"/>
      <point x="662" y="112" type="curve" smooth="yes"/>
      <point x="616" y="112"/>
      <point x="593" y="127"/>
      <point x="593" y="158" type="curve" smooth="yes"/>
      <point x="593" y="282" type="line" smooth="yes"/>
      <point x="593" y="387"/>
      <point x="529" y="438"/>
      <point x="342" y="438" type="curve" smooth="yes"/>
      <point x="204" y="438"/>
      <point x="90" y="414"/>
      <point x="90" y="282" type="curve" smooth="yes"/>
      <point x="90" y="256" type="line"/>
      <point x="271" y="256" type="line"/>
      <point x="271" y="282" type="line" smooth="yes"/>
      <point x="271" y="313"/>
      <point x="295" y="329"/>
      <point x="342" y="329" type="curve" smooth="yes"/>
      <point x="389" y="329"/>
      <point x="413" y="313"/>
      <point x="413" y="282" type="curve" smooth="yes"/>
      <point x="413" y="158" type="line" smooth="yes"/>
      <point x="413" y="53"/>
      <point x="496" y="0"/>
      <point x="662" y="0" type="curve" smooth="yes"/>
      <point x="827" y="0"/>
      <point x="910" y="53"/>
      <point x="910" y="158" type="curve" smooth="yes"/>
    </contour>
    <contour>
      <point x="90" y="262" type="line"/>
      <point x="90" y="70" type="line" smooth="yes"/>
      <point x="90" y="19"/>
      <point x="112" y="0"/>
      <point x="186" y="0" type="curve" smooth="yes"/>
      <point x="247" y="0" type="line" smooth="yes"/>
      <point x="340" y="0"/>
      <point x="395" y="49"/>
      <point x="395" y="122" type="curve" smooth="yes"/>
      <point x="395" y="207"/>
      <point x="350" y="240"/>
      <point x="271" y="241" type="curve"/>
      <point x="271" y="262" type="line" smooth="yes"/>
    </contour>
    <contour>
      <point x="271" y="80" type="curve"/>
      <point x="271" y="164" type="line"/>
      <point x="286" y="164"/>
      <point x="299" y="150"/>
      <point x="299" y="123" type="curve" smooth="yes"/>
      <point x="299" y="98"/>
      <point x="284" y="80"/>
    </contour>
    <contour>
      <point x="729" y="354" type="line"/>
      <point x="910" y="354" type="line"/>
      <point x="910" y="410" type="line"/>
      <point x="848" y="473" type="line"/>
      <point x="848" y="474" type="line"/>
      <point x="918" y="474" type="line"/>
      <point x="918" y="586" type="line"/>
      <point x="751" y="586" type="line"/>
      <point x="709" y="532"/>
      <point x="687" y="504"/>
      <point x="687" y="491" type="curve" smooth="yes"/>
      <point x="687" y="482"/>
      <point x="689" y="479"/>
      <point x="729" y="426" type="curve"/>
    </contour>
  </outline>
</glyph>
<glyph name="uni17A0" format="2">
  <advance width="1002"/>
  <unicode hex="17A0"/>
  <note>
uni17A0
</note>
  <outline>
    <contour>
      <point x="273" y="382" type="line"/>
      <point x="92" y="382" type="line"/>
      <point x="92" y="158" type="line" smooth="yes"/>
      <point x="92" y="45"/>
      <point x="176" y="0"/>
      <point x="344" y="0" type="curve" smooth="yes"/>
      <point x="512" y="0"/>
      <point x="595" y="45"/>
      <point x="595" y="158" type="curve" smooth="yes"/>
      <point x="595" y="428" type="line" smooth="yes"/>
      <point x="595" y="459"/>
      <point x="618" y="474"/>
      <point x="664" y="474" type="curve" smooth="yes"/>
      <point x="712" y="474"/>
      <point x="734" y="459"/>
      <point x="734" y="428" type="curve" smooth="yes"/>
      <point x="734" y="0" type="line"/>
      <point x="912" y="0" type="line"/>
      <point x="912" y="428" type="line" smooth="yes"/>
      <point x="912" y="533"/>
      <point x="830" y="586"/>
      <point x="666" y="586" type="curve" smooth="yes"/>
      <point x="497" y="586"/>
      <point x="415" y="541"/>
      <point x="415" y="428" type="curve" smooth="yes"/>
      <point x="415" y="158" type="line" smooth="yes"/>
      <point x="415" y="127"/>
      <point x="391" y="112"/>
      <point x="344" y="112" type="curve" smooth="yes"/>
      <point x="297" y="112"/>
      <point x="273" y="127"/>
      <point x="273" y="158" type="curve" smooth="yes"/>
    </contour>
    <contour>
      <point x="92" y="354" type="line"/>
      <point x="273" y="354" type="line"/>
      <point x="273" y="410" type="line"/>
      <point x="211" y="473" type="line"/>
      <point x="211" y="474" type="line"/>
      <point x="281" y="474" type="line"/>
      <point x="281" y="586" type="line"/>
      <point x="114" y="586" type="line"/>
      <point x="72" y="532"/>
      <point x="50" y="504"/>
      <point x="50" y="491" type="curve" smooth="yes"/>
      <point x="50" y="482"/>
      <point x="52" y="479"/>
      <point x="92" y="426" type="curve"/>
    </contour>
  </outline>
</glyph>
<glyph name="uni17A1" format="2">
  <advance width="969"/>
  <unicode hex="17A1"/>
  <note>
uni17A1
</note>
  <outline>
    <contour>
      <point x="321" y="0" type="curve" smooth="yes"/>
      <point x="478" y="0"/>
      <point x="557" y="53"/>
      <point x="557" y="158" type="curve" smooth="yes"/>
      <point x="557" y="210" type="line"/>
      <point x="579" y="226"/>
      <point x="593" y="245"/>
      <point x="593" y="289" type="curve" smooth="yes"/>
      <point x="593" y="344"/>
      <point x="541" y="387"/>
      <point x="484" y="387" type="curve" smooth="yes"/>
      <point x="433" y="387"/>
      <point x="401" y="360"/>
      <point x="383" y="328" type="curve"/>
      <point x="303" y="355"/>
      <point x="241" y="379"/>
      <point x="241" y="428" type="curve" smooth="yes"/>
      <point x="241" y="457"/>
      <point x="275" y="474"/>
      <point x="324" y="474" type="curve" smooth="yes"/>
      <point x="371" y="474"/>
      <point x="409" y="466"/>
      <point x="409" y="425" type="curve" smooth="yes"/>
      <point x="409" y="414" type="line"/>
      <point x="589" y="414" type="line"/>
      <point x="589" y="438" type="line" smooth="yes"/>
      <point x="589" y="549"/>
      <point x="500" y="586"/>
      <point x="324" y="586" type="curve" smooth="yes"/>
      <point x="153" y="586"/>
      <point x="60" y="536"/>
      <point x="60" y="424" type="curve" smooth="yes"/>
      <point x="60" y="321"/>
      <point x="176" y="253"/>
      <point x="376" y="217" type="curve"/>
      <point x="376" y="158" type="line" smooth="yes"/>
      <point x="376" y="127"/>
      <point x="360" y="112"/>
      <point x="321" y="112" type="curve" smooth="yes"/>
      <point x="283" y="112"/>
      <point x="267" y="127"/>
      <point x="267" y="158" type="curve" smooth="yes"/>
      <point x="267" y="218" type="line"/>
      <point x="86" y="218" type="line"/>
      <point x="86" y="158" type="line" smooth="yes"/>
      <point x="86" y="53"/>
      <point x="164" y="0"/>
    </contour>
    <contour>
      <point x="877" y="365" type="line"/>
      <point x="696" y="365" type="line"/>
      <point x="696" y="-113" type="line"/>
      <point x="620" y="-71" type="line"/>
      <point x="544" y="-113" type="line"/>
      <point x="544" y="-104" type="line" smooth="yes"/>
      <point x="544" y="-66"/>
      <point x="517" y="-39"/>
      <point x="443" y="-39" type="curve" smooth="yes"/>
      <point x="327" y="-39" type="line"/>
      <point x="327" y="-133" type="line"/>
      <point x="360" y="-133"/>
      <point x="376" y="-141"/>
      <point x="376" y="-162" type="curve" smooth="yes"/>
      <point x="376" y="-239" type="line"/>
      <point x="525" y="-239" type="line"/>
      <point x="620" y="-187" type="line"/>
      <point x="715" y="-239" type="line"/>
      <point x="877" y="-239" type="line"/>
    </contour>
    <contour>
      <point x="696" y="354" type="line"/>
      <point x="877" y="354" type="line"/>
      <point x="877" y="410" type="line"/>
      <point x="815" y="473" type="line"/>
      <point x="815" y="474" type="line"/>
      <point x="885" y="474" type="line"/>
      <point x="885" y="586" type="line"/>
      <point x="718" y="586" type="line"/>
      <point x="676" y="532"/>
      <point x="654" y="504"/>
      <point x="654" y="491" type="curve" smooth="yes"/>
      <point x="654" y="482"/>
      <point x="656" y="479"/>
      <point x="696" y="426" type="curve"/>
    </contour>
  </outline>
</glyph>
<glyph name="uni17A3" format="2">
  <advance width="723"/>
  <unicode hex="17A3"/>
  <note>
uni17A3
</note>
  <outline>
    <contour>
      <point x="631" y="376" type="line"/>
      <point x="450" y="376" type="line"/>
      <point x="450" y="349" type="line"/>
      <point x="286" y="349" type="line"/>
      <point x="286" y="376" type="line"/>
      <point x="105" y="376" type="line"/>
      <point x="105" y="140" type="line" smooth="yes"/>
      <point x="105" y="120"/>
      <point x="88" y="112"/>
      <point x="60" y="112" type="curve"/>
      <point x="60" y="0" type="line"/>
      <point x="165" y="0" type="line" smooth="yes"/>
      <point x="244" y="0"/>
      <point x="286" y="17"/>
      <point x="286" y="50" type="curve" smooth="yes"/>
      <point x="286" y="237" type="line"/>
      <point x="450" y="237" type="line"/>
      <point x="450" y="140" type="line" smooth="yes"/>
      <point x="450" y="120"/>
      <point x="437" y="112"/>
      <point x="409" y="112" type="curve"/>
      <point x="409" y="0" type="line"/>
      <point x="513" y="0" type="line" smooth="yes"/>
      <point x="592" y="0"/>
      <point x="631" y="17"/>
      <point x="631" y="50" type="curve" smooth="yes"/>
    </contour>
    <contour>
      <point x="450" y="354" type="line"/>
      <point x="631" y="354" type="line"/>
      <point x="631" y="410" type="line"/>
      <point x="569" y="473" type="line"/>
      <point x="569" y="474" type="line"/>
      <point x="639" y="474" type="line"/>
      <point x="639" y="586" type="line"/>
      <point x="472" y="586" type="line"/>
      <point x="430" y="532"/>
      <point x="408" y="504"/>
      <point x="408" y="491" type="curve" smooth="yes"/>
      <point x="408" y="482"/>
      <point x="410" y="479"/>
      <point x="450" y="426" type="curve"/>
    </contour>
    <contour>
      <point x="105" y="354" type="line"/>
      <point x="286" y="354" type="line"/>
      <point x="286" y="410" type="line"/>
      <point x="224" y="473" type="line"/>
      <point x="224" y="474" type="line"/>
      <point x="294" y="474" type="line"/>
      <point x="294" y="586" type="line"/>
      <point x="127" y="586" type="line"/>
      <point x="85" y="532"/>
      <point x="63" y="504"/>
      <point x="63" y="491" type="curve" smooth="yes"/>
      <point x="63" y="482"/>
      <point x="65" y="479"/>
      <point x="105" y="426" type="curve"/>
    </contour>
  </outline>
</glyph>
<glyph name="uni17A5" format="2">
  <advance width="712"/>
  <unicode hex="17A5"/>
  <note>
uni17A5
</note>
  <outline>
    <contour>
      <point x="119" y="392" type="curve"/>
      <point x="216" y="446" type="line"/>
      <point x="197" y="462"/>
      <point x="187" y="472"/>
      <point x="187" y="479" type="curve" smooth="yes"/>
      <point x="187" y="484"/>
      <point x="190" y="491"/>
      <point x="199" y="496" type="curve"/>
      <point x="502" y="496" type="line" smooth="yes"/>
      <point x="614" y="496"/>
      <point x="621" y="541"/>
      <point x="621" y="632" type="curve" smooth="yes"/>
      <point x="621" y="706" type="line"/>
      <point x="440" y="706" type="line"/>
      <point x="440" y="632" type="line" smooth="yes"/>
      <point x="440" y="616"/>
      <point x="436" y="608"/>
      <point x="420" y="608" type="curve" smooth="yes"/>
      <point x="146" y="608" type="line"/>
      <point x="82" y="539"/>
      <point x="60" y="515"/>
      <point x="60" y="490" type="curve" smooth="yes"/>
      <point x="60" y="472"/>
      <point x="71" y="455"/>
    </contour>
    <contour>
      <point x="92" y="253" type="line"/>
      <point x="273" y="253" type="line"/>
      <point x="273" y="266" type="line" smooth="yes"/>
      <point x="273" y="297"/>
      <point x="301" y="313"/>
      <point x="356" y="313" type="curve" smooth="yes"/>
      <point x="411" y="313"/>
      <point x="441" y="297"/>
      <point x="441" y="266" type="curve" smooth="yes"/>
      <point x="441" y="0" type="line"/>
      <point x="622" y="0" type="line"/>
      <point x="622" y="266" type="line" smooth="yes"/>
      <point x="622" y="371"/>
      <point x="533" y="424"/>
      <point x="356" y="424" type="curve" smooth="yes"/>
      <point x="180" y="424"/>
      <point x="92" y="371"/>
      <point x="92" y="266" type="curve" smooth="yes"/>
    </contour>
    <contour>
      <point x="92" y="262" type="line"/>
      <point x="92" y="70" type="line" smooth="yes"/>
      <point x="92" y="19"/>
      <point x="114" y="0"/>
      <point x="188" y="0" type="curve" smooth="yes"/>
      <point x="249" y="0" type="line" smooth="yes"/>
      <point x="342" y="0"/>
      <point x="397" y="49"/>
      <point x="397" y="122" type="curve" smooth="yes"/>
      <point x="397" y="207"/>
      <point x="352" y="240"/>
      <point x="273" y="241" type="curve"/>
      <point x="273" y="262" type="line" smooth="yes"/>
    </contour>
    <contour>
      <point x="273" y="80" type="curve"/>
      <point x="273" y="164" type="line"/>
      <point x="288" y="164"/>
      <point x="301" y="150"/>
      <point x="301" y="123" type="curve" smooth="yes"/>
      <point x="301" y="98"/>
      <point x="286" y="80"/>
    </contour>
  </outline>
</glyph>
<glyph name="uni17A6" format="2">
  <advance width="977"/>
  <unicode hex="17A6"/>
  <note>
uni17A6
</note>
  <outline>
    <contour>
      <point x="887" y="543" type="line"/>
      <point x="706" y="543" type="line"/>
      <point x="706" y="-117" type="line" smooth="yes"/>
      <point x="706" y="-142"/>
      <point x="684" y="-155"/>
      <point x="642" y="-155" type="curve" smooth="yes"/>
      <point x="600" y="-155"/>
      <point x="570" y="-146"/>
      <point x="570" y="-117" type="curve" smooth="yes"/>
      <point x="570" y="-59"/>
      <point x="443" y="-24"/>
      <point x="331" y="-24" type="curve" smooth="yes"/>
      <point x="224" y="-24"/>
      <point x="93" y="-58"/>
      <point x="93" y="-138" type="curve" smooth="yes"/>
      <point x="93" y="-173" type="line" smooth="yes"/>
      <point x="93" y="-232"/>
      <point x="129" y="-244"/>
      <point x="201" y="-244" type="curve" smooth="yes"/>
      <point x="313" y="-244" type="line"/>
      <point x="313" y="-160" type="line"/>
      <point x="293" y="-160"/>
      <point x="261" y="-156"/>
      <point x="261" y="-142" type="curve" smooth="yes"/>
      <point x="261" y="-128" type="line" smooth="yes"/>
      <point x="261" y="-110"/>
      <point x="278" y="-95"/>
      <point x="331" y="-95" type="curve" smooth="yes"/>
      <point x="388" y="-95"/>
      <point x="402" y="-112"/>
      <point x="402" y="-138" type="curve" smooth="yes"/>
      <point x="402" y="-209"/>
      <point x="486" y="-244"/>
      <point x="655" y="-244" type="curve" smooth="yes"/>
      <point x="810" y="-244"/>
      <point x="887" y="-205"/>
      <point x="887" y="-127" type="curve" smooth="yes"/>
    </contour>
    <contour>
      <point x="80" y="253" type="line"/>
      <point x="261" y="253" type="line"/>
      <point x="261" y="426" type="line" smooth="yes"/>
      <point x="261" y="457"/>
      <point x="289" y="473"/>
      <point x="344" y="473" type="curve" smooth="yes"/>
      <point x="399" y="473"/>
      <point x="429" y="457"/>
      <point x="429" y="426" type="curve" smooth="yes"/>
      <point x="429" y="0" type="line"/>
      <point x="609" y="0" type="line"/>
      <point x="609" y="426" type="line" smooth="yes"/>
      <point x="609" y="531"/>
      <point x="521" y="584"/>
      <point x="344" y="584" type="curve" smooth="yes"/>
      <point x="168" y="584"/>
      <point x="80" y="531"/>
      <point x="80" y="426" type="curve" smooth="yes"/>
    </contour>
    <contour>
      <point x="80" y="262" type="line"/>
      <point x="80" y="70" type="line" smooth="yes"/>
      <point x="80" y="19"/>
      <point x="102" y="0"/>
      <point x="176" y="0" type="curve" smooth="yes"/>
      <point x="237" y="0" type="line" smooth="yes"/>
      <point x="330" y="0"/>
      <point x="385" y="49"/>
      <point x="385" y="122" type="curve" smooth="yes"/>
      <point x="385" y="207"/>
      <point x="340" y="240"/>
      <point x="261" y="241" type="curve"/>
      <point x="261" y="262" type="line" smooth="yes"/>
    </contour>
    <contour>
      <point x="261" y="80" type="curve"/>
      <point x="261" y="164" type="line"/>
      <point x="276" y="164"/>
      <point x="289" y="150"/>
      <point x="289" y="123" type="curve" smooth="yes"/>
      <point x="289" y="98"/>
      <point x="274" y="80"/>
    </contour>
    <contour>
      <point x="706" y="523" type="line"/>
      <point x="887" y="523" type="line"/>
      <point x="887" y="632" type="line" smooth="yes"/>
      <point x="887" y="749"/>
      <point x="811" y="838"/>
      <point x="690" y="838" type="curve" smooth="yes"/>
      <point x="644" y="838"/>
      <point x="619" y="823"/>
      <point x="600" y="811" type="curve"/>
      <point x="600" y="929" type="line"/>
      <point x="419" y="929" type="line"/>
      <point x="419" y="685" type="line"/>
      <point x="600" y="685" type="line"/>
      <point x="609" y="696"/>
      <point x="621" y="705"/>
      <point x="644" y="705" type="curve" smooth="yes"/>
      <point x="681" y="705"/>
      <point x="706" y="678"/>
      <point x="706" y="615" type="curve" smooth="yes"/>
    </contour>
  </outline>
</glyph>
<glyph name="uni17A9" format="2">
  <advance width="858"/>
  <unicode hex="17A9"/>
  <note>
uni17A9
</note>
  <outline>
    <contour>
      <point x="646" y="-4" type="line"/>
      <point x="774" y="-4" type="line"/>
      <point x="774" y="234" type="line"/>
      <point x="646" y="234" type="line"/>
    </contour>
    <contour>
      <point x="439" y="-4" type="line"/>
      <point x="619" y="-4" type="line"/>
      <point x="619" y="234" type="line"/>
      <point x="439" y="234" type="line"/>
      <point x="439" y="189" type="line" smooth="yes"/>
      <point x="439" y="150"/>
      <point x="362" y="112"/>
      <point x="324" y="112" type="curve" smooth="yes"/>
      <point x="289" y="112"/>
      <point x="271" y="136"/>
      <point x="271" y="170" type="curve" smooth="yes"/>
      <point x="271" y="215" type="line"/>
      <point x="313" y="224" type="line" smooth="yes"/>
      <point x="502" y="265"/>
      <point x="619" y="329"/>
      <point x="619" y="431" type="curve" smooth="yes"/>
      <point x="619" y="540"/>
      <point x="526" y="586"/>
      <point x="354" y="586" type="curve" smooth="yes"/>
      <point x="181" y="586"/>
      <point x="90" y="540"/>
      <point x="90" y="452" type="curve" smooth="yes"/>
      <point x="90" y="385"/>
      <point x="140" y="349"/>
      <point x="231" y="349" type="curve" smooth="yes"/>
      <point x="303" y="349" type="line"/>
      <point x="303" y="424" type="line"/>
      <point x="280" y="424"/>
      <point x="273" y="433"/>
      <point x="273" y="445" type="curve" smooth="yes"/>
      <point x="273" y="468"/>
      <point x="312" y="475"/>
      <point x="358" y="475" type="curve" smooth="yes"/>
      <point x="409" y="475"/>
      <point x="439" y="457"/>
      <point x="439" y="428" type="curve" smooth="yes"/>
      <point x="439" y="384"/>
      <point x="396" y="348"/>
      <point x="308" y="330" type="curve" smooth="yes"/>
      <point x="90" y="286" type="line"/>
      <point x="90" y="158" type="line" smooth="yes"/>
      <point x="90" y="46"/>
      <point x="164" y="0"/>
      <point x="264" y="0" type="curve" smooth="yes"/>
      <point x="339" y="0"/>
      <point x="404" y="30"/>
      <point x="438" y="55" type="curve"/>
      <point x="439" y="55" type="line"/>
    </contour>
  </outline>
</glyph>
<glyph name="uni17AA" format="2">
  <advance width="712"/>
  <unicode hex="17AA"/>
  <note>
uni17AA
</note>
  <outline>
    <contour>
      <point x="107" y="561" type="curve"/>
      <point x="204" y="615" type="line"/>
      <point x="185" y="631"/>
      <point x="175" y="641"/>
      <point x="175" y="648" type="curve" smooth="yes"/>
      <point x="175" y="653"/>
      <point x="178" y="660"/>
      <point x="187" y="665" type="curve"/>
      <point x="490" y="665" type="line" smooth="yes"/>
      <point x="602" y="665"/>
      <point x="609" y="710"/>
      <point x="609" y="801" type="curve" smooth="yes"/>
      <point x="609" y="875" type="line"/>
      <point x="428" y="875" type="line"/>
      <point x="428" y="801" type="line" smooth="yes"/>
      <point x="428" y="785"/>
      <point x="424" y="777"/>
      <point x="408" y="777" type="curve" smooth="yes"/>
      <point x="134" y="777" type="line"/>
      <point x="70" y="708"/>
      <point x="48" y="684"/>
      <point x="48" y="659" type="curve" smooth="yes"/>
      <point x="48" y="641"/>
      <point x="59" y="624"/>
    </contour>
    <contour>
      <point x="454" y="-4" type="line"/>
      <point x="634" y="-4" type="line"/>
      <point x="634" y="234" type="line"/>
      <point x="454" y="234" type="line"/>
      <point x="454" y="189" type="line" smooth="yes"/>
      <point x="454" y="150"/>
      <point x="377" y="112"/>
      <point x="339" y="112" type="curve" smooth="yes"/>
      <point x="304" y="112"/>
      <point x="286" y="136"/>
      <point x="286" y="170" type="curve" smooth="yes"/>
      <point x="286" y="215" type="line"/>
      <point x="328" y="224" type="line" smooth="yes"/>
      <point x="517" y="265"/>
      <point x="634" y="329"/>
      <point x="634" y="431" type="curve" smooth="yes"/>
      <point x="634" y="540"/>
      <point x="541" y="586"/>
      <point x="369" y="586" type="curve" smooth="yes"/>
      <point x="196" y="586"/>
      <point x="105" y="540"/>
      <point x="105" y="452" type="curve" smooth="yes"/>
      <point x="105" y="385"/>
      <point x="155" y="349"/>
      <point x="246" y="349" type="curve" smooth="yes"/>
      <point x="318" y="349" type="line"/>
      <point x="318" y="424" type="line"/>
      <point x="295" y="424"/>
      <point x="288" y="433"/>
      <point x="288" y="445" type="curve" smooth="yes"/>
      <point x="288" y="468"/>
      <point x="327" y="475"/>
      <point x="373" y="475" type="curve" smooth="yes"/>
      <point x="424" y="475"/>
      <point x="454" y="457"/>
      <point x="454" y="428" type="curve" smooth="yes"/>
      <point x="454" y="384"/>
      <point x="411" y="348"/>
      <point x="323" y="330" type="curve" smooth="yes"/>
      <point x="105" y="286" type="line"/>
      <point x="105" y="158" type="line" smooth="yes"/>
      <point x="105" y="46"/>
      <point x="179" y="0"/>
      <point x="279" y="0" type="curve" smooth="yes"/>
      <point x="354" y="0"/>
      <point x="419" y="30"/>
      <point x="453" y="55" type="curve"/>
      <point x="454" y="55" type="line"/>
    </contour>
  </outline>
</glyph>
<glyph name="uni17AC" format="2">
  <advance width="746"/>
  <unicode hex="17AC"/>
  <note>
uni17AC
</note>
  <outline>
    <contour>
      <point x="273" y="374" type="line"/>
      <point x="92" y="374" type="line"/>
      <point x="92" y="158" type="line" smooth="yes"/>
      <point x="92" y="53"/>
      <point x="180" y="0"/>
      <point x="356" y="0" type="curve" smooth="yes"/>
      <point x="533" y="0"/>
      <point x="621" y="53"/>
      <point x="621" y="158" type="curve" smooth="yes"/>
      <point x="621" y="372" type="line"/>
      <point x="440" y="372" type="line"/>
      <point x="440" y="168" type="line" smooth="yes"/>
      <point x="440" y="137"/>
      <point x="413" y="112"/>
      <point x="356" y="112" type="curve" smooth="yes"/>
      <point x="301" y="112"/>
      <point x="273" y="137"/>
      <point x="273" y="168" type="curve" smooth="yes"/>
    </contour>
    <contour>
      <point x="440" y="354" type="line"/>
      <point x="621" y="354" type="line"/>
      <point x="621" y="410" type="line"/>
      <point x="559" y="473" type="line"/>
      <point x="559" y="474" type="line"/>
      <point x="629" y="474" type="line"/>
      <point x="629" y="586" type="line"/>
      <point x="462" y="586" type="line"/>
      <point x="420" y="532"/>
      <point x="398" y="504"/>
      <point x="398" y="491" type="curve" smooth="yes"/>
      <point x="398" y="482"/>
      <point x="400" y="479"/>
      <point x="440" y="426" type="curve"/>
    </contour>
    <contour>
      <point x="92" y="354" type="line"/>
      <point x="273" y="354" type="line"/>
      <point x="273" y="410" type="line"/>
      <point x="211" y="473" type="line"/>
      <point x="211" y="474" type="line"/>
      <point x="281" y="474" type="line"/>
      <point x="281" y="586" type="line"/>
      <point x="114" y="586" type="line"/>
      <point x="72" y="532"/>
      <point x="50" y="504"/>
      <point x="50" y="491" type="curve" smooth="yes"/>
      <point x="50" y="482"/>
      <point x="52" y="479"/>
      <point x="92" y="426" type="curve"/>
    </contour>
    <contour>
      <point x="567" y="-187" type="line"/>
      <point x="593" y="-217"/>
      <point x="627" y="-244"/>
      <point x="689" y="-244" type="curve" smooth="yes"/>
      <point x="714" y="-244" type="line"/>
      <point x="714" y="-144" type="line"/>
      <point x="696" y="-144" type="line" smooth="yes"/>
      <point x="649" y="-144"/>
      <point x="631" y="-132"/>
      <point x="620" y="-118" type="curve"/>
    </contour>
    <contour>
      <point x="104" y="-254" type="line"/>
      <point x="295" y="-254" type="line" smooth="yes"/>
      <point x="520" y="-254"/>
      <point x="633" y="-192"/>
      <point x="633" y="-52" type="curve" smooth="yes"/>
      <point x="633" y="-24" type="line"/>
      <point x="397" y="-24" type="line"/>
      <point x="397" y="-116" type="line"/>
      <point x="453" y="-116" type="line"/>
      <point x="449" y="-133"/>
      <point x="400" y="-153"/>
      <point x="295" y="-153" type="curve" smooth="yes"/>
      <point x="104" y="-153" type="line"/>
    </contour>
  </outline>
</glyph>
<glyph name="uni17AD" format="2">
  <advance width="698"/>
  <unicode hex="17AD"/>
  <note>
uni17AD
</note>
  <outline>
    <contour>
      <point x="84" y="251" type="line"/>
      <point x="265" y="251" type="line"/>
      <point x="265" y="451" type="line" smooth="yes"/>
      <point x="265" y="462"/>
      <point x="271" y="468"/>
      <point x="278" y="468" type="curve" smooth="yes"/>
      <point x="296" y="468"/>
      <point x="319" y="407"/>
      <point x="348" y="407" type="curve" smooth="yes"/>
      <point x="379" y="407"/>
      <point x="398" y="468"/>
      <point x="419" y="468" type="curve" smooth="yes"/>
      <point x="426" y="468"/>
      <point x="433" y="462"/>
      <point x="433" y="451" type="curve" smooth="yes"/>
      <point x="433" y="0" type="line"/>
      <point x="614" y="0" type="line"/>
      <point x="614" y="451" type="line" smooth="yes"/>
      <point x="614" y="520"/>
      <point x="579" y="586"/>
      <point x="476" y="586" type="curve" smooth="yes"/>
      <point x="428" y="586"/>
      <point x="388" y="565"/>
      <point x="351" y="525" type="curve"/>
      <point x="348" y="525" type="line"/>
      <point x="312" y="566"/>
      <point x="270" y="586"/>
      <point x="223" y="586" type="curve" smooth="yes"/>
      <point x="121" y="586"/>
      <point x="84" y="521"/>
      <point x="84" y="451" type="curve" smooth="yes"/>
    </contour>
    <contour>
      <point x="84" y="262" type="line"/>
      <point x="84" y="70" type="line" smooth="yes"/>
      <point x="84" y="19"/>
      <point x="106" y="0"/>
      <point x="180" y="0" type="curve" smooth="yes"/>
      <point x="241" y="0" type="line" smooth="yes"/>
      <point x="334" y="0"/>
      <point x="389" y="49"/>
      <point x="389" y="122" type="curve" smooth="yes"/>
      <point x="389" y="207"/>
      <point x="344" y="240"/>
      <point x="265" y="241" type="curve"/>
      <point x="265" y="262" type="line" smooth="yes"/>
    </contour>
    <contour>
      <point x="265" y="80" type="curve"/>
      <point x="265" y="164" type="line"/>
      <point x="280" y="164"/>
      <point x="293" y="150"/>
      <point x="293" y="123" type="curve" smooth="yes"/>
      <point x="293" y="98"/>
      <point x="278" y="80"/>
    </contour>
    <contour>
      <point x="85" y="-254" type="line"/>
      <point x="276" y="-254" type="line" smooth="yes"/>
      <point x="501" y="-254"/>
      <point x="614" y="-192"/>
      <point x="614" y="-52" type="curve" smooth="yes"/>
      <point x="614" y="-24" type="line"/>
      <point x="378" y="-24" type="line"/>
      <point x="378" y="-116" type="line"/>
      <point x="434" y="-116" type="line"/>
      <point x="430" y="-133"/>
      <point x="381" y="-153"/>
      <point x="276" y="-153" type="curve" smooth="yes"/>
      <point x="85" y="-153" type="line"/>
    </contour>
  </outline>
</glyph>
<glyph name="uni17AF" format="2">
  <advance width="702"/>
  <unicode hex="17AF"/>
  <note>
uni17AF
</note>
  <outline>
    <contour>
      <point x="89" y="0" type="line"/>
      <point x="240" y="0" type="line"/>
      <point x="354" y="76" type="line"/>
      <point x="467" y="0" type="line"/>
      <point x="618" y="0" type="line"/>
      <point x="618" y="438" type="line" smooth="yes"/>
      <point x="618" y="537"/>
      <point x="557" y="586"/>
      <point x="434" y="586" type="curve" smooth="yes"/>
      <point x="321" y="586" type="line" smooth="yes"/>
      <point x="275" y="586"/>
      <point x="270" y="608"/>
      <point x="270" y="643" type="curve" smooth="yes"/>
      <point x="270" y="742" type="line"/>
      <point x="89" y="742" type="line"/>
      <point x="89" y="643" type="line" smooth="yes"/>
      <point x="89" y="519"/>
      <point x="158" y="474"/>
      <point x="295" y="474" type="curve" smooth="yes"/>
      <point x="388" y="474" type="line" smooth="yes"/>
      <point x="421" y="474"/>
      <point x="438" y="462"/>
      <point x="438" y="438" type="curve" smooth="yes"/>
      <point x="438" y="165" type="line"/>
      <point x="354" y="223" type="line"/>
      <point x="270" y="164" type="line"/>
      <point x="270" y="365" type="line" smooth="yes"/>
      <point x="270" y="412"/>
      <point x="231" y="437"/>
      <point x="158" y="437" type="curve" smooth="yes"/>
      <point x="40" y="437" type="line"/>
      <point x="40" y="325" type="line"/>
      <point x="65" y="325"/>
      <point x="89" y="324"/>
      <point x="89" y="305" type="curve" smooth="yes"/>
    </contour>
  </outline>
</glyph>
<glyph name="uni17B0" format="2">
  <advance width="698"/>
  <unicode hex="17B0"/>
  <note>
uni17B0
</note>
  <outline>
    <contour>
      <point x="84" y="251" type="line"/>
      <point x="265" y="251" type="line"/>
      <point x="265" y="451" type="line" smooth="yes"/>
      <point x="265" y="462"/>
      <point x="271" y="468"/>
      <point x="278" y="468" type="curve" smooth="yes"/>
      <point x="296" y="468"/>
      <point x="319" y="407"/>
      <point x="348" y="407" type="curve" smooth="yes"/>
      <point x="379" y="407"/>
      <point x="398" y="468"/>
      <point x="419" y="468" type="curve" smooth="yes"/>
      <point x="426" y="468"/>
      <point x="433" y="462"/>
      <point x="433" y="451" type="curve" smooth="yes"/>
      <point x="433" y="0" type="line"/>
      <point x="614" y="0" type="line"/>
      <point x="614" y="451" type="line" smooth="yes"/>
      <point x="614" y="520"/>
      <point x="579" y="586"/>
      <point x="476" y="586" type="curve" smooth="yes"/>
      <point x="428" y="586"/>
      <point x="388" y="565"/>
      <point x="351" y="525" type="curve"/>
      <point x="348" y="525" type="line"/>
      <point x="312" y="566"/>
      <point x="270" y="586"/>
      <point x="223" y="586" type="curve" smooth="yes"/>
      <point x="121" y="586"/>
      <point x="84" y="521"/>
      <point x="84" y="451" type="curve" smooth="yes"/>
    </contour>
    <contour>
      <point x="84" y="262" type="line"/>
      <point x="84" y="70" type="line" smooth="yes"/>
      <point x="84" y="19"/>
      <point x="106" y="0"/>
      <point x="180" y="0" type="curve" smooth="yes"/>
      <point x="241" y="0" type="line" smooth="yes"/>
      <point x="334" y="0"/>
      <point x="389" y="49"/>
      <point x="389" y="122" type="curve" smooth="yes"/>
      <point x="389" y="207"/>
      <point x="344" y="240"/>
      <point x="265" y="241" type="curve"/>
      <point x="265" y="262" type="line" smooth="yes"/>
    </contour>
    <contour>
      <point x="265" y="80" type="curve"/>
      <point x="265" y="164" type="line"/>
      <point x="280" y="164"/>
      <point x="293" y="150"/>
      <point x="293" y="123" type="curve" smooth="yes"/>
      <point x="293" y="98"/>
      <point x="278" y="80"/>
    </contour>
    <contour>
      <point x="276" y="-215" type="curve" smooth="yes"/>
      <point x="349" y="-215"/>
      <point x="388" y="-188"/>
      <point x="407" y="-162" type="curve"/>
      <point x="424" y="-179"/>
      <point x="445" y="-190"/>
      <point x="483" y="-190" type="curve" smooth="yes"/>
      <point x="550" y="-190"/>
      <point x="614" y="-144"/>
      <point x="614" y="-67" type="curve" smooth="yes"/>
      <point x="614" y="9" type="line"/>
      <point x="445" y="9" type="line"/>
      <point x="435" y="-11"/>
      <point x="284" y="-42"/>
      <point x="137" y="-65" type="curve"/>
      <point x="137" y="-107" type="line" smooth="yes"/>
      <point x="137" y="-178"/>
      <point x="193" y="-215"/>
    </contour>
    <contour>
      <point x="287" y="-149" type="curve" smooth="yes"/>
      <point x="275" y="-149"/>
      <point x="264" y="-144"/>
      <point x="264" y="-135" type="curve" smooth="yes"/>
      <point x="264" y="-120" type="line"/>
      <point x="328" y="-106" type="line"/>
      <point x="328" y="-119" type="line" smooth="yes"/>
      <point x="328" y="-131"/>
      <point x="313" y="-149"/>
    </contour>
    <contour>
      <point x="483" y="-82" type="line" smooth="yes"/>
      <point x="483" y="-102"/>
      <point x="460" y="-112"/>
      <point x="441" y="-112" type="curve" smooth="yes"/>
      <point x="428" y="-112"/>
      <point x="417" y="-106"/>
      <point x="417" y="-96" type="curve" smooth="yes"/>
      <point x="417" y="-86" type="line"/>
      <point x="483" y="-71" type="line"/>
    </contour>
  </outline>
</glyph>
<glyph name="uni17B1" format="2">
  <advance width="697"/>
  <unicode hex="17B1"/>
  <note>
uni17B1
</note>
  <outline>
    <contour>
      <point x="80" y="561" type="curve"/>
      <point x="177" y="615" type="line"/>
      <point x="158" y="631"/>
      <point x="148" y="641"/>
      <point x="148" y="648" type="curve" smooth="yes"/>
      <point x="148" y="653"/>
      <point x="151" y="660"/>
      <point x="160" y="665" type="curve"/>
      <point x="416" y="665" type="line" smooth="yes"/>
      <point x="453" y="665"/>
      <point x="526" y="657"/>
      <point x="521" y="586" type="curve"/>
      <point x="640" y="620" type="line"/>
      <point x="624" y="740"/>
      <point x="542" y="777"/>
      <point x="461" y="777" type="curve" smooth="yes"/>
      <point x="107" y="777" type="line"/>
      <point x="43" y="708"/>
      <point x="21" y="684"/>
      <point x="21" y="659" type="curve" smooth="yes"/>
      <point x="21" y="641"/>
      <point x="32" y="624"/>
    </contour>
    <contour>
      <point x="439" y="-4" type="line"/>
      <point x="619" y="-4" type="line"/>
      <point x="619" y="234" type="line"/>
      <point x="439" y="234" type="line"/>
      <point x="439" y="189" type="line" smooth="yes"/>
      <point x="439" y="150"/>
      <point x="362" y="112"/>
      <point x="324" y="112" type="curve" smooth="yes"/>
      <point x="289" y="112"/>
      <point x="271" y="136"/>
      <point x="271" y="170" type="curve" smooth="yes"/>
      <point x="271" y="215" type="line"/>
      <point x="313" y="224" type="line" smooth="yes"/>
      <point x="502" y="265"/>
      <point x="619" y="329"/>
      <point x="619" y="431" type="curve" smooth="yes"/>
      <point x="619" y="540"/>
      <point x="526" y="586"/>
      <point x="354" y="586" type="curve" smooth="yes"/>
      <point x="181" y="586"/>
      <point x="90" y="540"/>
      <point x="90" y="452" type="curve" smooth="yes"/>
      <point x="90" y="385"/>
      <point x="140" y="349"/>
      <point x="231" y="349" type="curve" smooth="yes"/>
      <point x="303" y="349" type="line"/>
      <point x="303" y="424" type="line"/>
      <point x="280" y="424"/>
      <point x="273" y="433"/>
      <point x="273" y="445" type="curve" smooth="yes"/>
      <point x="273" y="468"/>
      <point x="312" y="475"/>
      <point x="358" y="475" type="curve" smooth="yes"/>
      <point x="409" y="475"/>
      <point x="439" y="457"/>
      <point x="439" y="428" type="curve" smooth="yes"/>
      <point x="439" y="384"/>
      <point x="396" y="348"/>
      <point x="308" y="330" type="curve" smooth="yes"/>
      <point x="90" y="286" type="line"/>
      <point x="90" y="158" type="line" smooth="yes"/>
      <point x="90" y="46"/>
      <point x="164" y="0"/>
      <point x="264" y="0" type="curve" smooth="yes"/>
      <point x="339" y="0"/>
      <point x="404" y="30"/>
      <point x="438" y="55" type="curve"/>
      <point x="439" y="55" type="line"/>
    </contour>
  </outline>
</glyph>
<glyph name="uni17B2" format="2">
  <advance width="639"/>
  <unicode hex="17B2"/>
  <note>
uni17B2
</note>
  <outline>
    <contour>
      <point x="334" y="0" type="curve" smooth="yes"/>
      <point x="506" y="0"/>
      <point x="596" y="46"/>
      <point x="596" y="153" type="curve" smooth="yes"/>
      <point x="596" y="195"/>
      <point x="571" y="230"/>
      <point x="539" y="250" type="curve"/>
      <point x="573" y="285"/>
      <point x="579" y="295"/>
      <point x="579" y="312" type="curve" smooth="yes"/>
      <point x="579" y="324"/>
      <point x="576" y="327"/>
      <point x="516" y="405" type="curve"/>
      <point x="321" y="405" type="line"/>
      <point x="321" y="293" type="line"/>
      <point x="393" y="293" type="line"/>
      <point x="321" y="233" type="line"/>
      <point x="392" y="164" type="line"/>
      <point x="416" y="187" type="line"/>
      <point x="421" y="179"/>
      <point x="423" y="174"/>
      <point x="423" y="168" type="curve" smooth="yes"/>
      <point x="423" y="140"/>
      <point x="396" y="114"/>
      <point x="334" y="114" type="curve" smooth="yes"/>
      <point x="284" y="114"/>
      <point x="251" y="137"/>
      <point x="251" y="160" type="curve" smooth="yes"/>
      <point x="251" y="428" type="line" smooth="yes"/>
      <point x="251" y="459"/>
      <point x="275" y="474"/>
      <point x="322" y="474" type="curve" smooth="yes"/>
      <point x="399" y="474"/>
      <point x="456" y="462"/>
      <point x="493" y="438" type="curve"/>
      <point x="530" y="541" type="line"/>
      <point x="484" y="571"/>
      <point x="415" y="586"/>
      <point x="322" y="586" type="curve" smooth="yes"/>
      <point x="154" y="586"/>
      <point x="70" y="541"/>
      <point x="70" y="428" type="curve" smooth="yes"/>
      <point x="70" y="158" type="line" smooth="yes"/>
      <point x="70" y="46"/>
      <point x="163" y="0"/>
    </contour>
  </outline>
</glyph>
<glyph name="uni17B3" format="2">
  <advance width="688"/>
  <unicode hex="17B3"/>
  <note>
uni17B3
</note>
  <outline>
    <contour>
      <point x="106" y="561" type="curve"/>
      <point x="203" y="615" type="line"/>
      <point x="184" y="631"/>
      <point x="174" y="641"/>
      <point x="174" y="648" type="curve" smooth="yes"/>
      <point x="174" y="653"/>
      <point x="177" y="660"/>
      <point x="186" y="665" type="curve"/>
      <point x="462" y="665" type="line"/>
      <point x="540" y="573" type="line"/>
      <point x="601" y="610" type="line"/>
      <point x="584" y="714"/>
      <point x="556" y="760"/>
      <point x="496" y="773" type="curve"/>
      <point x="466" y="813"/>
      <point x="457" y="827"/>
      <point x="457" y="849" type="curve" smooth="yes"/>
      <point x="457" y="874"/>
      <point x="464" y="882"/>
      <point x="469" y="892" type="curve"/>
      <point x="366" y="923" type="line"/>
      <point x="351" y="905"/>
      <point x="338" y="878"/>
      <point x="338" y="854" type="curve" smooth="yes"/>
      <point x="338" y="830"/>
      <point x="346" y="807"/>
      <point x="366" y="777" type="curve"/>
      <point x="133" y="777" type="line"/>
      <point x="69" y="708"/>
      <point x="47" y="684"/>
      <point x="47" y="659" type="curve" smooth="yes"/>
      <point x="47" y="641"/>
      <point x="58" y="624"/>
    </contour>
    <contour>
      <point x="430" y="-4" type="line"/>
      <point x="610" y="-4" type="line"/>
      <point x="610" y="234" type="line"/>
      <point x="430" y="234" type="line"/>
      <point x="430" y="189" type="line" smooth="yes"/>
      <point x="430" y="150"/>
      <point x="353" y="112"/>
      <point x="315" y="112" type="curve" smooth="yes"/>
      <point x="280" y="112"/>
      <point x="262" y="136"/>
      <point x="262" y="170" type="curve" smooth="yes"/>
      <point x="262" y="215" type="line"/>
      <point x="304" y="224" type="line" smooth="yes"/>
      <point x="493" y="265"/>
      <point x="610" y="329"/>
      <point x="610" y="431" type="curve" smooth="yes"/>
      <point x="610" y="540"/>
      <point x="517" y="586"/>
      <point x="345" y="586" type="curve" smooth="yes"/>
      <point x="172" y="586"/>
      <point x="81" y="540"/>
      <point x="81" y="452" type="curve" smooth="yes"/>
      <point x="81" y="385"/>
      <point x="131" y="349"/>
      <point x="222" y="349" type="curve" smooth="yes"/>
      <point x="294" y="349" type="line"/>
      <point x="294" y="424" type="line"/>
      <point x="271" y="424"/>
      <point x="264" y="433"/>
      <point x="264" y="445" type="curve" smooth="yes"/>
      <point x="264" y="468"/>
      <point x="303" y="475"/>
      <point x="349" y="475" type="curve" smooth="yes"/>
      <point x="400" y="475"/>
      <point x="430" y="457"/>
      <point x="430" y="428" type="curve" smooth="yes"/>
      <point x="430" y="384"/>
      <point x="387" y="348"/>
      <point x="299" y="330" type="curve" smooth="yes"/>
      <point x="81" y="286" type="line"/>
      <point x="81" y="158" type="line" smooth="yes"/>
      <point x="81" y="46"/>
      <point x="155" y="0"/>
      <point x="255" y="0" type="curve" smooth="yes"/>
      <point x="330" y="0"/>
      <point x="395" y="30"/>
      <point x="429" y="55" type="curve"/>
      <point x="430" y="55" type="line"/>
    </contour>
  </outline>
</glyph>
<glyph name="uni17B6" format="2">
  <advance width="318"/>
  <unicode hex="17B6"/>
  <note>
uni17B6
</note>
  <outline>
    <contour>
      <point x="53" y="0" type="line"/>
      <point x="234" y="0" type="line"/>
      <point x="234" y="458" type="line" smooth="yes"/>
      <point x="234" y="539"/>
      <point x="189" y="586"/>
      <point x="73" y="586" type="curve" smooth="yes"/>
      <point x="-118" y="586" type="line"/>
      <point x="-118" y="474" type="line"/>
      <point x="-10" y="474" type="line" smooth="yes"/>
      <point x="39" y="474"/>
      <point x="53" y="461"/>
      <point x="53" y="413" type="curve" smooth="yes"/>
    </contour>
  </outline>
</glyph>
<glyph name="uni17B7" format="2">
  <unicode hex="17B7"/>
  <note>
uni17B7
</note>
  <outline>
    <contour>
      <point x="-433" y="684" type="curve" smooth="yes"/>
      <point x="-65" y="684" type="line"/>
      <point x="-65" y="757" type="line"/>
      <point x="-154" y="838"/>
      <point x="-243" y="897"/>
      <point x="-347" y="897" type="curve" smooth="yes"/>
      <point x="-443" y="897"/>
      <point x="-523" y="848"/>
      <point x="-523" y="757" type="curve" smooth="yes"/>
      <point x="-523" y="708"/>
      <point x="-494" y="684"/>
    </contour>
    <contour>
      <point x="-401" y="763" type="line"/>
      <point x="-401" y="781"/>
      <point x="-385" y="795"/>
      <point x="-343" y="795" type="curve" smooth="yes"/>
      <point x="-303" y="795"/>
      <point x="-258" y="779"/>
      <point x="-241" y="763" type="curve"/>
    </contour>
  </outline>
</glyph>
<glyph name="uni17B9" format="2">
  <unicode hex="17B9"/>
  <note>
uni17B9
</note>
  <outline>
    <contour>
      <point x="-273" y="881" type="curve"/>
      <point x="-98" y="770" type="line"/>
      <point x="-89" y="779"/>
      <point x="-67" y="807"/>
      <point x="-67" y="845" type="curve" smooth="yes"/>
      <point x="-67" y="895"/>
      <point x="-107" y="942"/>
      <point x="-170" y="942" type="curve" smooth="yes"/>
      <point x="-210" y="942"/>
      <point x="-248" y="918"/>
    </contour>
    <contour>
      <point x="-196" y="854" type="line"/>
      <point x="-192" y="859"/>
      <point x="-182" y="866"/>
      <point x="-170" y="866" type="curve" smooth="yes"/>
      <point x="-157" y="866"/>
      <point x="-148" y="856"/>
      <point x="-148" y="846" type="curve" smooth="yes"/>
      <point x="-148" y="837"/>
      <point x="-155" y="830"/>
      <point x="-157" y="829" type="curve"/>
    </contour>
    <contour>
      <point x="-433" y="684" type="curve" smooth="yes"/>
      <point x="-65" y="684" type="line"/>
      <point x="-65" y="757" type="line"/>
      <point x="-154" y="838"/>
      <point x="-243" y="897"/>
      <point x="-347" y="897" type="curve" smooth="yes"/>
      <point x="-443" y="897"/>
      <point x="-523" y="848"/>
      <point x="-523" y="757" type="curve" smooth="yes"/>
      <point x="-523" y="708"/>
      <point x="-494" y="684"/>
    </contour>
    <contour>
      <point x="-401" y="763" type="line"/>
      <point x="-401" y="781"/>
      <point x="-385" y="795"/>
      <point x="-343" y="795" type="curve" smooth="yes"/>
      <point x="-303" y="795"/>
      <point x="-258" y="779"/>
      <point x="-241" y="763" type="curve"/>
    </contour>
  </outline>
</glyph>
<glyph name="uni17BD" format="2">
  <unicode hex="17BD"/>
  <note>
uni17BD
</note>
  <outline>
    <contour>
      <point x="-472" y="-262" type="line"/>
      <point x="-349" y="-262" type="line"/>
      <point x="-298" y="-227" type="line"/>
      <point x="-248" y="-262" type="line"/>
      <point x="-124" y="-262" type="line"/>
      <point x="-124" y="-34" type="line"/>
      <point x="-263" y="-34" type="line"/>
      <point x="-263" y="-135" type="line"/>
      <point x="-298" y="-112" type="line"/>
      <point x="-333" y="-135" type="line"/>
      <point x="-333" y="-34" type="line"/>
      <point x="-472" y="-34" type="line"/>
    </contour>
  </outline>
</glyph>
<glyph name="uni17BE" format="2">
  <unicode hex="17BE"/>
  <note>
uni17BE
</note>
  <outline>
    <contour>
      <point x="827" y="684" type="line"/>
      <point x="827" y="910" type="line"/>
      <point x="712" y="910" type="line"/>
      <point x="712" y="684" type="line"/>
    </contour>
    <contour>
      <point x="459" y="684" type="curve" smooth="yes"/>
      <point x="827" y="684" type="line"/>
      <point x="827" y="757" type="line"/>
      <point x="738" y="838"/>
      <point x="649" y="897"/>
      <point x="545" y="897" type="curve" smooth="yes"/>
      <point x="449" y="897"/>
      <point x="369" y="848"/>
      <point x="369" y="757" type="curve" smooth="yes"/>
      <point x="369" y="708"/>
      <point x="398" y="684"/>
    </contour>
    <contour>
      <point x="491" y="763" type="line"/>
      <point x="491" y="781"/>
      <point x="507" y="795"/>
      <point x="549" y="795" type="curve" smooth="yes"/>
      <point x="589" y="795"/>
      <point x="634" y="779"/>
      <point x="651" y="763" type="curve"/>
    </contour>
    <contour>
      <point x="263" y="374" type="line"/>
      <point x="82" y="374" type="line"/>
      <point x="82" y="50" type="line" smooth="yes"/>
      <point x="82" y="17"/>
      <point x="108" y="0"/>
      <point x="155" y="0" type="curve" smooth="yes"/>
      <point x="307" y="0" type="line"/>
      <point x="307" y="112" type="line"/>
      <point x="283" y="112" type="line" smooth="yes"/>
      <point x="266" y="112"/>
      <point x="263" y="118"/>
      <point x="263" y="135" type="curve" smooth="yes"/>
    </contour>
    <contour>
      <point x="82" y="354" type="line"/>
      <point x="263" y="354" type="line"/>
      <point x="263" y="410" type="line"/>
      <point x="201" y="473" type="line"/>
      <point x="201" y="474" type="line"/>
      <point x="271" y="474" type="line"/>
      <point x="271" y="586" type="line"/>
      <point x="104" y="586" type="line"/>
      <point x="62" y="532"/>
      <point x="40" y="504"/>
      <point x="40" y="491" type="curve" smooth="yes"/>
      <point x="40" y="482"/>
      <point x="42" y="479"/>
      <point x="82" y="426" type="curve"/>
    </contour>
    <contour>
      <point x="395" y="251" type="curve" smooth="yes"/>
      <point x="417" y="251"/>
      <point x="435" y="269"/>
      <point x="435" y="291" type="curve" smooth="yes"/>
      <point x="435" y="313"/>
      <point x="417" y="331"/>
      <point x="395" y="331" type="curve" smooth="yes"/>
      <point x="373" y="331"/>
      <point x="355" y="313"/>
      <point x="355" y="291" type="curve" smooth="yes"/>
      <point x="355" y="269"/>
      <point x="373" y="251"/>
    </contour>
    <contour>
      <point x="421" y="352" type="curve" smooth="yes"/>
      <point x="443" y="352"/>
      <point x="461" y="370"/>
      <point x="461" y="392" type="curve" smooth="yes"/>
      <point x="461" y="414"/>
      <point x="443" y="432"/>
      <point x="421" y="432" type="curve" smooth="yes"/>
      <point x="399" y="432"/>
      <point x="381" y="414"/>
      <point x="381" y="392" type="curve" smooth="yes"/>
      <point x="381" y="370"/>
      <point x="399" y="352"/>
    </contour>
    <contour>
      <point x="492" y="422" type="curve" smooth="yes"/>
      <point x="514" y="422"/>
      <point x="532" y="440"/>
      <point x="532" y="462" type="curve" smooth="yes"/>
      <point x="532" y="484"/>
      <point x="514" y="502"/>
      <point x="492" y="502" type="curve" smooth="yes"/>
      <point x="470" y="502"/>
      <point x="452" y="484"/>
      <point x="452" y="462" type="curve" smooth="yes"/>
      <point x="452" y="440"/>
      <point x="470" y="422"/>
    </contour>
    <contour>
      <point x="589" y="446" type="curve" smooth="yes"/>
      <point x="611" y="446"/>
      <point x="629" y="464"/>
      <point x="629" y="486" type="curve" smooth="yes"/>
      <point x="629" y="508"/>
      <point x="611" y="526"/>
      <point x="589" y="526" type="curve" smooth="yes"/>
      <point x="567" y="526"/>
      <point x="549" y="508"/>
      <point x="549" y="486" type="curve" smooth="yes"/>
      <point x="549" y="464"/>
      <point x="567" y="446"/>
    </contour>
    <contour>
      <point x="686" y="422" type="curve" smooth="yes"/>
      <point x="708" y="422"/>
      <point x="726" y="440"/>
      <point x="726" y="462" type="curve" smooth="yes"/>
      <point x="726" y="484"/>
      <point x="708" y="502"/>
      <point x="686" y="502" type="curve" smooth="yes"/>
      <point x="664" y="502"/>
      <point x="646" y="484"/>
      <point x="646" y="462" type="curve" smooth="yes"/>
      <point x="646" y="440"/>
      <point x="664" y="422"/>
    </contour>
    <contour>
      <point x="756" y="350" type="curve" smooth="yes"/>
      <point x="778" y="350"/>
      <point x="796" y="368"/>
      <point x="796" y="390" type="curve" smooth="yes"/>
      <point x="796" y="412"/>
      <point x="778" y="430"/>
      <point x="756" y="430" type="curve" smooth="yes"/>
      <point x="734" y="430"/>
      <point x="716" y="412"/>
      <point x="716" y="390" type="curve" smooth="yes"/>
      <point x="716" y="368"/>
      <point x="734" y="350"/>
    </contour>
    <contour>
      <point x="786" y="251" type="curve" smooth="yes"/>
      <point x="808" y="251"/>
      <point x="826" y="269"/>
      <point x="826" y="291" type="curve" smooth="yes"/>
      <point x="826" y="313"/>
      <point x="808" y="331"/>
      <point x="786" y="331" type="curve" smooth="yes"/>
      <point x="764" y="331"/>
      <point x="746" y="313"/>
      <point x="746" y="291" type="curve" smooth="yes"/>
      <point x="746" y="269"/>
      <point x="764" y="251"/>
    </contour>
    <contour>
      <point x="758" y="157" type="curve" smooth="yes"/>
      <point x="780" y="157"/>
      <point x="798" y="175"/>
      <point x="798" y="197" type="curve" smooth="yes"/>
      <point x="798" y="219"/>
      <point x="780" y="237"/>
      <point x="758" y="237" type="curve" smooth="yes"/>
      <point x="736" y="237"/>
      <point x="718" y="219"/>
      <point x="718" y="197" type="curve" smooth="yes"/>
      <point x="718" y="175"/>
      <point x="736" y="157"/>
    </contour>
    <contour>
      <point x="687" y="85" type="curve" smooth="yes"/>
      <point x="709" y="85"/>
      <point x="727" y="103"/>
      <point x="727" y="125" type="curve" smooth="yes"/>
      <point x="727" y="147"/>
      <point x="709" y="165"/>
      <point x="687" y="165" type="curve" smooth="yes"/>
      <point x="665" y="165"/>
      <point x="647" y="147"/>
      <point x="647" y="125" type="curve" smooth="yes"/>
      <point x="647" y="103"/>
      <point x="665" y="85"/>
    </contour>
    <contour>
      <point x="589" y="57" type="curve" smooth="yes"/>
      <point x="611" y="57"/>
      <point x="629" y="75"/>
      <point x="629" y="97" type="curve" smooth="yes"/>
      <point x="629" y="119"/>
      <point x="611" y="137"/>
      <point x="589" y="137" type="curve" smooth="yes"/>
      <point x="567" y="137"/>
      <point x="549" y="119"/>
      <point x="549" y="97" type="curve" smooth="yes"/>
      <point x="549" y="75"/>
      <point x="567" y="57"/>
    </contour>
    <contour>
      <point x="492" y="84" type="curve" smooth="yes"/>
      <point x="514" y="84"/>
      <point x="532" y="102"/>
      <point x="532" y="124" type="curve" smooth="yes"/>
      <point x="532" y="146"/>
      <point x="514" y="164"/>
      <point x="492" y="164" type="curve" smooth="yes"/>
      <point x="470" y="164"/>
      <point x="452" y="146"/>
      <point x="452" y="124" type="curve" smooth="yes"/>
      <point x="452" y="102"/>
      <point x="470" y="84"/>
    </contour>
    <contour>
      <point x="419" y="156" type="curve" smooth="yes"/>
      <point x="441" y="156"/>
      <point x="459" y="174"/>
      <point x="459" y="196" type="curve" smooth="yes"/>
      <point x="459" y="218"/>
      <point x="441" y="236"/>
      <point x="419" y="236" type="curve" smooth="yes"/>
      <point x="397" y="236"/>
      <point x="379" y="218"/>
      <point x="379" y="196" type="curve" smooth="yes"/>
      <point x="379" y="174"/>
      <point x="397" y="156"/>
    </contour>
  </outline>
</glyph>
<glyph name="uni17BF" format="2">
  <advance width="1211"/>
  <unicode hex="17BF"/>
  <note>
uni17BF
</note>
  <outline>
    <contour>
      <point x="263" y="374" type="line"/>
      <point x="82" y="374" type="line"/>
      <point x="82" y="50" type="line" smooth="yes"/>
      <point x="82" y="17"/>
      <point x="108" y="0"/>
      <point x="155" y="0" type="curve" smooth="yes"/>
      <point x="307" y="0" type="line"/>
      <point x="307" y="112" type="line"/>
      <point x="283" y="112" type="line" smooth="yes"/>
      <point x="266" y="112"/>
      <point x="263" y="118"/>
      <point x="263" y="135" type="curve" smooth="yes"/>
    </contour>
    <contour>
      <point x="82" y="354" type="line"/>
      <point x="263" y="354" type="line"/>
      <point x="263" y="410" type="line"/>
      <point x="201" y="473" type="line"/>
      <point x="201" y="474" type="line"/>
      <point x="271" y="474" type="line"/>
      <point x="271" y="586" type="line"/>
      <point x="104" y="586" type="line"/>
      <point x="62" y="532"/>
      <point x="40" y="504"/>
      <point x="40" y="491" type="curve" smooth="yes"/>
      <point x="40" y="482"/>
      <point x="42" y="479"/>
      <point x="82" y="426" type="curve"/>
    </contour>
    <contour>
      <point x="391" y="251" type="curve" smooth="yes"/>
      <point x="413" y="251"/>
      <point x="431" y="269"/>
      <point x="431" y="291" type="curve" smooth="yes"/>
      <point x="431" y="313"/>
      <point x="413" y="331"/>
      <point x="391" y="331" type="curve" smooth="yes"/>
      <point x="369" y="331"/>
      <point x="351" y="313"/>
      <point x="351" y="291" type="curve" smooth="yes"/>
      <point x="351" y="269"/>
      <point x="369" y="251"/>
    </contour>
    <contour>
      <point x="417" y="352" type="curve" smooth="yes"/>
      <point x="439" y="352"/>
      <point x="457" y="370"/>
      <point x="457" y="392" type="curve" smooth="yes"/>
      <point x="457" y="414"/>
      <point x="439" y="432"/>
      <point x="417" y="432" type="curve" smooth="yes"/>
      <point x="395" y="432"/>
      <point x="377" y="414"/>
      <point x="377" y="392" type="curve" smooth="yes"/>
      <point x="377" y="370"/>
      <point x="395" y="352"/>
    </contour>
    <contour>
      <point x="488" y="422" type="curve" smooth="yes"/>
      <point x="510" y="422"/>
      <point x="528" y="440"/>
      <point x="528" y="462" type="curve" smooth="yes"/>
      <point x="528" y="484"/>
      <point x="510" y="502"/>
      <point x="488" y="502" type="curve" smooth="yes"/>
      <point x="466" y="502"/>
      <point x="448" y="484"/>
      <point x="448" y="462" type="curve" smooth="yes"/>
      <point x="448" y="440"/>
      <point x="466" y="422"/>
    </contour>
    <contour>
      <point x="585" y="446" type="curve" smooth="yes"/>
      <point x="607" y="446"/>
      <point x="625" y="464"/>
      <point x="625" y="486" type="curve" smooth="yes"/>
      <point x="625" y="508"/>
      <point x="607" y="526"/>
      <point x="585" y="526" type="curve" smooth="yes"/>
      <point x="563" y="526"/>
      <point x="545" y="508"/>
      <point x="545" y="486" type="curve" smooth="yes"/>
      <point x="545" y="464"/>
      <point x="563" y="446"/>
    </contour>
    <contour>
      <point x="682" y="422" type="curve" smooth="yes"/>
      <point x="704" y="422"/>
      <point x="722" y="440"/>
      <point x="722" y="462" type="curve" smooth="yes"/>
      <point x="722" y="484"/>
      <point x="704" y="502"/>
      <point x="682" y="502" type="curve" smooth="yes"/>
      <point x="660" y="502"/>
      <point x="642" y="484"/>
      <point x="642" y="462" type="curve" smooth="yes"/>
      <point x="642" y="440"/>
      <point x="660" y="422"/>
    </contour>
    <contour>
      <point x="752" y="350" type="curve" smooth="yes"/>
      <point x="774" y="350"/>
      <point x="792" y="368"/>
      <point x="792" y="390" type="curve" smooth="yes"/>
      <point x="792" y="412"/>
      <point x="774" y="430"/>
      <point x="752" y="430" type="curve" smooth="yes"/>
      <point x="730" y="430"/>
      <point x="712" y="412"/>
      <point x="712" y="390" type="curve" smooth="yes"/>
      <point x="712" y="368"/>
      <point x="730" y="350"/>
    </contour>
    <contour>
      <point x="782" y="251" type="curve" smooth="yes"/>
      <point x="804" y="251"/>
      <point x="822" y="269"/>
      <point x="822" y="291" type="curve" smooth="yes"/>
      <point x="822" y="313"/>
      <point x="804" y="331"/>
      <point x="782" y="331" type="curve" smooth="yes"/>
      <point x="760" y="331"/>
      <point x="742" y="313"/>
      <point x="742" y="291" type="curve" smooth="yes"/>
      <point x="742" y="269"/>
      <point x="760" y="251"/>
    </contour>
    <contour>
      <point x="754" y="157" type="curve" smooth="yes"/>
      <point x="776" y="157"/>
      <point x="794" y="175"/>
      <point x="794" y="197" type="curve" smooth="yes"/>
      <point x="794" y="219"/>
      <point x="776" y="237"/>
      <point x="754" y="237" type="curve" smooth="yes"/>
      <point x="732" y="237"/>
      <point x="714" y="219"/>
      <point x="714" y="197" type="curve" smooth="yes"/>
      <point x="714" y="175"/>
      <point x="732" y="157"/>
    </contour>
    <contour>
      <point x="683" y="85" type="curve" smooth="yes"/>
      <point x="705" y="85"/>
      <point x="723" y="103"/>
      <point x="723" y="125" type="curve" smooth="yes"/>
      <point x="723" y="147"/>
      <point x="705" y="165"/>
      <point x="683" y="165" type="curve" smooth="yes"/>
      <point x="661" y="165"/>
      <point x="643" y="147"/>
      <point x="643" y="125" type="curve" smooth="yes"/>
      <point x="643" y="103"/>
      <point x="661" y="85"/>
    </contour>
    <contour>
      <point x="585" y="57" type="curve" smooth="yes"/>
      <point x="607" y="57"/>
      <point x="625" y="75"/>
      <point x="625" y="97" type="curve" smooth="yes"/>
      <point x="625" y="119"/>
      <point x="607" y="137"/>
      <point x="585" y="137" type="curve" smooth="yes"/>
      <point x="563" y="137"/>
      <point x="545" y="119"/>
      <point x="545" y="97" type="curve" smooth="yes"/>
      <point x="545" y="75"/>
      <point x="563" y="57"/>
    </contour>
    <contour>
      <point x="488" y="84" type="curve" smooth="yes"/>
      <point x="510" y="84"/>
      <point x="528" y="102"/>
      <point x="528" y="124" type="curve" smooth="yes"/>
      <point x="528" y="146"/>
      <point x="510" y="164"/>
      <point x="488" y="164" type="curve" smooth="yes"/>
      <point x="466" y="164"/>
      <point x="448" y="146"/>
      <point x="448" y="124" type="curve" smooth="yes"/>
      <point x="448" y="102"/>
      <point x="466" y="84"/>
    </contour>
    <contour>
      <point x="415" y="156" type="curve" smooth="yes"/>
      <point x="437" y="156"/>
      <point x="455" y="174"/>
      <point x="455" y="196" type="curve" smooth="yes"/>
      <point x="455" y="218"/>
      <point x="437" y="236"/>
      <point x="415" y="236" type="curve" smooth="yes"/>
      <point x="393" y="236"/>
      <point x="375" y="218"/>
      <point x="375" y="196" type="curve" smooth="yes"/>
      <point x="375" y="174"/>
      <point x="393" y="156"/>
    </contour>
    <contour>
      <point x="1121" y="605" type="line"/>
      <point x="940" y="605" type="line"/>
      <point x="940" y="-126" type="line" smooth="yes"/>
      <point x="940" y="-141"/>
      <point x="922" y="-148"/>
      <point x="887" y="-148" type="curve" smooth="yes"/>
      <point x="852" y="-148"/>
      <point x="834" y="-141"/>
      <point x="834" y="-126" type="curve" smooth="yes"/>
      <point x="834" y="-122" type="line"/>
      <point x="848" y="-122" type="line"/>
      <point x="848" y="-49" type="line"/>
      <point x="653" y="-49" type="line"/>
      <point x="653" y="-126" type="line" smooth="yes"/>
      <point x="653" y="-204"/>
      <point x="731" y="-244"/>
      <point x="887" y="-244" type="curve" smooth="yes"/>
      <point x="1043" y="-244"/>
      <point x="1121" y="-205"/>
      <point x="1121" y="-127" type="curve" smooth="yes"/>
    </contour>
    <contour>
      <point x="940" y="598" type="line"/>
      <point x="1121" y="598" type="line"/>
      <point x="1121" y="643" type="line" smooth="yes"/>
      <point x="1121" y="739"/>
      <point x="1096" y="806"/>
      <point x="996" y="875" type="curve" smooth="yes"/>
      <point x="915" y="931"/>
      <point x="860" y="959"/>
      <point x="789" y="959" type="curve" smooth="yes"/>
      <point x="714" y="959"/>
      <point x="633" y="909"/>
      <point x="633" y="825" type="curve" smooth="yes"/>
      <point x="633" y="762"/>
      <point x="661" y="723"/>
      <point x="756" y="723" type="curve" smooth="yes"/>
      <point x="887" y="723" type="line" smooth="yes"/>
      <point x="922" y="723"/>
      <point x="940" y="707"/>
      <point x="940" y="675" type="curve" smooth="yes"/>
    </contour>
    <contour>
      <point x="769" y="812" type="line"/>
      <point x="769" y="831"/>
      <point x="785" y="845"/>
      <point x="809" y="845" type="curve" smooth="yes"/>
      <point x="838" y="845"/>
      <point x="868" y="834"/>
      <point x="896" y="812" type="curve"/>
    </contour>
    <contour>
      <point x="915" y="900" type="line"/>
      <point x="915" y="1012" type="line"/>
      <point x="820" y="1012" type="line"/>
      <point x="820" y="941" type="line"/>
    </contour>
    <contour>
      <point x="1025" y="843" type="line"/>
      <point x="1025" y="987" type="line"/>
      <point x="930" y="987" type="line"/>
      <point x="930" y="891" type="line"/>
    </contour>
  </outline>
</glyph>
<glyph name="uni17C0" format="2">
  <advance width="1258"/>
  <unicode hex="17C0"/>
  <note>
uni17C0
</note>
  <outline>
    <contour>
      <point x="263" y="374" type="line"/>
      <point x="82" y="374" type="line"/>
      <point x="82" y="50" type="line" smooth="yes"/>
      <point x="82" y="17"/>
      <point x="108" y="0"/>
      <point x="155" y="0" type="curve" smooth="yes"/>
      <point x="307" y="0" type="line"/>
      <point x="307" y="112" type="line"/>
      <point x="283" y="112" type="line" smooth="yes"/>
      <point x="266" y="112"/>
      <point x="263" y="118"/>
      <point x="263" y="135" type="curve" smooth="yes"/>
    </contour>
    <contour>
      <point x="82" y="354" type="line"/>
      <point x="263" y="354" type="line"/>
      <point x="263" y="410" type="line"/>
      <point x="201" y="473" type="line"/>
      <point x="201" y="474" type="line"/>
      <point x="271" y="474" type="line"/>
      <point x="271" y="586" type="line"/>
      <point x="104" y="586" type="line"/>
      <point x="62" y="532"/>
      <point x="40" y="504"/>
      <point x="40" y="491" type="curve" smooth="yes"/>
      <point x="40" y="482"/>
      <point x="42" y="479"/>
      <point x="82" y="426" type="curve"/>
    </contour>
    <contour>
      <point x="410" y="251" type="curve" smooth="yes"/>
      <point x="432" y="251"/>
      <point x="450" y="269"/>
      <point x="450" y="291" type="curve" smooth="yes"/>
      <point x="450" y="313"/>
      <point x="432" y="331"/>
      <point x="410" y="331" type="curve" smooth="yes"/>
      <point x="388" y="331"/>
      <point x="370" y="313"/>
      <point x="370" y="291" type="curve" smooth="yes"/>
      <point x="370" y="269"/>
      <point x="388" y="251"/>
    </contour>
    <contour>
      <point x="436" y="352" type="curve" smooth="yes"/>
      <point x="458" y="352"/>
      <point x="476" y="370"/>
      <point x="476" y="392" type="curve" smooth="yes"/>
      <point x="476" y="414"/>
      <point x="458" y="432"/>
      <point x="436" y="432" type="curve" smooth="yes"/>
      <point x="414" y="432"/>
      <point x="396" y="414"/>
      <point x="396" y="392" type="curve" smooth="yes"/>
      <point x="396" y="370"/>
      <point x="414" y="352"/>
    </contour>
    <contour>
      <point x="507" y="422" type="curve" smooth="yes"/>
      <point x="529" y="422"/>
      <point x="547" y="440"/>
      <point x="547" y="462" type="curve" smooth="yes"/>
      <point x="547" y="484"/>
      <point x="529" y="502"/>
      <point x="507" y="502" type="curve" smooth="yes"/>
      <point x="485" y="502"/>
      <point x="467" y="484"/>
      <point x="467" y="462" type="curve" smooth="yes"/>
      <point x="467" y="440"/>
      <point x="485" y="422"/>
    </contour>
    <contour>
      <point x="604" y="446" type="curve" smooth="yes"/>
      <point x="626" y="446"/>
      <point x="644" y="464"/>
      <point x="644" y="486" type="curve" smooth="yes"/>
      <point x="644" y="508"/>
      <point x="626" y="526"/>
      <point x="604" y="526" type="curve" smooth="yes"/>
      <point x="582" y="526"/>
      <point x="564" y="508"/>
      <point x="564" y="486" type="curve" smooth="yes"/>
      <point x="564" y="464"/>
      <point x="582" y="446"/>
    </contour>
    <contour>
      <point x="701" y="422" type="curve" smooth="yes"/>
      <point x="723" y="422"/>
      <point x="741" y="440"/>
      <point x="741" y="462" type="curve" smooth="yes"/>
      <point x="741" y="484"/>
      <point x="723" y="502"/>
      <point x="701" y="502" type="curve" smooth="yes"/>
      <point x="679" y="502"/>
      <point x="661" y="484"/>
      <point x="661" y="462" type="curve" smooth="yes"/>
      <point x="661" y="440"/>
      <point x="679" y="422"/>
    </contour>
    <contour>
      <point x="771" y="350" type="curve" smooth="yes"/>
      <point x="793" y="350"/>
      <point x="811" y="368"/>
      <point x="811" y="390" type="curve" smooth="yes"/>
      <point x="811" y="412"/>
      <point x="793" y="430"/>
      <point x="771" y="430" type="curve" smooth="yes"/>
      <point x="749" y="430"/>
      <point x="731" y="412"/>
      <point x="731" y="390" type="curve" smooth="yes"/>
      <point x="731" y="368"/>
      <point x="749" y="350"/>
    </contour>
    <contour>
      <point x="801" y="251" type="curve" smooth="yes"/>
      <point x="823" y="251"/>
      <point x="841" y="269"/>
      <point x="841" y="291" type="curve" smooth="yes"/>
      <point x="841" y="313"/>
      <point x="823" y="331"/>
      <point x="801" y="331" type="curve" smooth="yes"/>
      <point x="779" y="331"/>
      <point x="761" y="313"/>
      <point x="761" y="291" type="curve" smooth="yes"/>
      <point x="761" y="269"/>
      <point x="779" y="251"/>
    </contour>
    <contour>
      <point x="773" y="157" type="curve" smooth="yes"/>
      <point x="795" y="157"/>
      <point x="813" y="175"/>
      <point x="813" y="197" type="curve" smooth="yes"/>
      <point x="813" y="219"/>
      <point x="795" y="237"/>
      <point x="773" y="237" type="curve" smooth="yes"/>
      <point x="751" y="237"/>
      <point x="733" y="219"/>
      <point x="733" y="197" type="curve" smooth="yes"/>
      <point x="733" y="175"/>
      <point x="751" y="157"/>
    </contour>
    <contour>
      <point x="702" y="85" type="curve" smooth="yes"/>
      <point x="724" y="85"/>
      <point x="742" y="103"/>
      <point x="742" y="125" type="curve" smooth="yes"/>
      <point x="742" y="147"/>
      <point x="724" y="165"/>
      <point x="702" y="165" type="curve" smooth="yes"/>
      <point x="680" y="165"/>
      <point x="662" y="147"/>
      <point x="662" y="125" type="curve" smooth="yes"/>
      <point x="662" y="103"/>
      <point x="680" y="85"/>
    </contour>
    <contour>
      <point x="604" y="57" type="curve" smooth="yes"/>
      <point x="626" y="57"/>
      <point x="644" y="75"/>
      <point x="644" y="97" type="curve" smooth="yes"/>
      <point x="644" y="119"/>
      <point x="626" y="137"/>
      <point x="604" y="137" type="curve" smooth="yes"/>
      <point x="582" y="137"/>
      <point x="564" y="119"/>
      <point x="564" y="97" type="curve" smooth="yes"/>
      <point x="564" y="75"/>
      <point x="582" y="57"/>
    </contour>
    <contour>
      <point x="507" y="84" type="curve" smooth="yes"/>
      <point x="529" y="84"/>
      <point x="547" y="102"/>
      <point x="547" y="124" type="curve" smooth="yes"/>
      <point x="547" y="146"/>
      <point x="529" y="164"/>
      <point x="507" y="164" type="curve" smooth="yes"/>
      <point x="485" y="164"/>
      <point x="467" y="146"/>
      <point x="467" y="124" type="curve" smooth="yes"/>
      <point x="467" y="102"/>
      <point x="485" y="84"/>
    </contour>
    <contour>
      <point x="434" y="156" type="curve" smooth="yes"/>
      <point x="456" y="156"/>
      <point x="474" y="174"/>
      <point x="474" y="196" type="curve" smooth="yes"/>
      <point x="474" y="218"/>
      <point x="456" y="236"/>
      <point x="434" y="236" type="curve" smooth="yes"/>
      <point x="412" y="236"/>
      <point x="394" y="218"/>
      <point x="394" y="196" type="curve" smooth="yes"/>
      <point x="394" y="174"/>
      <point x="412" y="156"/>
    </contour>
    <contour>
      <point x="1168" y="571" type="line"/>
      <point x="987" y="571" type="line"/>
      <point x="987" y="-126" type="line" smooth="yes"/>
      <point x="987" y="-141"/>
      <point x="969" y="-148"/>
      <point x="934" y="-148" type="curve" smooth="yes"/>
      <point x="899" y="-148"/>
      <point x="881" y="-141"/>
      <point x="881" y="-126" type="curve" smooth="yes"/>
      <point x="881" y="-122" type="line"/>
      <point x="895" y="-122" type="line"/>
      <point x="895" y="-49" type="line"/>
      <point x="700" y="-49" type="line"/>
      <point x="700" y="-126" type="line" smooth="yes"/>
      <point x="700" y="-204"/>
      <point x="778" y="-244"/>
      <point x="934" y="-244" type="curve" smooth="yes"/>
      <point x="1090" y="-244"/>
      <point x="1168" y="-205"/>
      <point x="1168" y="-127" type="curve" smooth="yes"/>
    </contour>
    <contour>
      <point x="987" y="561" type="line"/>
      <point x="1168" y="561" type="line"/>
      <point x="1168" y="670" type="line" smooth="yes"/>
      <point x="1168" y="787"/>
      <point x="1092" y="876"/>
      <point x="971" y="876" type="curve" smooth="yes"/>
      <point x="925" y="876"/>
      <point x="900" y="861"/>
      <point x="881" y="849" type="curve"/>
      <point x="881" y="967" type="line"/>
      <point x="700" y="967" type="line"/>
      <point x="700" y="723" type="line"/>
      <point x="881" y="723" type="line"/>
      <point x="890" y="734"/>
      <point x="902" y="743"/>
      <point x="925" y="743" type="curve" smooth="yes"/>
      <point x="962" y="743"/>
      <point x="987" y="716"/>
      <point x="987" y="653" type="curve" smooth="yes"/>
    </contour>
  </outline>
</glyph>
<glyph name="uni17C1" format="2">
  <advance width="327"/>
  <unicode hex="17C1"/>
  <note>
uni17C1
</note>
  <outline>
    <contour>
      <point x="263" y="374" type="line"/>
      <point x="82" y="374" type="line"/>
      <point x="82" y="50" type="line" smooth="yes"/>
      <point x="82" y="17"/>
      <point x="108" y="0"/>
      <point x="155" y="0" type="curve" smooth="yes"/>
      <point x="307" y="0" type="line"/>
      <point x="307" y="112" type="line"/>
      <point x="283" y="112" type="line" smooth="yes"/>
      <point x="266" y="112"/>
      <point x="263" y="118"/>
      <point x="263" y="135" type="curve" smooth="yes"/>
    </contour>
    <contour>
      <point x="82" y="354" type="line"/>
      <point x="263" y="354" type="line"/>
      <point x="263" y="410" type="line"/>
      <point x="201" y="473" type="line"/>
      <point x="201" y="474" type="line"/>
      <point x="271" y="474" type="line"/>
      <point x="271" y="586" type="line"/>
      <point x="104" y="586" type="line"/>
      <point x="62" y="532"/>
      <point x="40" y="504"/>
      <point x="40" y="491" type="curve" smooth="yes"/>
      <point x="40" y="482"/>
      <point x="42" y="479"/>
      <point x="82" y="426" type="curve"/>
    </contour>
  </outline>
</glyph>
<glyph name="uni17C2" format="2">
  <advance width="327"/>
  <unicode hex="17C2"/>
  <note>
uni17C2
</note>
  <outline>
    <contour>
      <point x="136" y="635" type="curve" smooth="yes"/>
      <point x="251" y="635"/>
      <point x="310" y="703"/>
      <point x="310" y="854" type="curve"/>
      <point x="192" y="854" type="line"/>
      <point x="192" y="792"/>
      <point x="189" y="725"/>
      <point x="156" y="725" type="curve" smooth="yes"/>
      <point x="147" y="725"/>
      <point x="141" y="730"/>
      <point x="141" y="738" type="curve" smooth="yes"/>
      <point x="141" y="747"/>
      <point x="148" y="752"/>
      <point x="157" y="752" type="curve"/>
      <point x="157" y="825" type="line"/>
      <point x="50" y="825"/>
      <point x="0" y="788"/>
      <point x="0" y="729" type="curve" smooth="yes"/>
      <point x="0" y="665"/>
      <point x="57" y="635"/>
    </contour>
    <contour>
      <point x="263" y="374" type="line"/>
      <point x="82" y="374" type="line"/>
      <point x="82" y="50" type="line" smooth="yes"/>
      <point x="82" y="17"/>
      <point x="108" y="0"/>
      <point x="155" y="0" type="curve" smooth="yes"/>
      <point x="307" y="0" type="line"/>
      <point x="307" y="112" type="line"/>
      <point x="283" y="112" type="line" smooth="yes"/>
      <point x="266" y="112"/>
      <point x="263" y="118"/>
      <point x="263" y="135" type="curve" smooth="yes"/>
    </contour>
    <contour>
      <point x="82" y="354" type="line"/>
      <point x="263" y="354" type="line"/>
      <point x="263" y="410" type="line"/>
      <point x="201" y="473" type="line"/>
      <point x="201" y="474" type="line"/>
      <point x="271" y="474" type="line"/>
      <point x="271" y="586" type="line"/>
      <point x="104" y="586" type="line"/>
      <point x="62" y="532"/>
      <point x="40" y="504"/>
      <point x="40" y="491" type="curve" smooth="yes"/>
      <point x="40" y="482"/>
      <point x="42" y="479"/>
      <point x="82" y="426" type="curve"/>
    </contour>
  </outline>
</glyph>
<glyph name="uni17C3" format="2">
  <advance width="346"/>
  <unicode hex="17C3"/>
  <note>
uni17C3
</note>
  <outline>
    <contour>
      <point x="26" y="635" type="line"/>
      <point x="191" y="635" type="line" smooth="yes"/>
      <point x="271" y="635"/>
      <point x="334" y="676"/>
      <point x="334" y="752" type="curve" smooth="yes"/>
      <point x="334" y="806"/>
      <point x="300" y="856"/>
      <point x="230" y="856" type="curve" smooth="yes"/>
      <point x="202" y="856"/>
      <point x="177" y="848"/>
      <point x="157" y="833" type="curve"/>
      <point x="157" y="869" type="line" smooth="yes"/>
      <point x="157" y="897"/>
      <point x="149" y="928"/>
      <point x="100" y="928" type="curve" smooth="yes"/>
      <point x="0" y="928" type="line"/>
      <point x="0" y="838" type="line"/>
      <point x="17" y="838"/>
      <point x="26" y="830"/>
      <point x="26" y="814" type="curve" smooth="yes"/>
      <point x="26" y="750" type="line"/>
      <point x="157" y="750" type="line"/>
      <point x="160" y="760"/>
      <point x="170" y="769"/>
      <point x="185" y="769" type="curve" smooth="yes"/>
      <point x="202" y="769"/>
      <point x="210" y="760"/>
      <point x="210" y="748" type="curve" smooth="yes"/>
      <point x="210" y="735"/>
      <point x="200" y="725"/>
      <point x="178" y="725" type="curve" smooth="yes"/>
      <point x="26" y="725" type="line"/>
    </contour>
    <contour>
      <point x="282" y="374" type="line"/>
      <point x="101" y="374" type="line"/>
      <point x="101" y="50" type="line" smooth="yes"/>
      <point x="101" y="17"/>
      <point x="127" y="0"/>
      <point x="174" y="0" type="curve" smooth="yes"/>
      <point x="326" y="0" type="line"/>
      <point x="326" y="112" type="line"/>
      <point x="302" y="112" type="line" smooth="yes"/>
      <point x="285" y="112"/>
      <point x="282" y="118"/>
      <point x="282" y="135" type="curve" smooth="yes"/>
    </contour>
    <contour>
      <point x="101" y="354" type="line"/>
      <point x="282" y="354" type="line"/>
      <point x="282" y="410" type="line"/>
      <point x="220" y="473" type="line"/>
      <point x="220" y="474" type="line"/>
      <point x="290" y="474" type="line"/>
      <point x="290" y="586" type="line"/>
      <point x="123" y="586" type="line"/>
      <point x="81" y="532"/>
      <point x="59" y="504"/>
      <point x="59" y="491" type="curve" smooth="yes"/>
      <point x="59" y="482"/>
      <point x="61" y="479"/>
      <point x="101" y="426" type="curve"/>
    </contour>
  </outline>
</glyph>
<glyph name="uni17C5" format="2">
  <advance width="1189"/>
  <unicode hex="17C5"/>
  <note>
uni17C5
</note>
  <outline>
    <contour>
      <point x="263" y="374" type="line"/>
      <point x="82" y="374" type="line"/>
      <point x="82" y="50" type="line" smooth="yes"/>
      <point x="82" y="17"/>
      <point x="108" y="0"/>
      <point x="155" y="0" type="curve" smooth="yes"/>
      <point x="307" y="0" type="line"/>
      <point x="307" y="112" type="line"/>
      <point x="283" y="112" type="line" smooth="yes"/>
      <point x="266" y="112"/>
      <point x="263" y="118"/>
      <point x="263" y="135" type="curve" smooth="yes"/>
    </contour>
    <contour>
      <point x="82" y="354" type="line"/>
      <point x="263" y="354" type="line"/>
      <point x="263" y="410" type="line"/>
      <point x="201" y="473" type="line"/>
      <point x="201" y="474" type="line"/>
      <point x="271" y="474" type="line"/>
      <point x="271" y="586" type="line"/>
      <point x="104" y="586" type="line"/>
      <point x="62" y="532"/>
      <point x="40" y="504"/>
      <point x="40" y="491" type="curve" smooth="yes"/>
      <point x="40" y="482"/>
      <point x="42" y="479"/>
      <point x="82" y="426" type="curve"/>
    </contour>
    <contour>
      <point x="372" y="251" type="curve" smooth="yes"/>
      <point x="394" y="251"/>
      <point x="412" y="269"/>
      <point x="412" y="291" type="curve" smooth="yes"/>
      <point x="412" y="313"/>
      <point x="394" y="331"/>
      <point x="372" y="331" type="curve" smooth="yes"/>
      <point x="350" y="331"/>
      <point x="332" y="313"/>
      <point x="332" y="291" type="curve" smooth="yes"/>
      <point x="332" y="269"/>
      <point x="350" y="251"/>
    </contour>
    <contour>
      <point x="398" y="352" type="curve" smooth="yes"/>
      <point x="420" y="352"/>
      <point x="438" y="370"/>
      <point x="438" y="392" type="curve" smooth="yes"/>
      <point x="438" y="414"/>
      <point x="420" y="432"/>
      <point x="398" y="432" type="curve" smooth="yes"/>
      <point x="376" y="432"/>
      <point x="358" y="414"/>
      <point x="358" y="392" type="curve" smooth="yes"/>
      <point x="358" y="370"/>
      <point x="376" y="352"/>
    </contour>
    <contour>
      <point x="469" y="422" type="curve" smooth="yes"/>
      <point x="491" y="422"/>
      <point x="509" y="440"/>
      <point x="509" y="462" type="curve" smooth="yes"/>
      <point x="509" y="484"/>
      <point x="491" y="502"/>
      <point x="469" y="502" type="curve" smooth="yes"/>
      <point x="447" y="502"/>
      <point x="429" y="484"/>
      <point x="429" y="462" type="curve" smooth="yes"/>
      <point x="429" y="440"/>
      <point x="447" y="422"/>
    </contour>
    <contour>
      <point x="566" y="446" type="curve" smooth="yes"/>
      <point x="588" y="446"/>
      <point x="606" y="464"/>
      <point x="606" y="486" type="curve" smooth="yes"/>
      <point x="606" y="508"/>
      <point x="588" y="526"/>
      <point x="566" y="526" type="curve" smooth="yes"/>
      <point x="544" y="526"/>
      <point x="526" y="508"/>
      <point x="526" y="486" type="curve" smooth="yes"/>
      <point x="526" y="464"/>
      <point x="544" y="446"/>
    </contour>
    <contour>
      <point x="663" y="422" type="curve" smooth="yes"/>
      <point x="685" y="422"/>
      <point x="703" y="440"/>
      <point x="703" y="462" type="curve" smooth="yes"/>
      <point x="703" y="484"/>
      <point x="685" y="502"/>
      <point x="663" y="502" type="curve" smooth="yes"/>
      <point x="641" y="502"/>
      <point x="623" y="484"/>
      <point x="623" y="462" type="curve" smooth="yes"/>
      <point x="623" y="440"/>
      <point x="641" y="422"/>
    </contour>
    <contour>
      <point x="733" y="350" type="curve" smooth="yes"/>
      <point x="755" y="350"/>
      <point x="773" y="368"/>
      <point x="773" y="390" type="curve" smooth="yes"/>
      <point x="773" y="412"/>
      <point x="755" y="430"/>
      <point x="733" y="430" type="curve" smooth="yes"/>
      <point x="711" y="430"/>
      <point x="693" y="412"/>
      <point x="693" y="390" type="curve" smooth="yes"/>
      <point x="693" y="368"/>
      <point x="711" y="350"/>
    </contour>
    <contour>
      <point x="763" y="251" type="curve" smooth="yes"/>
      <point x="785" y="251"/>
      <point x="803" y="269"/>
      <point x="803" y="291" type="curve" smooth="yes"/>
      <point x="803" y="313"/>
      <point x="785" y="331"/>
      <point x="763" y="331" type="curve" smooth="yes"/>
      <point x="741" y="331"/>
      <point x="723" y="313"/>
      <point x="723" y="291" type="curve" smooth="yes"/>
      <point x="723" y="269"/>
      <point x="741" y="251"/>
    </contour>
    <contour>
      <point x="735" y="157" type="curve" smooth="yes"/>
      <point x="757" y="157"/>
      <point x="775" y="175"/>
      <point x="775" y="197" type="curve" smooth="yes"/>
      <point x="775" y="219"/>
      <point x="757" y="237"/>
      <point x="735" y="237" type="curve" smooth="yes"/>
      <point x="713" y="237"/>
      <point x="695" y="219"/>
      <point x="695" y="197" type="curve" smooth="yes"/>
      <point x="695" y="175"/>
      <point x="713" y="157"/>
    </contour>
    <contour>
      <point x="664" y="85" type="curve" smooth="yes"/>
      <point x="686" y="85"/>
      <point x="704" y="103"/>
      <point x="704" y="125" type="curve" smooth="yes"/>
      <point x="704" y="147"/>
      <point x="686" y="165"/>
      <point x="664" y="165" type="curve" smooth="yes"/>
      <point x="642" y="165"/>
      <point x="624" y="147"/>
      <point x="624" y="125" type="curve" smooth="yes"/>
      <point x="624" y="103"/>
      <point x="642" y="85"/>
    </contour>
    <contour>
      <point x="566" y="57" type="curve" smooth="yes"/>
      <point x="588" y="57"/>
      <point x="606" y="75"/>
      <point x="606" y="97" type="curve" smooth="yes"/>
      <point x="606" y="119"/>
      <point x="588" y="137"/>
      <point x="566" y="137" type="curve" smooth="yes"/>
      <point x="544" y="137"/>
      <point x="526" y="119"/>
      <point x="526" y="97" type="curve" smooth="yes"/>
      <point x="526" y="75"/>
      <point x="544" y="57"/>
    </contour>
    <contour>
      <point x="469" y="84" type="curve" smooth="yes"/>
      <point x="491" y="84"/>
      <point x="509" y="102"/>
      <point x="509" y="124" type="curve" smooth="yes"/>
      <point x="509" y="146"/>
      <point x="491" y="164"/>
      <point x="469" y="164" type="curve" smooth="yes"/>
      <point x="447" y="164"/>
      <point x="429" y="146"/>
      <point x="429" y="124" type="curve" smooth="yes"/>
      <point x="429" y="102"/>
      <point x="447" y="84"/>
    </contour>
    <contour>
      <point x="396" y="156" type="curve" smooth="yes"/>
      <point x="418" y="156"/>
      <point x="436" y="174"/>
      <point x="436" y="196" type="curve" smooth="yes"/>
      <point x="436" y="218"/>
      <point x="418" y="236"/>
      <point x="396" y="236" type="curve" smooth="yes"/>
      <point x="374" y="236"/>
      <point x="356" y="218"/>
      <point x="356" y="196" type="curve" smooth="yes"/>
      <point x="356" y="174"/>
      <point x="374" y="156"/>
    </contour>
    <contour>
      <point x="1072" y="604" type="line"/>
      <point x="1072" y="750" type="line" smooth="yes"/>
      <point x="1072" y="821"/>
      <point x="1041" y="854"/>
      <point x="944" y="854" type="curve" smooth="yes"/>
      <point x="838" y="854" type="line"/>
      <point x="838" y="742" type="line"/>
      <point x="856" y="742" type="line" smooth="yes"/>
      <point x="884" y="742"/>
      <point x="891" y="732"/>
      <point x="891" y="705" type="curve" smooth="yes"/>
      <point x="891" y="604" type="line"/>
    </contour>
    <contour>
      <point x="924" y="0" type="line"/>
      <point x="1105" y="0" type="line"/>
      <point x="1105" y="458" type="line" smooth="yes"/>
      <point x="1105" y="539"/>
      <point x="1060" y="586"/>
      <point x="944" y="586" type="curve" smooth="yes"/>
      <point x="753" y="586" type="line"/>
      <point x="753" y="474" type="line"/>
      <point x="861" y="474" type="line" smooth="yes"/>
      <point x="910" y="474"/>
      <point x="924" y="461"/>
      <point x="924" y="413" type="curve" smooth="yes"/>
    </contour>
  </outline>
</glyph>
<glyph name="uni17C6" format="2">
  <unicode hex="17C6"/>
  <note>
uni17C6
</note>
  <outline>
    <contour>
      <point x="-297" y="684" type="curve" smooth="yes"/>
      <point x="-227" y="684"/>
      <point x="-170" y="741"/>
      <point x="-170" y="811" type="curve" smooth="yes"/>
      <point x="-170" y="881"/>
      <point x="-227" y="938"/>
      <point x="-297" y="938" type="curve" smooth="yes"/>
      <point x="-367" y="938"/>
      <point x="-424" y="881"/>
      <point x="-424" y="811" type="curve" smooth="yes"/>
      <point x="-424" y="741"/>
      <point x="-367" y="684"/>
    </contour>
    <contour>
      <point x="-297" y="777" type="curve" smooth="yes"/>
      <point x="-316" y="777"/>
      <point x="-331" y="792"/>
      <point x="-331" y="811" type="curve" smooth="yes"/>
      <point x="-331" y="830"/>
      <point x="-316" y="845"/>
      <point x="-297" y="845" type="curve" smooth="yes"/>
      <point x="-278" y="845"/>
      <point x="-263" y="830"/>
      <point x="-263" y="811" type="curve" smooth="yes"/>
      <point x="-263" y="792"/>
      <point x="-278" y="777"/>
    </contour>
  </outline>
</glyph>
<glyph name="uni17C7" format="2">
  <advance width="415"/>
  <unicode hex="17C7"/>
  <note>
uni17C7
</note>
  <outline>
    <contour>
      <point x="208" y="349" type="curve" smooth="yes"/>
      <point x="278" y="349"/>
      <point x="335" y="406"/>
      <point x="335" y="476" type="curve" smooth="yes"/>
      <point x="335" y="546"/>
      <point x="278" y="603"/>
      <point x="208" y="603" type="curve" smooth="yes"/>
      <point x="138" y="603"/>
      <point x="81" y="546"/>
      <point x="81" y="476" type="curve" smooth="yes"/>
      <point x="81" y="406"/>
      <point x="138" y="349"/>
    </contour>
    <contour>
      <point x="208" y="442" type="curve" smooth="yes"/>
      <point x="189" y="442"/>
      <point x="174" y="457"/>
      <point x="174" y="476" type="curve" smooth="yes"/>
      <point x="174" y="495"/>
      <point x="189" y="510"/>
      <point x="208" y="510" type="curve" smooth="yes"/>
      <point x="227" y="510"/>
      <point x="242" y="495"/>
      <point x="242" y="476" type="curve" smooth="yes"/>
      <point x="242" y="457"/>
      <point x="227" y="442"/>
    </contour>
    <contour>
      <point x="208" y="-17" type="curve" smooth="yes"/>
      <point x="278" y="-17"/>
      <point x="335" y="40"/>
      <point x="335" y="110" type="curve" smooth="yes"/>
      <point x="335" y="180"/>
      <point x="278" y="237"/>
      <point x="208" y="237" type="curve" smooth="yes"/>
      <point x="138" y="237"/>
      <point x="81" y="180"/>
      <point x="81" y="110" type="curve" smooth="yes"/>
      <point x="81" y="40"/>
      <point x="138" y="-17"/>
    </contour>
    <contour>
      <point x="208" y="76" type="curve" smooth="yes"/>
      <point x="189" y="76"/>
      <point x="174" y="91"/>
      <point x="174" y="110" type="curve" smooth="yes"/>
      <point x="174" y="129"/>
      <point x="189" y="144"/>
      <point x="208" y="144" type="curve" smooth="yes"/>
      <point x="227" y="144"/>
      <point x="242" y="129"/>
      <point x="242" y="110" type="curve" smooth="yes"/>
      <point x="242" y="91"/>
      <point x="227" y="76"/>
    </contour>
  </outline>
</glyph>
<glyph name="uni17C8" format="2">
  <advance width="283"/>
  <unicode hex="17C8"/>
  <note>
uni17C8
</note>
  <outline>
    <contour>
      <point x="138" y="408" type="curve" smooth="yes"/>
      <point x="173" y="408"/>
      <point x="201" y="436"/>
      <point x="201" y="471" type="curve" smooth="yes"/>
      <point x="201" y="506"/>
      <point x="173" y="534"/>
      <point x="138" y="534" type="curve" smooth="yes"/>
      <point x="103" y="534"/>
      <point x="75" y="506"/>
      <point x="75" y="471" type="curve" smooth="yes"/>
      <point x="75" y="436"/>
      <point x="103" y="408"/>
    </contour>
    <contour>
      <point x="138" y="42" type="curve" smooth="yes"/>
      <point x="173" y="42"/>
      <point x="201" y="70"/>
      <point x="201" y="105" type="curve" smooth="yes"/>
      <point x="201" y="140"/>
      <point x="173" y="168"/>
      <point x="138" y="168" type="curve" smooth="yes"/>
      <point x="103" y="168"/>
      <point x="75" y="140"/>
      <point x="75" y="105" type="curve" smooth="yes"/>
      <point x="75" y="70"/>
      <point x="103" y="42"/>
    </contour>
  </outline>
</glyph>
<glyph name="uni17C9" format="2">
  <unicode hex="17C9"/>
  <note>
uni17C9
</note>
  <outline>
    <contour>
      <point x="-435" y="684" type="line"/>
      <point x="-319" y="684" type="line"/>
      <point x="-319" y="879" type="line"/>
      <point x="-435" y="879" type="line"/>
    </contour>
    <contour>
      <point x="-275" y="684" type="line"/>
      <point x="-159" y="684" type="line"/>
      <point x="-159" y="879" type="line"/>
      <point x="-275" y="879" type="line"/>
    </contour>
  </outline>
</glyph>
<glyph name="uni17CA" format="2">
  <unicode hex="17CA"/>
  <note>
uni17CA
</note>
  <outline>
    <contour>
      <point x="-562" y="684" type="line"/>
      <point x="-33" y="684" type="line"/>
      <point x="-33" y="796" type="line"/>
      <point x="-249" y="796" type="line"/>
      <point x="-297" y="746" type="line"/>
      <point x="-345" y="796" type="line"/>
      <point x="-562" y="796" type="line"/>
    </contour>
  </outline>
</glyph>
<glyph name="uni17CC" format="2">
  <unicode hex="17CC"/>
  <note>
uni17CC
</note>
  <outline>
    <contour>
      <point x="-430" y="696" type="line"/>
      <point x="-399" y="722"/>
      <point x="-352" y="750"/>
      <point x="-304" y="750" type="curve" smooth="yes"/>
      <point x="-261" y="750"/>
      <point x="-227" y="744"/>
      <point x="-192" y="700" type="curve"/>
      <point x="-112" y="766" type="line"/>
      <point x="-156" y="820"/>
      <point x="-202" y="833"/>
      <point x="-274" y="830" type="curve"/>
      <point x="-241" y="867"/>
      <point x="-221" y="897"/>
      <point x="-210" y="927" type="curve"/>
      <point x="-307" y="958" type="line"/>
      <point x="-334" y="908"/>
      <point x="-395" y="848"/>
      <point x="-498" y="783" type="curve"/>
    </contour>
  </outline>
</glyph>
<glyph name="uni17CD" format="2">
  <unicode hex="17CD"/>
  <note>
uni17CD
</note>
  <outline>
    <contour>
      <point x="-316" y="684" type="curve" smooth="yes"/>
      <point x="-294" y="684" type="line"/>
      <point x="-294" y="769" type="line"/>
      <point x="-327" y="769" type="line" smooth="yes"/>
      <point x="-336" y="769"/>
      <point x="-342" y="775"/>
      <point x="-342" y="784" type="curve" smooth="yes"/>
      <point x="-342" y="792"/>
      <point x="-336" y="797"/>
      <point x="-325" y="797" type="curve" smooth="yes"/>
      <point x="-261" y="797" type="line" smooth="yes"/>
      <point x="-159" y="797"/>
      <point x="-92" y="855"/>
      <point x="-92" y="955" type="curve"/>
      <point x="-222" y="955" type="line"/>
      <point x="-222" y="934"/>
      <point x="-239" y="899"/>
      <point x="-272" y="899" type="curve" smooth="yes"/>
      <point x="-338" y="899" type="line" smooth="yes"/>
      <point x="-425" y="899"/>
      <point x="-496" y="875"/>
      <point x="-496" y="789" type="curve" smooth="yes"/>
      <point x="-496" y="715"/>
      <point x="-435" y="684"/>
    </contour>
  </outline>
</glyph>
<glyph name="uni17CE" format="2">
  <unicode hex="17CE"/>
  <note>
uni17CE
</note>
  <outline>
    <contour>
      <point x="-358" y="684" type="line"/>
      <point x="-236" y="684" type="line"/>
      <point x="-236" y="752" type="line"/>
      <point x="-172" y="752" type="line"/>
      <point x="-172" y="866" type="line"/>
      <point x="-236" y="866" type="line"/>
      <point x="-236" y="934" type="line"/>
      <point x="-358" y="934" type="line"/>
      <point x="-358" y="866" type="line"/>
      <point x="-422" y="866" type="line"/>
      <point x="-422" y="752" type="line"/>
      <point x="-358" y="752" type="line"/>
    </contour>
  </outline>
</glyph>
<glyph name="uni17CF" format="2">
  <unicode hex="17CF"/>
  <note>
uni17CF
</note>
  <outline>
    <contour>
      <point x="-536" y="684" type="line"/>
      <point x="-376" y="684" type="line"/>
      <point x="-298" y="720" type="line"/>
      <point x="-220" y="684" type="line"/>
      <point x="-59" y="684" type="line"/>
      <point x="-59" y="812" type="line"/>
      <point x="-220" y="812" type="line"/>
      <point x="-220" y="793" type="line"/>
      <point x="-297" y="813" type="line"/>
      <point x="-376" y="794" type="line"/>
      <point x="-376" y="800" type="line" smooth="yes"/>
      <point x="-376" y="830"/>
      <point x="-356" y="833"/>
      <point x="-342" y="833" type="curve" smooth="yes"/>
      <point x="-203" y="833" type="line" smooth="yes"/>
      <point x="-112" y="833"/>
      <point x="-50" y="898"/>
      <point x="-50" y="977" type="curve" smooth="yes"/>
      <point x="-50" y="989" type="line"/>
      <point x="-211" y="989" type="line"/>
      <point x="-211" y="957"/>
      <point x="-248" y="935"/>
      <point x="-304" y="935" type="curve" smooth="yes"/>
      <point x="-371" y="935" type="line" smooth="yes"/>
      <point x="-483" y="935"/>
      <point x="-536" y="893"/>
      <point x="-536" y="800" type="curve" smooth="yes"/>
    </contour>
  </outline>
</glyph>
<glyph name="uni17D0" format="2">
  <unicode hex="17D0"/>
  <note>
uni17D0
</note>
  <outline>
    <contour>
      <point x="-318.2" y="701" type="curve" smooth="yes"/>
      <point x="-147.2" y="701"/>
      <point x="-67.1" y="786"/>
      <point x="-67.1" y="921" type="curve"/>
      <point x="-218.3" y="921" type="line"/>
      <point x="-218.3" y="834"/>
      <point x="-257" y="796"/>
      <point x="-308.3" y="796" type="curve" smooth="yes"/>
      <point x="-337.1" y="796"/>
      <point x="-345.2" y="801"/>
      <point x="-345.2" y="811" type="curve" smooth="yes"/>
      <point x="-345.2" y="821"/>
      <point x="-334.4" y="825"/>
      <point x="-301.1" y="824" type="curve"/>
      <point x="-301.1" y="920" type="line"/>
      <point x="-431.6" y="920"/>
      <point x="-486.5" y="893"/>
      <point x="-486.5" y="811" type="curve" smooth="yes"/>
      <point x="-486.5" y="732"/>
      <point x="-396.5" y="701"/>
    </contour>
  </outline>
</glyph>
<glyph name="uni17D2" format="2">
  <unicode hex="17D2"/>
  <note>
uni17D2
</note>
  <outline>
    <contour>
      <point x="-346" y="-244" type="line"/>
      <point x="-245" y="-244" type="line"/>
      <point x="-245" y="-182" type="line"/>
      <point x="-162" y="-182" type="line"/>
      <point x="-162" y="-86" type="line"/>
      <point x="-245" y="-86" type="line"/>
      <point x="-245" y="-24" type="line"/>
      <point x="-346" y="-24" type="line"/>
      <point x="-346" y="-86" type="line"/>
      <point x="-431" y="-86" type="line"/>
      <point x="-431" y="-182" type="line"/>
      <point x="-346" y="-182" type="line"/>
    </contour>
  </outline>
</glyph>
<glyph name="uni17D3" format="2">
  <unicode hex="17D3"/>
  <note>
uni17D3
</note>
  <outline>
    <contour>
      <point x="-297" y="685" type="curve" smooth="yes"/>
      <point x="-200" y="685"/>
      <point x="-102" y="727"/>
      <point x="-102" y="807" type="curve" smooth="yes"/>
      <point x="-102" y="886"/>
      <point x="-198" y="929"/>
      <point x="-297" y="929" type="curve" smooth="yes"/>
      <point x="-394" y="929"/>
      <point x="-493" y="885"/>
      <point x="-493" y="807" type="curve" smooth="yes"/>
      <point x="-493" y="733"/>
      <point x="-398" y="685"/>
    </contour>
    <contour>
      <point x="-296" y="781" type="curve" smooth="yes"/>
      <point x="-320" y="781"/>
      <point x="-336" y="791"/>
      <point x="-336" y="807" type="curve" smooth="yes"/>
      <point x="-336" y="822"/>
      <point x="-320" y="833"/>
      <point x="-296" y="833" type="curve" smooth="yes"/>
      <point x="-272" y="833"/>
      <point x="-256" y="822"/>
      <point x="-256" y="807" type="curve" smooth="yes"/>
      <point x="-256" y="791"/>
      <point x="-272" y="781"/>
    </contour>
  </outline>
</glyph>
<glyph name="uni17D5" format="2">
  <advance width="820"/>
  <unicode hex="17D5"/>
  <note>
uni17D5
</note>
  <outline>
    <contour>
      <point x="586" y="0" type="line"/>
      <point x="767" y="0" type="line"/>
      <point x="767" y="586" type="line"/>
      <point x="586" y="586" type="line"/>
    </contour>
    <contour>
      <point x="353" y="0" type="line"/>
      <point x="534" y="0" type="line"/>
      <point x="534" y="586" type="line"/>
      <point x="353" y="586" type="line"/>
      <point x="346" y="499"/>
      <point x="304" y="422"/>
      <point x="246" y="422" type="curve" smooth="yes"/>
      <point x="233" y="422"/>
      <point x="225" y="427"/>
      <point x="225" y="439" type="curve" smooth="yes"/>
      <point x="225" y="450"/>
      <point x="232" y="456"/>
      <point x="242" y="456" type="curve" smooth="yes"/>
      <point x="247" y="456" type="line"/>
      <point x="247" y="586" type="line"/>
      <point x="208" y="586" type="line" smooth="yes"/>
      <point x="95" y="586"/>
      <point x="53" y="525"/>
      <point x="53" y="450" type="curve" smooth="yes"/>
      <point x="53" y="353"/>
      <point x="145" y="299"/>
      <point x="212" y="299" type="curve" smooth="yes"/>
      <point x="290" y="299"/>
      <point x="319" y="322"/>
      <point x="353" y="356" type="curve"/>
    </contour>
  </outline>
</glyph>
<glyph name="uni17D6" format="2">
  <advance width="478"/>
  <unicode hex="17D6"/>
  <note>
uni17D6
</note>
  <outline>
    <contour>
      <point x="81" y="257" type="line"/>
      <point x="398" y="257" type="line"/>
      <point x="398" y="361" type="line"/>
      <point x="81" y="361" type="line"/>
    </contour>
    <contour>
      <point x="240" y="-19" type="curve" smooth="yes"/>
      <point x="310" y="-19"/>
      <point x="367" y="38"/>
      <point x="367" y="108" type="curve" smooth="yes"/>
      <point x="367" y="178"/>
      <point x="310" y="235"/>
      <point x="240" y="235" type="curve" smooth="yes"/>
      <point x="170" y="235"/>
      <point x="113" y="178"/>
      <point x="113" y="108" type="curve" smooth="yes"/>
      <point x="113" y="38"/>
      <point x="170" y="-19"/>
    </contour>
    <contour>
      <point x="240" y="74" type="curve" smooth="yes"/>
      <point x="221" y="74"/>
      <point x="206" y="89"/>
      <point x="206" y="108" type="curve" smooth="yes"/>
      <point x="206" y="127"/>
      <point x="221" y="142"/>
      <point x="240" y="142" type="curve" smooth="yes"/>
      <point x="259" y="142"/>
      <point x="274" y="127"/>
      <point x="274" y="108" type="curve" smooth="yes"/>
      <point x="274" y="89"/>
      <point x="259" y="74"/>
    </contour>
    <contour>
      <point x="240" y="378" type="curve" smooth="yes"/>
      <point x="310" y="378"/>
      <point x="367" y="435"/>
      <point x="367" y="505" type="curve" smooth="yes"/>
      <point x="367" y="575"/>
      <point x="310" y="632"/>
      <point x="240" y="632" type="curve" smooth="yes"/>
      <point x="170" y="632"/>
      <point x="113" y="575"/>
      <point x="113" y="505" type="curve" smooth="yes"/>
      <point x="113" y="435"/>
      <point x="170" y="378"/>
    </contour>
    <contour>
      <point x="240" y="471" type="curve" smooth="yes"/>
      <point x="221" y="471"/>
      <point x="206" y="486"/>
      <point x="206" y="505" type="curve" smooth="yes"/>
      <point x="206" y="524"/>
      <point x="221" y="539"/>
      <point x="240" y="539" type="curve" smooth="yes"/>
      <point x="259" y="539"/>
      <point x="274" y="524"/>
      <point x="274" y="505" type="curve" smooth="yes"/>
      <point x="274" y="486"/>
      <point x="259" y="471"/>
    </contour>
  </outline>
</glyph>
<glyph name="uni17D7" format="2">
  <advance width="586"/>
  <unicode hex="17D7"/>
  <note>
uni17D7
</note>
  <outline>
    <contour>
      <point x="269" y="-195" type="line"/>
      <point x="284" y="-195" type="line" smooth="yes"/>
      <point x="483" y="-195"/>
      <point x="534" y="-182"/>
      <point x="534" y="-54" type="curve" smooth="yes"/>
      <point x="534" y="586" type="line"/>
      <point x="353" y="586" type="line"/>
      <point x="348" y="560"/>
      <point x="329" y="533"/>
      <point x="303" y="533" type="curve" smooth="yes"/>
      <point x="275" y="533"/>
      <point x="249" y="586"/>
      <point x="173" y="586" type="curve" smooth="yes"/>
      <point x="99" y="586"/>
      <point x="30" y="545"/>
      <point x="30" y="457" type="curve" smooth="yes"/>
      <point x="30" y="376"/>
      <point x="75" y="314"/>
      <point x="182" y="314" type="curve" smooth="yes"/>
      <point x="214" y="314" type="line"/>
      <point x="214" y="428" type="line"/>
      <point x="205" y="428" type="line" smooth="yes"/>
      <point x="184" y="428"/>
      <point x="169" y="435"/>
      <point x="169" y="452" type="curve" smooth="yes"/>
      <point x="169" y="464"/>
      <point x="177" y="473"/>
      <point x="196" y="473" type="curve" smooth="yes"/>
      <point x="243" y="473"/>
      <point x="238" y="415"/>
      <point x="300" y="415" type="curve" smooth="yes"/>
      <point x="329" y="415"/>
      <point x="342" y="430"/>
      <point x="350" y="440" type="curve"/>
      <point x="353" y="440" type="line"/>
      <point x="353" y="-19" type="line" smooth="yes"/>
      <point x="353" y="-48"/>
      <point x="330" y="-63"/>
      <point x="283" y="-65" type="curve" smooth="yes"/>
      <point x="269" y="-65" type="line"/>
    </contour>
  </outline>
</glyph>
<glyph name="uni17D8" format="2">
  <advance width="2212"/>
  <unicode hex="17D8"/>
  <note>
uni17D8
</note>
  <outline>
    <contour>
      <point x="353" y="0" type="line"/>
      <point x="534" y="0" type="line"/>
      <point x="534" y="586" type="line"/>
      <point x="353" y="586" type="line"/>
      <point x="346" y="499"/>
      <point x="304" y="422"/>
      <point x="246" y="422" type="curve" smooth="yes"/>
      <point x="233" y="422"/>
      <point x="225" y="427"/>
      <point x="225" y="439" type="curve" smooth="yes"/>
      <point x="225" y="450"/>
      <point x="232" y="456"/>
      <point x="242" y="456" type="curve" smooth="yes"/>
      <point x="247" y="456" type="line"/>
      <point x="247" y="586" type="line"/>
      <point x="208" y="586" type="line" smooth="yes"/>
      <point x="95" y="586"/>
      <point x="53" y="525"/>
      <point x="53" y="450" type="curve" smooth="yes"/>
      <point x="53" y="353"/>
      <point x="145" y="299"/>
      <point x="212" y="299" type="curve" smooth="yes"/>
      <point x="290" y="299"/>
      <point x="319" y="322"/>
      <point x="353" y="356" type="curve"/>
    </contour>
    <contour>
      <point x="1515" y="374" type="line"/>
      <point x="1334" y="374" type="line"/>
      <point x="1334" y="178" type="line" smooth="yes"/>
      <point x="1334" y="147"/>
      <point x="1313" y="112"/>
      <point x="1267" y="112" type="curve" smooth="yes"/>
      <point x="1221" y="112"/>
      <point x="1198" y="147"/>
      <point x="1198" y="178" type="curve" smooth="yes"/>
      <point x="1198" y="428" type="line" smooth="yes"/>
      <point x="1198" y="533"/>
      <point x="1114" y="586"/>
      <point x="947" y="586" type="curve" smooth="yes"/>
      <point x="779" y="586"/>
      <point x="695" y="533"/>
      <point x="695" y="428" type="curve" smooth="yes"/>
      <point x="695" y="251" type="line"/>
      <point x="876" y="251" type="line"/>
      <point x="876" y="418" type="line" smooth="yes"/>
      <point x="876" y="449"/>
      <point x="900" y="474"/>
      <point x="947" y="474" type="curve" smooth="yes"/>
      <point x="994" y="474"/>
      <point x="1018" y="449"/>
      <point x="1018" y="418" type="curve" smooth="yes"/>
      <point x="1018" y="158" type="line" smooth="yes"/>
      <point x="1018" y="53"/>
      <point x="1101" y="0"/>
      <point x="1267" y="0" type="curve" smooth="yes"/>
      <point x="1432" y="0"/>
      <point x="1515" y="53"/>
      <point x="1515" y="158" type="curve" smooth="yes"/>
    </contour>
    <contour>
      <point x="695" y="262" type="line"/>
      <point x="695" y="70" type="line" smooth="yes"/>
      <point x="695" y="19"/>
      <point x="717" y="0"/>
      <point x="791" y="0" type="curve" smooth="yes"/>
      <point x="852" y="0" type="line" smooth="yes"/>
      <point x="945" y="0"/>
      <point x="1000" y="49"/>
      <point x="1000" y="122" type="curve" smooth="yes"/>
      <point x="1000" y="207"/>
      <point x="955" y="240"/>
      <point x="876" y="241" type="curve"/>
      <point x="876" y="262" type="line" smooth="yes"/>
    </contour>
    <contour>
      <point x="876" y="80" type="curve"/>
      <point x="876" y="164" type="line"/>
      <point x="891" y="164"/>
      <point x="904" y="150"/>
      <point x="904" y="123" type="curve" smooth="yes"/>
      <point x="904" y="98"/>
      <point x="889" y="80"/>
    </contour>
    <contour>
      <point x="1334" y="354" type="line"/>
      <point x="1515" y="354" type="line"/>
      <point x="1515" y="410" type="line"/>
      <point x="1453" y="473" type="line"/>
      <point x="1453" y="474" type="line"/>
      <point x="1523" y="474" type="line"/>
      <point x="1523" y="586" type="line"/>
      <point x="1356" y="586" type="line"/>
      <point x="1314" y="532"/>
      <point x="1292" y="504"/>
      <point x="1292" y="491" type="curve" smooth="yes"/>
      <point x="1292" y="482"/>
      <point x="1294" y="479"/>
      <point x="1334" y="426" type="curve"/>
    </contour>
    <contour>
      <point x="1896" y="0" type="line"/>
      <point x="2077" y="0" type="line"/>
      <point x="2077" y="586" type="line"/>
      <point x="1896" y="586" type="line"/>
      <point x="1889" y="499"/>
      <point x="1847" y="422"/>
      <point x="1789" y="422" type="curve" smooth="yes"/>
      <point x="1776" y="422"/>
      <point x="1768" y="427"/>
      <point x="1768" y="439" type="curve" smooth="yes"/>
      <point x="1768" y="450"/>
      <point x="1775" y="456"/>
      <point x="1785" y="456" type="curve" smooth="yes"/>
      <point x="1790" y="456" type="line"/>
      <point x="1790" y="586" type="line"/>
      <point x="1751" y="586" type="line" smooth="yes"/>
      <point x="1638" y="586"/>
      <point x="1596" y="525"/>
      <point x="1596" y="450" type="curve" smooth="yes"/>
      <point x="1596" y="353"/>
      <point x="1688" y="299"/>
      <point x="1755" y="299" type="curve" smooth="yes"/>
      <point x="1833" y="299"/>
      <point x="1862" y="322"/>
      <point x="1896" y="356" type="curve"/>
    </contour>
  </outline>
</glyph>
<glyph name="uni17D9" format="2">
  <advance width="732"/>
  <unicode hex="17D9"/>
  <note>
uni17D9
</note>
  <outline>
    <contour>
      <point x="366" y="-18" type="curve" smooth="yes"/>
      <point x="548" y="-18"/>
      <point x="671" y="103"/>
      <point x="671" y="293" type="curve" smooth="yes"/>
      <point x="671" y="483"/>
      <point x="551" y="604"/>
      <point x="366" y="604" type="curve" smooth="yes"/>
      <point x="179" y="604"/>
      <point x="62" y="481"/>
      <point x="62" y="293" type="curve" smooth="yes"/>
      <point x="62" y="106"/>
      <point x="181" y="-18"/>
    </contour>
    <contour>
      <point x="366" y="80" type="curve" smooth="yes"/>
      <point x="247" y="80"/>
      <point x="190" y="150"/>
      <point x="190" y="293" type="curve" smooth="yes"/>
      <point x="190" y="436"/>
      <point x="247" y="506"/>
      <point x="366" y="506" type="curve" smooth="yes"/>
      <point x="484" y="506"/>
      <point x="543" y="435"/>
      <point x="543" y="293" type="curve" smooth="yes"/>
      <point x="543" y="151"/>
      <point x="484" y="80"/>
    </contour>
    <contour>
      <point x="366" y="104" type="curve" smooth="yes"/>
      <point x="458" y="104"/>
      <point x="513" y="165"/>
      <point x="513" y="293" type="curve" smooth="yes"/>
      <point x="513" y="421"/>
      <point x="458" y="482"/>
      <point x="366" y="482" type="curve" smooth="yes"/>
      <point x="275" y="482"/>
      <point x="219" y="421"/>
      <point x="219" y="293" type="curve" smooth="yes"/>
      <point x="219" y="165"/>
      <point x="275" y="104"/>
    </contour>
    <contour>
      <point x="366" y="195" type="curve" smooth="yes"/>
      <point x="331" y="195"/>
      <point x="322" y="228"/>
      <point x="322" y="293" type="curve" smooth="yes"/>
      <point x="322" y="354"/>
      <point x="329" y="389"/>
      <point x="366" y="389" type="curve" smooth="yes"/>
      <point x="403" y="389"/>
      <point x="411" y="357"/>
      <point x="411" y="293" type="curve" smooth="yes"/>
      <point x="411" y="233"/>
      <point x="403" y="195"/>
    </contour>
  </outline>
</glyph>
<glyph name="uni17DA" format="2">
  <advance width="1369"/>
  <unicode hex="17DA"/>
  <note>
uni17DA
</note>
  <outline>
    <contour>
      <point x="343" y="0" type="curve" smooth="yes"/>
      <point x="472" y="0"/>
      <point x="563" y="83"/>
      <point x="643" y="265" type="curve" smooth="yes"/>
      <point x="702" y="400" type="line"/>
      <point x="795" y="35" type="line"/>
      <point x="948" y="35" type="line"/>
      <point x="1013" y="345" type="line"/>
      <point x="1069" y="106" type="line"/>
      <point x="1194" y="106" type="line"/>
      <point x="1245" y="237" type="line"/>
      <point x="1319" y="237" type="line"/>
      <point x="1319" y="344" type="line"/>
      <point x="1186" y="344" type="line"/>
      <point x="1140" y="233" type="line"/>
      <point x="1080" y="496" type="line"/>
      <point x="945" y="496" type="line"/>
      <point x="873" y="190" type="line"/>
      <point x="766" y="549" type="line"/>
      <point x="665" y="549" type="line"/>
      <point x="530" y="292" type="line" smooth="yes"/>
      <point x="465" y="168"/>
      <point x="438" y="117"/>
      <point x="356" y="117" type="curve" smooth="yes"/>
      <point x="276" y="117"/>
      <point x="243" y="204"/>
      <point x="243" y="295" type="curve" smooth="yes"/>
      <point x="243" y="409"/>
      <point x="291" y="469"/>
      <point x="348" y="469" type="curve" smooth="yes"/>
      <point x="381" y="469"/>
      <point x="396" y="454"/>
      <point x="396" y="430" type="curve" smooth="yes"/>
      <point x="396" y="402"/>
      <point x="377" y="388"/>
      <point x="333" y="388" type="curve"/>
      <point x="333" y="288" type="line"/>
      <point x="472" y="288"/>
      <point x="507" y="345"/>
      <point x="507" y="430" type="curve" smooth="yes"/>
      <point x="507" y="521"/>
      <point x="449" y="584"/>
      <point x="330" y="584" type="curve" smooth="yes"/>
      <point x="170" y="584"/>
      <point x="62" y="471"/>
      <point x="62" y="296" type="curve" smooth="yes"/>
      <point x="62" y="117"/>
      <point x="178" y="0"/>
    </contour>
  </outline>
</glyph>
<glyph name="uni17DB" format="2">
  <advance width="415"/>
  <unicode hex="17DB"/>
  <note>
uni17DB
</note>
  <outline>
    <contour>
      <point x="109" y="247" type="line"/>
      <point x="375" y="247" type="line"/>
      <point x="375" y="359" type="line"/>
      <point x="109" y="359" type="line"/>
    </contour>
    <contour>
      <point x="156" y="354" type="line"/>
      <point x="337" y="354" type="line"/>
      <point x="337" y="402" type="line"/>
      <point x="270" y="473" type="line"/>
      <point x="270" y="474" type="line"/>
      <point x="347" y="474" type="line"/>
      <point x="347" y="586" type="line"/>
      <point x="155" y="586" type="line"/>
      <point x="95" y="512"/>
      <point x="71" y="482"/>
      <point x="71" y="467" type="curve" smooth="yes"/>
      <point x="71" y="453"/>
      <point x="99" y="427"/>
      <point x="156" y="373" type="curve"/>
    </contour>
    <contour>
      <point x="337" y="375" type="line"/>
      <point x="156" y="375" type="line"/>
      <point x="156" y="229" type="line"/>
      <point x="103" y="229"/>
      <point x="46" y="188"/>
      <point x="46" y="114" type="curve" smooth="yes"/>
      <point x="46" y="30"/>
      <point x="97" y="0"/>
      <point x="162" y="0" type="curve" smooth="yes"/>
      <point x="237" y="0" type="line" smooth="yes"/>
      <point x="317" y="0"/>
      <point x="337" y="42"/>
      <point x="337" y="109" type="curve" smooth="yes"/>
    </contour>
    <contour>
      <point x="156" y="77" type="line"/>
      <point x="147" y="77"/>
      <point x="128" y="85"/>
      <point x="128" y="115" type="curve" smooth="yes"/>
      <point x="128" y="141"/>
      <point x="148" y="150"/>
      <point x="156" y="151" type="curve"/>
    </contour>
  </outline>
</glyph>
<glyph name="uni17DC" format="2">
  <advance width="724"/>
  <unicode hex="17DC"/>
  <note>
uni17DC
</note>
  <outline>
    <contour>
      <point x="336" y="0" type="curve" smooth="yes"/>
      <point x="510" y="0"/>
      <point x="624" y="72"/>
      <point x="624" y="201" type="curve" smooth="yes"/>
      <point x="624" y="310"/>
      <point x="505" y="361"/>
      <point x="403" y="384" type="curve" smooth="yes"/>
      <point x="320" y="403"/>
      <point x="281" y="413"/>
      <point x="281" y="481" type="curve" smooth="yes"/>
      <point x="281" y="542"/>
      <point x="324" y="574"/>
      <point x="376" y="574" type="curve" smooth="yes"/>
      <point x="422" y="574"/>
      <point x="451" y="562"/>
      <point x="451" y="539" type="curve" smooth="yes"/>
      <point x="451" y="522"/>
      <point x="442" y="516"/>
      <point x="431" y="516" type="curve"/>
      <point x="431" y="419" type="line"/>
      <point x="490" y="419"/>
      <point x="618" y="443"/>
      <point x="618" y="541" type="curve" smooth="yes"/>
      <point x="618" y="618"/>
      <point x="534" y="684"/>
      <point x="367" y="684" type="curve" smooth="yes"/>
      <point x="219" y="684"/>
      <point x="100" y="614"/>
      <point x="100" y="488" type="curve" smooth="yes"/>
      <point x="100" y="375"/>
      <point x="209" y="307"/>
      <point x="323" y="281" type="curve" smooth="yes"/>
      <point x="422" y="258"/>
      <point x="444" y="233"/>
      <point x="444" y="191" type="curve" smooth="yes"/>
      <point x="444" y="142"/>
      <point x="403" y="110"/>
      <point x="336" y="110" type="curve" smooth="yes"/>
      <point x="287" y="110"/>
      <point x="255" y="123"/>
      <point x="255" y="144" type="curve" smooth="yes"/>
      <point x="255" y="164"/>
      <point x="265" y="172"/>
      <point x="284" y="172" type="curve"/>
      <point x="284" y="262" type="line"/>
      <point x="203" y="262"/>
      <point x="100" y="250"/>
      <point x="100" y="146" type="curve" smooth="yes"/>
      <point x="100" y="68"/>
      <point x="177" y="0"/>
    </contour>
  </outline>
</glyph>
<glyph name="uni17DD" format="2">
  <unicode hex="17DD"/>
  <note>
uni17DD
</note>
  <outline>
    <contour>
      <point x="-563" y="685" type="curve"/>
      <point x="-402" y="685" type="line"/>
      <point x="-402" y="730"/>
      <point x="-375" y="754"/>
      <point x="-310" y="754" type="curve" smooth="yes"/>
      <point x="-245" y="754"/>
      <point x="-217" y="730"/>
      <point x="-217" y="685" type="curve"/>
      <point x="-56" y="685" type="line"/>
      <point x="-56" y="823"/>
      <point x="-178" y="856"/>
      <point x="-310" y="856" type="curve" smooth="yes"/>
      <point x="-442" y="856"/>
      <point x="-563" y="823"/>
    </contour>
  </outline>
</glyph>
<glyph name="uni17E0" format="2">
  <advance width="697"/>
  <unicode hex="17E0"/>
  <note>
uni17E0
</note>
  <outline>
    <contour>
      <point x="348" y="0" type="curve" smooth="yes"/>
      <point x="525" y="0"/>
      <point x="613" y="62"/>
      <point x="613" y="186" type="curve" smooth="yes"/>
      <point x="613" y="400" type="line" smooth="yes"/>
      <point x="613" y="524"/>
      <point x="525" y="586"/>
      <point x="348" y="586" type="curve" smooth="yes"/>
      <point x="172" y="586"/>
      <point x="84" y="524"/>
      <point x="84" y="400" type="curve" smooth="yes"/>
      <point x="84" y="186" type="line" smooth="yes"/>
      <point x="84" y="62"/>
      <point x="172" y="0"/>
    </contour>
    <contour>
      <point x="348" y="112" type="curve" smooth="yes"/>
      <point x="293" y="112"/>
      <point x="265" y="137"/>
      <point x="265" y="186" type="curve" smooth="yes"/>
      <point x="265" y="400" type="line" smooth="yes"/>
      <point x="265" y="449"/>
      <point x="293" y="474"/>
      <point x="348" y="474" type="curve" smooth="yes"/>
      <point x="405" y="474"/>
      <point x="433" y="449"/>
      <point x="433" y="400" type="curve" smooth="yes"/>
      <point x="433" y="186" type="line" smooth="yes"/>
      <point x="433" y="137"/>
      <point x="405" y="112"/>
    </contour>
  </outline>
</glyph>
<glyph name="uni17E1" format="2">
  <advance width="697"/>
  <unicode hex="17E1"/>
  <note>
uni17E1
</note>
  <outline>
    <contour>
      <point x="348" y="0" type="curve" smooth="yes"/>
      <point x="525" y="0"/>
      <point x="613" y="52"/>
      <point x="613" y="156" type="curve" smooth="yes"/>
      <point x="613" y="430" type="line" smooth="yes"/>
      <point x="613" y="534"/>
      <point x="525" y="586"/>
      <point x="348" y="586" type="curve" smooth="yes"/>
      <point x="172" y="586"/>
      <point x="84" y="534"/>
      <point x="84" y="430" type="curve" smooth="yes"/>
      <point x="84" y="371" type="line" smooth="yes"/>
      <point x="84" y="270"/>
      <point x="150" y="252"/>
      <point x="234" y="252" type="curve" smooth="yes"/>
      <point x="348" y="252" type="line"/>
      <point x="348" y="382" type="line"/>
      <point x="304" y="382" type="line" smooth="yes"/>
      <point x="265" y="382"/>
      <point x="265" y="403"/>
      <point x="265" y="421" type="curve" smooth="yes"/>
      <point x="265" y="430" type="line" smooth="yes"/>
      <point x="265" y="459"/>
      <point x="293" y="474"/>
      <point x="348" y="474" type="curve" smooth="yes"/>
      <point x="405" y="474"/>
      <point x="433" y="459"/>
      <point x="433" y="430" type="curve" smooth="yes"/>
      <point x="433" y="156" type="line" smooth="yes"/>
      <point x="433" y="127"/>
      <point x="405" y="112"/>
      <point x="348" y="112" type="curve" smooth="yes"/>
      <point x="293" y="112"/>
      <point x="265" y="128"/>
      <point x="265" y="157" type="curve"/>
      <point x="84" y="157" type="line"/>
      <point x="84" y="53"/>
      <point x="172" y="0"/>
    </contour>
  </outline>
</glyph>
<glyph name="uni17E2" format="2">
  <advance width="889"/>
  <unicode hex="17E2"/>
  <note>
uni17E2
</note>
  <outline>
    <contour>
      <point x="453" y="0" type="curve" smooth="yes"/>
      <point x="688" y="0"/>
      <point x="805" y="65"/>
      <point x="805" y="195" type="curve" smooth="yes"/>
      <point x="805" y="586" type="line"/>
      <point x="624" y="586" type="line"/>
      <point x="566" y="544" type="line"/>
      <point x="513" y="586" type="line"/>
      <point x="327" y="586" type="line"/>
      <point x="327" y="293" type="line"/>
      <point x="527" y="293" type="line"/>
      <point x="527" y="405" type="line"/>
      <point x="513" y="405" type="line"/>
      <point x="513" y="459" type="line"/>
      <point x="566" y="419" type="line"/>
      <point x="624" y="459" type="line"/>
      <point x="624" y="195" type="line" smooth="yes"/>
      <point x="624" y="139"/>
      <point x="568" y="112"/>
      <point x="453" y="112" type="curve" smooth="yes"/>
      <point x="338" y="112"/>
      <point x="280" y="140"/>
      <point x="280" y="195" type="curve" smooth="yes"/>
      <point x="280" y="647" type="line" smooth="yes"/>
      <point x="280" y="684"/>
      <point x="272" y="708"/>
      <point x="221" y="708" type="curve" smooth="yes"/>
      <point x="50" y="708" type="line"/>
      <point x="50" y="596" type="line"/>
      <point x="99" y="596" type="line"/>
      <point x="99" y="195" type="line" smooth="yes"/>
      <point x="99" y="65"/>
      <point x="217" y="0"/>
    </contour>
  </outline>
</glyph>
<glyph name="uni17E3" format="2">
  <advance width="922"/>
  <unicode hex="17E3"/>
  <note>
uni17E3
</note>
  <outline>
    <contour>
      <point x="84" y="0" type="line"/>
      <point x="304" y="0" type="line"/>
      <point x="304" y="112" type="line"/>
      <point x="265" y="112" type="line"/>
      <point x="265" y="423" type="line" smooth="yes"/>
      <point x="265" y="458"/>
      <point x="283" y="474"/>
      <point x="318" y="474" type="curve" smooth="yes"/>
      <point x="353" y="474"/>
      <point x="371" y="458"/>
      <point x="371" y="423" type="curve" smooth="yes"/>
      <point x="371" y="0" type="line"/>
      <point x="551" y="0" type="line"/>
      <point x="551" y="423" type="line" smooth="yes"/>
      <point x="551" y="458"/>
      <point x="569" y="474"/>
      <point x="605" y="474" type="curve" smooth="yes"/>
      <point x="640" y="474"/>
      <point x="658" y="458"/>
      <point x="658" y="423" type="curve" smooth="yes"/>
      <point x="658" y="0" type="line"/>
      <point x="838" y="0" type="line"/>
      <point x="838" y="410" type="line" smooth="yes"/>
      <point x="838" y="527"/>
      <point x="760" y="586"/>
      <point x="605" y="586" type="curve" smooth="yes"/>
      <point x="540" y="586"/>
      <point x="492" y="571"/>
      <point x="461" y="542" type="curve"/>
      <point x="430" y="571"/>
      <point x="382" y="586"/>
      <point x="318" y="586" type="curve" smooth="yes"/>
      <point x="162" y="586"/>
      <point x="84" y="529"/>
      <point x="84" y="415" type="curve" smooth="yes"/>
    </contour>
  </outline>
</glyph>
<glyph name="uni17E4" format="2">
  <advance width="718"/>
  <unicode hex="17E4"/>
  <note>
uni17E4
</note>
  <outline>
    <contour>
      <point x="361" y="0" type="curve" smooth="yes"/>
      <point x="600" y="0" type="line"/>
      <point x="634" y="89" type="line"/>
      <point x="565" y="243" type="line"/>
      <point x="565" y="327" type="line"/>
      <point x="626" y="327" type="line"/>
      <point x="626" y="458" type="line"/>
      <point x="571" y="458" type="line" smooth="yes"/>
      <point x="472" y="458"/>
      <point x="386" y="454"/>
      <point x="386" y="391" type="curve" smooth="yes"/>
      <point x="386" y="219" type="line"/>
      <point x="473" y="112" type="line"/>
      <point x="361" y="112" type="line" smooth="yes"/>
      <point x="306" y="112"/>
      <point x="278" y="140"/>
      <point x="278" y="195" type="curve" smooth="yes"/>
      <point x="278" y="640" type="line" smooth="yes"/>
      <point x="278" y="689"/>
      <point x="256" y="713"/>
      <point x="203" y="713" type="curve" smooth="yes"/>
      <point x="48" y="713" type="line"/>
      <point x="48" y="601" type="line"/>
      <point x="97" y="601" type="line"/>
      <point x="97" y="195" type="line" smooth="yes"/>
      <point x="97" y="65"/>
      <point x="185" y="0"/>
    </contour>
  </outline>
</glyph>
<glyph name="uni17E5" format="2">
  <advance width="681"/>
  <unicode hex="17E5"/>
  <note>
uni17E5
</note>
  <outline>
    <contour>
      <point x="348" y="0" type="curve" smooth="yes"/>
      <point x="586" y="0" type="line"/>
      <point x="621" y="89" type="line"/>
      <point x="554" y="194" type="line"/>
      <point x="554" y="260" type="line"/>
      <point x="613" y="260" type="line"/>
      <point x="613" y="391" type="line"/>
      <point x="465" y="391" type="line" smooth="yes"/>
      <point x="400" y="391"/>
      <point x="373" y="368"/>
      <point x="373" y="293" type="curve" smooth="yes"/>
      <point x="373" y="180" type="line"/>
      <point x="450" y="112" type="line"/>
      <point x="348" y="112" type="line" smooth="yes"/>
      <point x="293" y="112"/>
      <point x="265" y="128"/>
      <point x="265" y="161" type="curve" smooth="yes"/>
      <point x="265" y="370" type="line" smooth="yes"/>
      <point x="265" y="409"/>
      <point x="275" y="440"/>
      <point x="286" y="452" type="curve"/>
      <point x="322" y="435"/>
      <point x="349" y="424"/>
      <point x="400" y="424" type="curve" smooth="yes"/>
      <point x="548" y="424"/>
      <point x="614" y="489"/>
      <point x="614" y="590" type="curve" smooth="yes"/>
      <point x="614" y="714" type="line"/>
      <point x="433" y="714" type="line"/>
      <point x="433" y="569" type="line" smooth="yes"/>
      <point x="433" y="540"/>
      <point x="416" y="529"/>
      <point x="402" y="526" type="curve" smooth="yes"/>
      <point x="390" y="523"/>
      <point x="373" y="525"/>
      <point x="349" y="535" type="curve"/>
      <point x="360" y="552"/>
      <point x="371" y="569"/>
      <point x="371" y="608" type="curve" smooth="yes"/>
      <point x="371" y="655"/>
      <point x="326" y="709"/>
      <point x="251" y="709" type="curve" smooth="yes"/>
      <point x="166" y="709"/>
      <point x="122" y="648"/>
      <point x="122" y="600" type="curve" smooth="yes"/>
      <point x="122" y="558"/>
      <point x="135" y="541"/>
      <point x="151" y="520" type="curve"/>
      <point x="92" y="481"/>
      <point x="84" y="437"/>
      <point x="84" y="370" type="curve" smooth="yes"/>
      <point x="84" y="161" type="line" smooth="yes"/>
      <point x="84" y="54"/>
      <point x="172" y="0"/>
    </contour>
  </outline>
</glyph>
<glyph name="uni17E6" format="2">
  <advance width="698"/>
  <unicode hex="17E6"/>
  <note>
uni17E6
</note>
  <outline>
    <contour>
      <point x="348" y="0" type="curve" smooth="yes"/>
      <point x="525" y="0"/>
      <point x="614" y="65"/>
      <point x="614" y="195" type="curve" smooth="yes"/>
      <point x="614" y="391" type="line" smooth="yes"/>
      <point x="614" y="521"/>
      <point x="525" y="600"/>
      <point x="378" y="600" type="curve" smooth="yes"/>
      <point x="319" y="600"/>
      <point x="281" y="578"/>
      <point x="265" y="560" type="curve"/>
      <point x="265" y="714" type="line"/>
      <point x="84" y="714" type="line"/>
      <point x="84" y="420" type="line"/>
      <point x="265" y="420" type="line"/>
      <point x="274" y="456"/>
      <point x="295" y="474"/>
      <point x="348" y="474" type="curve" smooth="yes"/>
      <point x="403" y="474"/>
      <point x="433" y="444"/>
      <point x="433" y="391" type="curve" smooth="yes"/>
      <point x="433" y="235" type="line" smooth="yes"/>
      <point x="433" y="178"/>
      <point x="405" y="142"/>
      <point x="348" y="142" type="curve" smooth="yes"/>
      <point x="293" y="142"/>
      <point x="265" y="167"/>
      <point x="265" y="203" type="curve" smooth="yes"/>
      <point x="265" y="233"/>
      <point x="277" y="270"/>
      <point x="340" y="270" type="curve" smooth="yes"/>
      <point x="373" y="270" type="line"/>
      <point x="373" y="382" type="line"/>
      <point x="300" y="382" type="line" smooth="yes"/>
      <point x="156" y="382"/>
      <point x="84" y="310"/>
      <point x="84" y="200" type="curve" smooth="yes"/>
      <point x="84" y="89"/>
      <point x="172" y="0"/>
    </contour>
  </outline>
</glyph>
<glyph name="uni17E7" format="2">
  <advance width="889"/>
  <unicode hex="17E7"/>
  <note>
uni17E7
</note>
  <outline>
    <contour>
      <point x="84" y="0" type="line"/>
      <point x="300" y="0" type="line"/>
      <point x="300" y="112" type="line"/>
      <point x="265" y="112" type="line"/>
      <point x="265" y="424" type="line" smooth="yes"/>
      <point x="265" y="438"/>
      <point x="268" y="452"/>
      <point x="277" y="452" type="curve" smooth="yes"/>
      <point x="285" y="452"/>
      <point x="293" y="442"/>
      <point x="309" y="422" type="curve" smooth="yes"/>
      <point x="317" y="412"/>
      <point x="326" y="407"/>
      <point x="336" y="407" type="curve" smooth="yes"/>
      <point x="346" y="407"/>
      <point x="355" y="412"/>
      <point x="364" y="422" type="curve" smooth="yes"/>
      <point x="375" y="434"/>
      <point x="385" y="452"/>
      <point x="395" y="452" type="curve" smooth="yes"/>
      <point x="404" y="452"/>
      <point x="407" y="442"/>
      <point x="407" y="424" type="curve" smooth="yes"/>
      <point x="407" y="142" type="line" smooth="yes"/>
      <point x="407" y="69"/>
      <point x="475" y="0"/>
      <point x="607" y="0" type="curve" smooth="yes"/>
      <point x="738" y="0"/>
      <point x="805" y="67"/>
      <point x="805" y="142" type="curve" smooth="yes"/>
      <point x="805" y="714" type="line"/>
      <point x="624" y="714" type="line"/>
      <point x="624" y="133" type="line" smooth="yes"/>
      <point x="624" y="122"/>
      <point x="620" y="112"/>
      <point x="606" y="112" type="curve" smooth="yes"/>
      <point x="592" y="112"/>
      <point x="588" y="122"/>
      <point x="588" y="133" type="curve" smooth="yes"/>
      <point x="588" y="402" type="line" smooth="yes"/>
      <point x="588" y="545"/>
      <point x="528" y="586"/>
      <point x="461" y="586" type="curve" smooth="yes"/>
      <point x="403" y="586"/>
      <point x="371" y="566"/>
      <point x="336" y="525" type="curve"/>
      <point x="302" y="566"/>
      <point x="270" y="586"/>
      <point x="205" y="586" type="curve" smooth="yes"/>
      <point x="146" y="586"/>
      <point x="84" y="545"/>
      <point x="84" y="419" type="curve" smooth="yes"/>
    </contour>
  </outline>
</glyph>
<glyph name="uni17E8" format="2">
  <advance width="698"/>
  <unicode hex="17E8"/>
  <note>
uni17E8
</note>
  <outline>
    <contour>
      <point x="84" y="0" type="line"/>
      <point x="236" y="0" type="line"/>
      <point x="349" y="83" type="line"/>
      <point x="462" y="0" type="line"/>
      <point x="614" y="0" type="line"/>
      <point x="614" y="301" type="line" smooth="yes"/>
      <point x="614" y="354"/>
      <point x="607" y="386"/>
      <point x="528" y="386" type="curve" smooth="yes"/>
      <point x="383" y="386" type="line"/>
      <point x="383" y="274" type="line"/>
      <point x="408" y="274" type="line" smooth="yes"/>
      <point x="425" y="274"/>
      <point x="433" y="270"/>
      <point x="433" y="244" type="curve" smooth="yes"/>
      <point x="433" y="165" type="line"/>
      <point x="349" y="231" type="line"/>
      <point x="265" y="164" type="line"/>
      <point x="265" y="430" type="line" smooth="yes"/>
      <point x="265" y="459"/>
      <point x="293" y="474"/>
      <point x="348" y="474" type="curve" smooth="yes"/>
      <point x="405" y="474"/>
      <point x="433" y="459"/>
      <point x="433" y="430" type="curve"/>
      <point x="613" y="430" type="line"/>
      <point x="613" y="714" type="line"/>
      <point x="433" y="714" type="line"/>
      <point x="433" y="560" type="line"/>
      <point x="402" y="577"/>
      <point x="357" y="586"/>
      <point x="296" y="586" type="curve" smooth="yes"/>
      <point x="155" y="586"/>
      <point x="84" y="534"/>
      <point x="84" y="430" type="curve" smooth="yes"/>
    </contour>
  </outline>
</glyph>
<glyph name="uni17E9" format="2">
  <advance width="697"/>
  <unicode hex="17E9"/>
  <note>
uni17E9
</note>
  <outline>
    <contour>
      <point x="348" y="0" type="curve" smooth="yes"/>
      <point x="525" y="0"/>
      <point x="603" y="59"/>
      <point x="603" y="143" type="curve" smooth="yes"/>
      <point x="603" y="219"/>
      <point x="557" y="259"/>
      <point x="434" y="259" type="curve" smooth="yes"/>
      <point x="360" y="259" type="line"/>
      <point x="360" y="178" type="line"/>
      <point x="372" y="178" type="line" smooth="yes"/>
      <point x="401" y="178"/>
      <point x="423" y="171"/>
      <point x="423" y="149" type="curve" smooth="yes"/>
      <point x="423" y="121"/>
      <point x="390" y="112"/>
      <point x="340" y="112" type="curve" smooth="yes"/>
      <point x="295" y="112"/>
      <point x="265" y="123"/>
      <point x="265" y="146" type="curve" smooth="yes"/>
      <point x="265" y="234" type="line" smooth="yes"/>
      <point x="265" y="274"/>
      <point x="293" y="289"/>
      <point x="326" y="289" type="curve" smooth="yes"/>
      <point x="495" y="289" type="line"/>
      <point x="495" y="401" type="line"/>
      <point x="302" y="401" type="line" smooth="yes"/>
      <point x="282" y="401"/>
      <point x="263" y="408"/>
      <point x="263" y="435" type="curve" smooth="yes"/>
      <point x="263" y="471"/>
      <point x="302" y="485"/>
      <point x="350" y="485" type="curve" smooth="yes"/>
      <point x="406" y="485"/>
      <point x="423" y="472"/>
      <point x="433" y="460" type="curve"/>
      <point x="613" y="460" type="line"/>
      <point x="613" y="714" type="line"/>
      <point x="433" y="714" type="line"/>
      <point x="433" y="567" type="line"/>
      <point x="416" y="579"/>
      <point x="378" y="596"/>
      <point x="305" y="596" type="curve" smooth="yes"/>
      <point x="158" y="596"/>
      <point x="84" y="537"/>
      <point x="84" y="449" type="curve" smooth="yes"/>
      <point x="84" y="396"/>
      <point x="108" y="363"/>
      <point x="169" y="349" type="curve"/>
      <point x="108" y="335"/>
      <point x="84" y="293"/>
      <point x="84" y="222" type="curve" smooth="yes"/>
      <point x="84" y="161" type="line" smooth="yes"/>
      <point x="84" y="65"/>
      <point x="172" y="0"/>
    </contour>
  </outline>
</glyph>
<glyph name="uni17F1" format="2">
  <advance width="439"/>
  <unicode hex="17F1"/>
  <note>
uni17F1
</note>
  <outline>
    <contour>
      <point x="12" y="0" type="line"/>
      <point x="142" y="0" type="line"/>
      <point x="219" y="220" type="line"/>
      <point x="297" y="0" type="line"/>
      <point x="427" y="0" type="line"/>
      <point x="309" y="342" type="line"/>
      <point x="129" y="342" type="line"/>
    </contour>
  </outline>
</glyph>
<glyph name="uni17F2" format="2">
  <advance width="172"/>
  <unicode hex="17F2"/>
  <note>
uni17F2
</note>
  <outline>
    <contour>
      <point x="21" y="0" type="line"/>
      <point x="151" y="0" type="line"/>
      <point x="151" y="342" type="line"/>
      <point x="21" y="342" type="line"/>
    </contour>
  </outline>
</glyph>
<glyph name="uni17F3" format="2">
  <advance width="767"/>
  <unicode hex="17F3"/>
  <note>
uni17F3
</note>
  <outline>
    <contour>
      <point x="637" y="342" type="line"/>
      <point x="457" y="342" type="line"/>
      <point x="383" y="127" type="line"/>
      <point x="309" y="342" type="line"/>
      <point x="129" y="342" type="line"/>
      <point x="22" y="0" type="line"/>
      <point x="152" y="0" type="line"/>
      <point x="219" y="220" type="line"/>
      <point x="297" y="0" type="line"/>
      <point x="470" y="0" type="line"/>
      <point x="547" y="220" type="line"/>
      <point x="615" y="0" type="line"/>
      <point x="745" y="0" type="line"/>
    </contour>
  </outline>
</glyph>
<glyph name="uni17F4" format="2">
  <advance width="439"/>
  <unicode hex="17F4"/>
  <note>
uni17F4
</note>
  <outline>
    <contour>
      <point x="130" y="0" type="line"/>
      <point x="310" y="0" type="line"/>
      <point x="427" y="342" type="line"/>
      <point x="297" y="342" type="line"/>
      <point x="220" y="122" type="line"/>
      <point x="142" y="342" type="line"/>
      <point x="12" y="342" type="line"/>
    </contour>
  </outline>
</glyph>
<glyph name="uni19E0" format="2">
  <advance width="635"/>
  <unicode hex="19E0"/>
  <note>
uni19E0
</note>
  <outline>
    <contour>
      <point x="348" y="441" type="curve" smooth="yes"/>
      <point x="525" y="441"/>
      <point x="613" y="503"/>
      <point x="613" y="627" type="curve" smooth="yes"/>
      <point x="613" y="841" type="line" smooth="yes"/>
      <point x="613" y="965"/>
      <point x="525" y="1027"/>
      <point x="348" y="1027" type="curve" smooth="yes"/>
      <point x="172" y="1027"/>
      <point x="84" y="965"/>
      <point x="84" y="841" type="curve" smooth="yes"/>
      <point x="84" y="627" type="line" smooth="yes"/>
      <point x="84" y="503"/>
      <point x="172" y="441"/>
    </contour>
    <contour>
      <point x="348" y="553" type="curve" smooth="yes"/>
      <point x="293" y="553"/>
      <point x="265" y="578"/>
      <point x="265" y="627" type="curve" smooth="yes"/>
      <point x="265" y="841" type="line" smooth="yes"/>
      <point x="265" y="890"/>
      <point x="293" y="915"/>
      <point x="348" y="915" type="curve" smooth="yes"/>
      <point x="405" y="915"/>
      <point x="433" y="890"/>
      <point x="433" y="841" type="curve" smooth="yes"/>
      <point x="433" y="627" type="line" smooth="yes"/>
      <point x="433" y="578"/>
      <point x="405" y="553"/>
    </contour>
    <contour>
      <point x="84" y="-288" type="line"/>
      <point x="236" y="-288" type="line"/>
      <point x="349" y="-205" type="line"/>
      <point x="462" y="-288" type="line"/>
      <point x="614" y="-288" type="line"/>
      <point x="614" y="13" type="line" smooth="yes"/>
      <point x="614" y="66"/>
      <point x="607" y="98"/>
      <point x="528" y="98" type="curve" smooth="yes"/>
      <point x="383" y="98" type="line"/>
      <point x="383" y="-14" type="line"/>
      <point x="408" y="-14" type="line" smooth="yes"/>
      <point x="425" y="-14"/>
      <point x="433" y="-18"/>
      <point x="433" y="-44" type="curve" smooth="yes"/>
      <point x="433" y="-123" type="line"/>
      <point x="349" y="-57" type="line"/>
      <point x="265" y="-124" type="line"/>
      <point x="265" y="142" type="line" smooth="yes"/>
      <point x="265" y="171"/>
      <point x="293" y="186"/>
      <point x="348" y="186" type="curve" smooth="yes"/>
      <point x="405" y="186"/>
      <point x="433" y="171"/>
      <point x="433" y="142" type="curve"/>
      <point x="613" y="142" type="line"/>
      <point x="613" y="426" type="line"/>
      <point x="433" y="426" type="line"/>
      <point x="433" y="272" type="line"/>
      <point x="402" y="289"/>
      <point x="357" y="298"/>
      <point x="296" y="298" type="curve" smooth="yes"/>
      <point x="155" y="298"/>
      <point x="84" y="246"/>
      <point x="84" y="142" type="curve" smooth="yes"/>
    </contour>
  </outline>
</glyph>
<glyph name="uni19E1" format="2">
  <advance width="635"/>
  <unicode hex="19E1"/>
  <note>
uni19E1
</note>
  <outline>
    <contour>
      <point x="348" y="390" type="curve" smooth="yes"/>
      <point x="525" y="390"/>
      <point x="613" y="442"/>
      <point x="613" y="546" type="curve" smooth="yes"/>
      <point x="613" y="820" type="line" smooth="yes"/>
      <point x="613" y="924"/>
      <point x="525" y="976"/>
      <point x="348" y="976" type="curve" smooth="yes"/>
      <point x="172" y="976"/>
      <point x="84" y="924"/>
      <point x="84" y="820" type="curve" smooth="yes"/>
      <point x="84" y="761" type="line" smooth="yes"/>
      <point x="84" y="660"/>
      <point x="150" y="642"/>
      <point x="234" y="642" type="curve" smooth="yes"/>
      <point x="348" y="642" type="line"/>
      <point x="348" y="772" type="line"/>
      <point x="304" y="772" type="line" smooth="yes"/>
      <point x="265" y="772"/>
      <point x="265" y="793"/>
      <point x="265" y="811" type="curve" smooth="yes"/>
      <point x="265" y="820" type="line" smooth="yes"/>
      <point x="265" y="849"/>
      <point x="293" y="864"/>
      <point x="348" y="864" type="curve" smooth="yes"/>
      <point x="405" y="864"/>
      <point x="433" y="849"/>
      <point x="433" y="820" type="curve" smooth="yes"/>
      <point x="433" y="546" type="line" smooth="yes"/>
      <point x="433" y="517"/>
      <point x="405" y="502"/>
      <point x="348" y="502" type="curve" smooth="yes"/>
      <point x="293" y="502"/>
      <point x="265" y="518"/>
      <point x="265" y="547" type="curve"/>
      <point x="84" y="547" type="line"/>
      <point x="84" y="443"/>
      <point x="172" y="390"/>
    </contour>
    <contour>
      <point x="353" y="-288" type="line"/>
      <point x="534" y="-288" type="line"/>
      <point x="534" y="298" type="line"/>
      <point x="353" y="298" type="line"/>
      <point x="346" y="211"/>
      <point x="304" y="134"/>
      <point x="246" y="134" type="curve" smooth="yes"/>
      <point x="233" y="134"/>
      <point x="225" y="139"/>
      <point x="225" y="151" type="curve" smooth="yes"/>
      <point x="225" y="162"/>
      <point x="232" y="168"/>
      <point x="242" y="168" type="curve" smooth="yes"/>
      <point x="247" y="168" type="line"/>
      <point x="247" y="298" type="line"/>
      <point x="208" y="298" type="line" smooth="yes"/>
      <point x="95" y="298"/>
      <point x="53" y="237"/>
      <point x="53" y="162" type="curve" smooth="yes"/>
      <point x="53" y="65"/>
      <point x="145" y="11"/>
      <point x="212" y="11" type="curve" smooth="yes"/>
      <point x="290" y="11"/>
      <point x="319" y="34"/>
      <point x="353" y="68" type="curve"/>
    </contour>
  </outline>
</glyph>
<glyph name="uni19E2" format="2">
  <advance width="855"/>
  <unicode hex="19E2"/>
  <note>
uni19E2
</note>
  <outline>
    <contour>
      <point x="499" y="391" type="curve" smooth="yes"/>
      <point x="734" y="391"/>
      <point x="851" y="456"/>
      <point x="851" y="586" type="curve" smooth="yes"/>
      <point x="851" y="977" type="line"/>
      <point x="670" y="977" type="line"/>
      <point x="612" y="935" type="line"/>
      <point x="559" y="977" type="line"/>
      <point x="373" y="977" type="line"/>
      <point x="373" y="684" type="line"/>
      <point x="573" y="684" type="line"/>
      <point x="573" y="796" type="line"/>
      <point x="559" y="796" type="line"/>
      <point x="559" y="850" type="line"/>
      <point x="612" y="810" type="line"/>
      <point x="670" y="850" type="line"/>
      <point x="670" y="586" type="line" smooth="yes"/>
      <point x="670" y="530"/>
      <point x="614" y="503"/>
      <point x="499" y="503" type="curve" smooth="yes"/>
      <point x="384" y="503"/>
      <point x="326" y="531"/>
      <point x="326" y="586" type="curve" smooth="yes"/>
      <point x="326" y="1038" type="line" smooth="yes"/>
      <point x="326" y="1075"/>
      <point x="318" y="1099"/>
      <point x="267" y="1099" type="curve" smooth="yes"/>
      <point x="96" y="1099" type="line"/>
      <point x="96" y="987" type="line"/>
      <point x="145" y="987" type="line"/>
      <point x="145" y="586" type="line" smooth="yes"/>
      <point x="145" y="456"/>
      <point x="263" y="391"/>
    </contour>
    <contour>
      <point x="488" y="-288" type="line"/>
      <point x="669" y="-288" type="line"/>
      <point x="669" y="298" type="line"/>
      <point x="488" y="298" type="line"/>
      <point x="481" y="211"/>
      <point x="439" y="134"/>
      <point x="381" y="134" type="curve" smooth="yes"/>
      <point x="368" y="134"/>
      <point x="360" y="139"/>
      <point x="360" y="151" type="curve" smooth="yes"/>
      <point x="360" y="162"/>
      <point x="367" y="168"/>
      <point x="377" y="168" type="curve" smooth="yes"/>
      <point x="382" y="168" type="line"/>
      <point x="382" y="298" type="line"/>
      <point x="343" y="298" type="line" smooth="yes"/>
      <point x="230" y="298"/>
      <point x="188" y="237"/>
      <point x="188" y="162" type="curve" smooth="yes"/>
      <point x="188" y="65"/>
      <point x="280" y="11"/>
      <point x="347" y="11" type="curve" smooth="yes"/>
      <point x="425" y="11"/>
      <point x="454" y="34"/>
      <point x="488" y="68" type="curve"/>
    </contour>
  </outline>
</glyph>
<glyph name="uni19E3" format="2">
  <advance width="861"/>
  <unicode hex="19E3"/>
  <note>
uni19E3
</note>
  <outline>
    <contour>
      <point x="84" y="391" type="line"/>
      <point x="304" y="391" type="line"/>
      <point x="304" y="503" type="line"/>
      <point x="265" y="503" type="line"/>
      <point x="265" y="814" type="line" smooth="yes"/>
      <point x="265" y="849"/>
      <point x="283" y="865"/>
      <point x="318" y="865" type="curve" smooth="yes"/>
      <point x="353" y="865"/>
      <point x="371" y="849"/>
      <point x="371" y="814" type="curve" smooth="yes"/>
      <point x="371" y="391" type="line"/>
      <point x="551" y="391" type="line"/>
      <point x="551" y="814" type="line" smooth="yes"/>
      <point x="551" y="849"/>
      <point x="569" y="865"/>
      <point x="605" y="865" type="curve" smooth="yes"/>
      <point x="640" y="865"/>
      <point x="658" y="849"/>
      <point x="658" y="814" type="curve" smooth="yes"/>
      <point x="658" y="391" type="line"/>
      <point x="838" y="391" type="line"/>
      <point x="838" y="801" type="line" smooth="yes"/>
      <point x="838" y="918"/>
      <point x="760" y="977"/>
      <point x="605" y="977" type="curve" smooth="yes"/>
      <point x="540" y="977"/>
      <point x="492" y="962"/>
      <point x="461" y="933" type="curve"/>
      <point x="430" y="962"/>
      <point x="382" y="977"/>
      <point x="318" y="977" type="curve" smooth="yes"/>
      <point x="162" y="977"/>
      <point x="84" y="920"/>
      <point x="84" y="806" type="curve" smooth="yes"/>
    </contour>
    <contour>
      <point x="491" y="-288" type="line"/>
      <point x="672" y="-288" type="line"/>
      <point x="672" y="298" type="line"/>
      <point x="491" y="298" type="line"/>
      <point x="484" y="211"/>
      <point x="442" y="134"/>
      <point x="384" y="134" type="curve" smooth="yes"/>
      <point x="371" y="134"/>
      <point x="363" y="139"/>
      <point x="363" y="151" type="curve" smooth="yes"/>
      <point x="363" y="162"/>
      <point x="370" y="168"/>
      <point x="380" y="168" type="curve" smooth="yes"/>
      <point x="385" y="168" type="line"/>
      <point x="385" y="298" type="line"/>
      <point x="346" y="298" type="line" smooth="yes"/>
      <point x="233" y="298"/>
      <point x="191" y="237"/>
      <point x="191" y="162" type="curve" smooth="yes"/>
      <point x="191" y="65"/>
      <point x="283" y="11"/>
      <point x="350" y="11" type="curve" smooth="yes"/>
      <point x="428" y="11"/>
      <point x="457" y="34"/>
      <point x="491" y="68" type="curve"/>
    </contour>
  </outline>
</glyph>
<glyph name="uni19E4" format="2">
  <advance width="686"/>
  <unicode hex="19E4"/>
  <note>
uni19E4
</note>
  <outline>
    <contour>
      <point x="407" y="391" type="curve" smooth="yes"/>
      <point x="646" y="391" type="line"/>
      <point x="680" y="480" type="line"/>
      <point x="611" y="634" type="line"/>
      <point x="611" y="718" type="line"/>
      <point x="672" y="718" type="line"/>
      <point x="672" y="849" type="line"/>
      <point x="617" y="849" type="line" smooth="yes"/>
      <point x="518" y="849"/>
      <point x="432" y="845"/>
      <point x="432" y="782" type="curve" smooth="yes"/>
      <point x="432" y="610" type="line"/>
      <point x="519" y="503" type="line"/>
      <point x="407" y="503" type="line" smooth="yes"/>
      <point x="352" y="503"/>
      <point x="324" y="531"/>
      <point x="324" y="586" type="curve" smooth="yes"/>
      <point x="324" y="1031" type="line" smooth="yes"/>
      <point x="324" y="1080"/>
      <point x="302" y="1104"/>
      <point x="249" y="1104" type="curve" smooth="yes"/>
      <point x="94" y="1104" type="line"/>
      <point x="94" y="992" type="line"/>
      <point x="143" y="992" type="line"/>
      <point x="143" y="586" type="line" smooth="yes"/>
      <point x="143" y="456"/>
      <point x="231" y="391"/>
    </contour>
    <contour>
      <point x="399" y="-288" type="line"/>
      <point x="580" y="-288" type="line"/>
      <point x="580" y="298" type="line"/>
      <point x="399" y="298" type="line"/>
      <point x="392" y="211"/>
      <point x="350" y="134"/>
      <point x="292" y="134" type="curve" smooth="yes"/>
      <point x="279" y="134"/>
      <point x="271" y="139"/>
      <point x="271" y="151" type="curve" smooth="yes"/>
      <point x="271" y="162"/>
      <point x="278" y="168"/>
      <point x="288" y="168" type="curve" smooth="yes"/>
      <point x="293" y="168" type="line"/>
      <point x="293" y="298" type="line"/>
      <point x="254" y="298" type="line" smooth="yes"/>
      <point x="141" y="298"/>
      <point x="99" y="237"/>
      <point x="99" y="162" type="curve" smooth="yes"/>
      <point x="99" y="65"/>
      <point x="191" y="11"/>
      <point x="258" y="11" type="curve" smooth="yes"/>
      <point x="336" y="11"/>
      <point x="365" y="34"/>
      <point x="399" y="68" type="curve"/>
    </contour>
  </outline>
</glyph>
